<svg width="63" height="52" viewBox="0 0 63 52" fill="none" xmlns="http://www.w3.org/2000/svg">
<path d="M44.8333 6.16669H20.1667C18.4662 6.16669 17.0833 7.54956 17.0833 9.25002V27.75C17.0833 29.4505 18.4662 30.8334 20.1667 30.8334H44.8333C46.5338 30.8334 47.9167 29.4505 47.9167 27.75V9.25002C47.9167 7.54956 46.5338 6.16669 44.8333 6.16669ZM27.4356 12.3334C29.2101 12.3334 30.519 13.6422 30.519 15.4167C30.519 17.1911 29.2101 18.5 27.4356 18.5C25.6612 18.5 24.3523 17.1911 24.3523 15.4167C24.3523 13.6422 25.6596 12.3334 27.4356 12.3334ZM33.1629 24.6667H21.7083V23.9498C21.7083 21.8331 24.2922 19.6563 27.4356 19.6563C30.5791 19.6563 33.1629 21.8331 33.1629 23.9498V24.6667ZM43.2917 23.125H37.125V20.0417H43.2917V23.125ZM43.2917 16.9584H35.5833V13.875H43.2917V16.9584Z" fill="black"/>
<path d="M5.12695 46.75C5.12695 46.6055 5.10547 46.4766 5.0625 46.3633C5.01953 46.2461 4.94141 46.1387 4.82812 46.041C4.71484 45.9434 4.55469 45.8457 4.34766 45.748C4.14062 45.6465 3.86914 45.543 3.5332 45.4375C3.15039 45.3125 2.78516 45.1719 2.4375 45.0156C2.09375 44.8555 1.78711 44.6699 1.51758 44.459C1.24805 44.248 1.03516 44.002 0.878906 43.7207C0.726562 43.4395 0.650391 43.1113 0.650391 42.7363C0.650391 42.373 0.730469 42.0449 0.890625 41.752C1.05078 41.459 1.27539 41.209 1.56445 41.002C1.85352 40.791 2.19336 40.6309 2.58398 40.5215C2.97461 40.4082 3.4043 40.3516 3.87305 40.3516C4.49805 40.3516 5.04688 40.4629 5.51953 40.6855C5.99609 40.9043 6.36719 41.2129 6.63281 41.6113C6.89844 42.0059 7.03125 42.4648 7.03125 42.9883H5.13281C5.13281 42.7578 5.08398 42.5547 4.98633 42.3789C4.89258 42.1992 4.74805 42.0586 4.55273 41.957C4.36133 41.8555 4.12109 41.8047 3.83203 41.8047C3.55078 41.8047 3.31445 41.8477 3.12305 41.9336C2.93555 42.0156 2.79297 42.1289 2.69531 42.2734C2.60156 42.418 2.55469 42.5762 2.55469 42.748C2.55469 42.8848 2.58984 43.0098 2.66016 43.123C2.73438 43.2324 2.83984 43.3359 2.97656 43.4336C3.11719 43.5273 3.28906 43.6172 3.49219 43.7031C3.69531 43.7891 3.92773 43.8711 4.18945 43.9492C4.64648 44.0938 5.05078 44.2539 5.40234 44.4297C5.75781 44.6055 6.05664 44.8047 6.29883 45.0273C6.54102 45.25 6.72266 45.502 6.84375 45.7832C6.96875 46.0645 7.03125 46.3828 7.03125 46.7383C7.03125 47.1172 6.95703 47.4531 6.80859 47.7461C6.66406 48.0391 6.45312 48.2891 6.17578 48.4961C5.90234 48.6992 5.57422 48.8535 5.19141 48.959C4.80859 49.0645 4.38086 49.1172 3.9082 49.1172C3.47852 49.1172 3.05469 49.0625 2.63672 48.9531C2.21875 48.8398 1.83984 48.668 1.5 48.4375C1.16406 48.207 0.894531 47.9141 0.691406 47.5586C0.492188 47.1992 0.392578 46.7734 0.392578 46.2812H2.30273C2.30273 46.5391 2.33984 46.7578 2.41406 46.9375C2.48828 47.1133 2.59375 47.2559 2.73047 47.3652C2.87109 47.4746 3.04102 47.5527 3.24023 47.5996C3.43945 47.6465 3.66211 47.6699 3.9082 47.6699C4.19336 47.6699 4.42383 47.6309 4.59961 47.5527C4.7793 47.4707 4.91211 47.3594 4.99805 47.2188C5.08398 47.0781 5.12695 46.9219 5.12695 46.75ZM11.9452 42.6602V43.9434H8.18344V42.6602H11.9452ZM9.04477 41.0898H10.8787V47.0137C10.8787 47.1895 10.9002 47.3242 10.9432 47.418C10.9862 47.5117 11.0565 47.5781 11.1541 47.6172C11.2518 47.6523 11.3768 47.6699 11.5291 47.6699C11.6385 47.6699 11.7323 47.666 11.8104 47.6582C11.8885 47.6504 11.9608 47.6406 12.0272 47.6289V48.9531C11.8709 49.0039 11.7049 49.043 11.5291 49.0703C11.3534 49.1016 11.162 49.1172 10.9549 49.1172C10.5604 49.1172 10.2186 49.0527 9.92953 48.9238C9.64437 48.7949 9.42562 48.5918 9.27328 48.3145C9.12094 48.0332 9.04477 47.668 9.04477 47.2188V41.0898ZM17.2048 47.4707V42.6602H19.0446V49H17.322L17.2048 47.4707ZM17.3981 46.1758L17.902 46.1641C17.902 46.5898 17.8512 46.9824 17.7497 47.3418C17.652 47.7012 17.5036 48.0137 17.3044 48.2793C17.1091 48.5449 16.8649 48.752 16.572 48.9004C16.2829 49.0449 15.945 49.1172 15.5583 49.1172C15.2458 49.1172 14.9587 49.0742 14.697 48.9883C14.4391 48.8984 14.2165 48.7598 14.029 48.5723C13.8415 48.3809 13.697 48.1367 13.5954 47.8398C13.4938 47.5391 13.443 47.1797 13.443 46.7617V42.6602H15.2712V46.7734C15.2712 46.9375 15.2907 47.0781 15.3298 47.1953C15.3727 47.3086 15.4294 47.4023 15.4997 47.4766C15.5739 47.5508 15.6637 47.6055 15.7692 47.6406C15.8786 47.6758 15.9977 47.6934 16.1266 47.6934C16.4509 47.6934 16.7048 47.627 16.8884 47.4941C17.0759 47.3574 17.2067 47.1758 17.2809 46.9492C17.3591 46.7188 17.3981 46.4609 17.3981 46.1758ZM24.5855 47.582V40H26.4253V49H24.773L24.5855 47.582ZM20.6362 45.9062V45.7832C20.6362 45.3027 20.689 44.8652 20.7945 44.4707C20.9038 44.0723 21.062 43.7305 21.2691 43.4453C21.48 43.1562 21.7398 42.9336 22.0484 42.7773C22.357 42.6211 22.7105 42.543 23.1089 42.543C23.4761 42.543 23.7964 42.625 24.0698 42.7891C24.3433 42.9492 24.5757 43.1758 24.7671 43.4688C24.9624 43.7578 25.1206 44.0996 25.2417 44.4941C25.3628 44.8848 25.4546 45.3086 25.5171 45.7656V45.9766C25.4585 46.4141 25.3667 46.8223 25.2417 47.2012C25.1206 47.5801 24.9624 47.9141 24.7671 48.2031C24.5757 48.4883 24.3413 48.7129 24.064 48.877C23.7905 49.0371 23.4683 49.1172 23.0972 49.1172C22.6987 49.1172 22.3452 49.0371 22.0366 48.877C21.732 48.7168 21.4761 48.4922 21.2691 48.2031C21.062 47.9141 20.9038 47.5742 20.7945 47.1836C20.689 46.793 20.6362 46.3672 20.6362 45.9062ZM22.4644 45.7832V45.9062C22.4644 46.1562 22.482 46.3887 22.5171 46.6035C22.5562 46.8184 22.6187 47.0078 22.7046 47.1719C22.7905 47.3359 22.9038 47.4648 23.0445 47.5586C23.1851 47.6484 23.357 47.6934 23.5601 47.6934C23.8335 47.6934 24.0581 47.6309 24.2339 47.5059C24.4097 47.377 24.5425 47.1992 24.6323 46.9727C24.7222 46.7461 24.7691 46.4824 24.773 46.1816V45.5664C24.773 45.3164 24.7476 45.0918 24.6968 44.8926C24.646 44.6934 24.5698 44.5254 24.4683 44.3887C24.3706 44.252 24.2476 44.1484 24.0991 44.0781C23.9507 44.0039 23.7749 43.9668 23.5718 43.9668C23.3726 43.9668 23.2027 44.0137 23.062 44.1074C22.9214 44.1973 22.8062 44.3242 22.7163 44.4883C22.6304 44.6523 22.5659 44.8457 22.523 45.0684C22.4839 45.2871 22.4644 45.5254 22.4644 45.7832ZM30.2318 42.6602V49H28.3978V42.6602H30.2318ZM28.2865 41.0195C28.2865 40.7539 28.3802 40.5371 28.5677 40.3691C28.7552 40.1973 29.0013 40.1113 29.306 40.1113C29.6107 40.1113 29.8568 40.1973 30.0443 40.3691C30.2357 40.5371 30.3314 40.7539 30.3314 41.0195C30.3314 41.2812 30.2357 41.498 30.0443 41.6699C29.8568 41.8379 29.6107 41.9219 29.306 41.9219C29.0013 41.9219 28.7552 41.8379 28.5677 41.6699C28.3802 41.498 28.2865 41.2812 28.2865 41.0195ZM35.1984 49.1172C34.6945 49.1172 34.2434 49.0371 33.8449 48.877C33.4465 48.7168 33.1086 48.4961 32.8312 48.2148C32.5578 47.9297 32.3488 47.6016 32.2043 47.2305C32.0598 46.8594 31.9875 46.4629 31.9875 46.041V45.8184C31.9875 45.3457 32.0539 44.9102 32.1867 44.5117C32.3195 44.1133 32.5129 43.7676 32.7668 43.4746C33.0246 43.1777 33.341 42.9492 33.716 42.7891C34.091 42.625 34.5187 42.543 34.9992 42.543C35.4484 42.543 35.8488 42.6172 36.2004 42.7656C36.552 42.9102 36.8488 43.1191 37.091 43.3926C37.3332 43.6621 37.5168 43.9883 37.6418 44.3711C37.7707 44.75 37.8352 45.1758 37.8352 45.6484V46.3984H32.7258V45.2207H36.0422V45.0801C36.0422 44.8574 36.0012 44.6621 35.9191 44.4941C35.841 44.3262 35.7238 44.1973 35.5676 44.1074C35.4152 44.0137 35.2219 43.9668 34.9875 43.9668C34.7648 43.9668 34.5793 44.0137 34.4309 44.1074C34.2824 44.2012 34.1633 44.334 34.0734 44.5059C33.9875 44.6738 33.925 44.8711 33.8859 45.0977C33.8469 45.3203 33.8273 45.5605 33.8273 45.8184V46.041C33.8273 46.2871 33.8605 46.5117 33.927 46.7148C33.9934 46.918 34.091 47.0918 34.2199 47.2363C34.3488 47.3809 34.5051 47.4941 34.6887 47.5762C34.8723 47.6582 35.0812 47.6992 35.3156 47.6992C35.6047 47.6992 35.8801 47.6445 36.1418 47.5352C36.4035 47.4219 36.6301 47.2461 36.8215 47.0078L37.677 47.9863C37.548 48.1738 37.3664 48.3555 37.132 48.5312C36.9016 48.7031 36.6242 48.8438 36.3 48.9531C35.9758 49.0625 35.6086 49.1172 35.1984 49.1172ZM41.2256 39.9941V49H39.3916V39.9941H41.2256ZM45.251 42.6602L42.4912 45.8477L41.0323 47.3125L40.2998 46.0762L41.4834 44.5469L43.0479 42.6602H45.251ZM43.3174 49L41.5303 46.0879L42.8428 45.0625L45.4151 49H43.3174ZM46.2743 45.8945V45.7715C46.2743 45.3066 46.3407 44.8789 46.4735 44.4883C46.6063 44.0938 46.8016 43.752 47.0595 43.4629C47.3173 43.1738 47.6337 42.9492 48.0087 42.7891C48.3837 42.625 48.8134 42.543 49.2977 42.543C49.7899 42.543 50.2235 42.625 50.5985 42.7891C50.9774 42.9492 51.2958 43.1738 51.5536 43.4629C51.8114 43.752 52.0067 44.0938 52.1395 44.4883C52.2723 44.8789 52.3387 45.3066 52.3387 45.7715V45.8945C52.3387 46.3555 52.2723 46.7832 52.1395 47.1777C52.0067 47.5684 51.8114 47.9102 51.5536 48.2031C51.2958 48.4922 50.9794 48.7168 50.6044 48.877C50.2294 49.0371 49.7977 49.1172 49.3095 49.1172C48.8251 49.1172 48.3934 49.0371 48.0145 48.877C47.6356 48.7168 47.3173 48.4922 47.0595 48.2031C46.8016 47.9102 46.6063 47.5684 46.4735 47.1777C46.3407 46.7832 46.2743 46.3555 46.2743 45.8945ZM48.1083 45.7715V45.8945C48.1083 46.1445 48.1278 46.3789 48.1669 46.5977C48.2098 46.8164 48.2782 47.0078 48.372 47.1719C48.4657 47.3359 48.5887 47.4648 48.7411 47.5586C48.8973 47.6484 49.0868 47.6934 49.3095 47.6934C49.5321 47.6934 49.7196 47.6484 49.872 47.5586C50.0243 47.4648 50.1473 47.3359 50.2411 47.1719C50.3348 47.0078 50.4012 46.8164 50.4403 46.5977C50.4833 46.3789 50.5048 46.1445 50.5048 45.8945V45.7715C50.5048 45.5254 50.4833 45.2949 50.4403 45.0801C50.4012 44.8613 50.3348 44.668 50.2411 44.5C50.1473 44.332 50.0223 44.2012 49.8661 44.1074C49.7137 44.0137 49.5243 43.9668 49.2977 43.9668C49.079 43.9668 48.8934 44.0137 48.7411 44.1074C48.5887 44.2012 48.4657 44.332 48.372 44.5C48.2782 44.668 48.2098 44.8613 48.1669 45.0801C48.1278 45.2949 48.1083 45.5254 48.1083 45.7715ZM55.7937 44.1367V49H53.9655V42.6602H55.6823L55.7937 44.1367ZM57.6862 42.6133L57.657 44.3184C57.5788 44.3066 57.4773 44.2969 57.3523 44.2891C57.2273 44.2773 57.1198 44.2715 57.03 44.2715C56.7956 44.2715 56.5925 44.3008 56.4206 44.3594C56.2527 44.4141 56.112 44.4961 55.9987 44.6055C55.8894 44.7148 55.8073 44.8516 55.7527 45.0156C55.698 45.1758 55.6706 45.3613 55.6706 45.5723L55.3249 45.4023C55.3249 44.9844 55.3659 44.6016 55.448 44.2539C55.53 43.9062 55.6491 43.6055 55.8054 43.3516C55.9616 43.0938 56.153 42.8945 56.3796 42.7539C56.6062 42.6133 56.864 42.543 57.153 42.543C57.2468 42.543 57.3425 42.5488 57.4402 42.5605C57.5378 42.5723 57.6198 42.5898 57.6862 42.6133ZM62.6119 42.6602V43.9434H58.8502V42.6602H62.6119ZM59.7115 41.0898H61.5455V47.0137C61.5455 47.1895 61.567 47.3242 61.6099 47.418C61.6529 47.5117 61.7232 47.5781 61.8209 47.6172C61.9185 47.6523 62.0435 47.6699 62.1959 47.6699C62.3052 47.6699 62.399 47.666 62.4771 47.6582C62.5552 47.6504 62.6275 47.6406 62.6939 47.6289V48.9531C62.5377 49.0039 62.3716 49.043 62.1959 49.0703C62.0201 49.1016 61.8287 49.1172 61.6216 49.1172C61.2271 49.1172 60.8853 49.0527 60.5962 48.9238C60.3111 48.7949 60.0923 48.5918 59.94 48.3145C59.7877 48.0332 59.7115 47.668 59.7115 47.2188V41.0898Z" fill="black"/>
</svg>
