<svg width="69" height="10" viewBox="0 0 69 10" fill="none" xmlns="http://www.w3.org/2000/svg">
<path d="M3.975 9.132C2.927 9.132 2.127 8.752 1.575 7.992C1.023 7.224 0.747 6.14 0.747 4.74C0.747 3.332 1.023 2.26 1.575 1.524C2.127 0.78 2.927 0.408 3.975 0.408C5.023 0.408 5.823 0.78 6.375 1.524C6.927 2.26 7.203 3.328 7.203 4.728C7.203 6.136 6.927 7.224 6.375 7.992C5.823 8.752 5.023 9.132 3.975 9.132ZM3.975 7.38C4.359 7.38 4.643 7.172 4.827 6.756C5.019 6.332 5.115 5.656 5.115 4.728C5.115 3.808 5.019 3.152 4.827 2.76C4.643 2.36 4.359 2.16 3.975 2.16C3.591 2.16 3.303 2.36 3.111 2.76C2.927 3.152 2.835 3.808 2.835 4.728C2.835 5.656 2.927 6.332 3.111 6.756C3.303 7.172 3.591 7.38 3.975 7.38ZM9.45431 9C8.84631 9 8.54231 8.7 8.54231 8.1C8.54231 7.508 8.84631 7.212 9.45431 7.212H10.5343V2.928L9.80231 3.372C9.59431 3.5 9.39831 3.552 9.21431 3.528C9.03031 3.496 8.87431 3.416 8.74631 3.288C8.61831 3.16 8.53431 3.004 8.49431 2.82C8.45431 2.636 8.47031 2.452 8.54231 2.268C8.61431 2.084 8.75831 1.928 8.97431 1.8L10.6303 0.767999C10.9903 0.543999 11.3703 0.431999 11.7703 0.431999C12.0743 0.431999 12.3103 0.512 12.4783 0.672C12.6463 0.824 12.7303 1.048 12.7303 1.344V7.212H13.6903C14.2983 7.212 14.6023 7.508 14.6023 8.1C14.6023 8.7 14.2983 9 13.6903 9H9.45431ZM16.2536 6.612C16.0136 6.612 15.8136 6.532 15.6536 6.372C15.4936 6.212 15.4136 6.012 15.4136 5.772C15.4136 5.532 15.4936 5.336 15.6536 5.184C15.8136 5.024 16.0136 4.944 16.2536 4.944H18.6296C18.8696 4.944 19.0696 5.024 19.2296 5.184C19.3896 5.336 19.4696 5.532 19.4696 5.772C19.4696 6.012 19.3896 6.212 19.2296 6.372C19.0696 6.532 18.8696 6.612 18.6296 6.612H16.2536ZM23.7094 9.132C22.6614 9.132 21.8614 8.752 21.3094 7.992C20.7574 7.224 20.4814 6.14 20.4814 4.74C20.4814 3.332 20.7574 2.26 21.3094 1.524C21.8614 0.78 22.6614 0.408 23.7094 0.408C24.7574 0.408 25.5574 0.78 26.1094 1.524C26.6614 2.26 26.9374 3.328 26.9374 4.728C26.9374 6.136 26.6614 7.224 26.1094 7.992C25.5574 8.752 24.7574 9.132 23.7094 9.132ZM23.7094 7.38C24.0934 7.38 24.3774 7.172 24.5614 6.756C24.7534 6.332 24.8494 5.656 24.8494 4.728C24.8494 3.808 24.7534 3.152 24.5614 2.76C24.3774 2.36 24.0934 2.16 23.7094 2.16C23.3254 2.16 23.0374 2.36 22.8454 2.76C22.6614 3.152 22.5694 3.808 22.5694 4.728C22.5694 5.656 22.6614 6.332 22.8454 6.756C23.0374 7.172 23.3254 7.38 23.7094 7.38ZM30.1607 9.132C29.8327 9.132 29.4967 9.092 29.1527 9.012C28.8167 8.932 28.5007 8.812 28.2047 8.652C28.0127 8.556 27.8767 8.428 27.7967 8.268C27.7247 8.1 27.7007 7.928 27.7247 7.752C27.7487 7.568 27.8127 7.404 27.9167 7.26C28.0207 7.116 28.1567 7.02 28.3247 6.972C28.4927 6.916 28.6887 6.936 28.9127 7.032C29.1527 7.144 29.3767 7.22 29.5847 7.26C29.7927 7.3 29.9927 7.32 30.1847 7.32C31.3847 7.32 31.9847 6.576 31.9847 5.088V5.004C31.8167 5.348 31.5647 5.616 31.2287 5.808C30.9007 6 30.5247 6.096 30.1007 6.096C29.6367 6.096 29.2167 5.98 28.8407 5.748C28.4727 5.508 28.1807 5.18 27.9647 4.764C27.7487 4.348 27.6407 3.876 27.6407 3.348C27.6407 2.772 27.7647 2.264 28.0127 1.824C28.2607 1.384 28.6047 1.04 29.0447 0.792C29.4847 0.536 29.9927 0.408 30.5687 0.408C31.6807 0.408 32.5367 0.78 33.1367 1.524C33.7447 2.268 34.0487 3.324 34.0487 4.692C34.0487 5.62 33.8927 6.416 33.5807 7.08C33.2767 7.744 32.8327 8.252 32.2487 8.604C31.6647 8.956 30.9687 9.132 30.1607 9.132ZM30.6887 4.416C31.0007 4.416 31.2487 4.312 31.4327 4.104C31.6247 3.888 31.7207 3.604 31.7207 3.252C31.7207 2.9 31.6247 2.62 31.4327 2.412C31.2487 2.196 31.0007 2.088 30.6887 2.088C30.3767 2.088 30.1247 2.196 29.9327 2.412C29.7487 2.62 29.6567 2.9 29.6567 3.252C29.6567 3.604 29.7487 3.888 29.9327 4.104C30.1247 4.312 30.3767 4.416 30.6887 4.416ZM35.988 6.612C35.748 6.612 35.548 6.532 35.388 6.372C35.228 6.212 35.148 6.012 35.148 5.772C35.148 5.532 35.228 5.336 35.388 5.184C35.548 5.024 35.748 4.944 35.988 4.944H38.364C38.604 4.944 38.804 5.024 38.964 5.184C39.124 5.336 39.204 5.532 39.204 5.772C39.204 6.012 39.124 6.212 38.964 6.372C38.804 6.532 38.604 6.612 38.364 6.612H35.988ZM41.5718 9C41.2198 9 40.9638 8.92 40.8038 8.76C40.6518 8.592 40.5758 8.348 40.5758 8.028C40.5758 7.804 40.6238 7.604 40.7198 7.428C40.8158 7.252 40.9478 7.08 41.1158 6.912L43.2158 4.716C43.5278 4.388 43.7478 4.104 43.8758 3.864C44.0118 3.616 44.0798 3.372 44.0798 3.132C44.0798 2.524 43.6918 2.22 42.9158 2.22C42.7238 2.22 42.5158 2.248 42.2918 2.304C42.0758 2.352 41.8478 2.44 41.6077 2.568C41.3918 2.672 41.1958 2.704 41.0198 2.664C40.8438 2.616 40.6998 2.524 40.5878 2.388C40.4758 2.252 40.4038 2.096 40.3718 1.92C40.3478 1.744 40.3758 1.572 40.4558 1.404C40.5358 1.228 40.6798 1.084 40.8878 0.972C41.2558 0.78 41.6358 0.64 42.0278 0.551999C42.4278 0.456 42.8278 0.408 43.2278 0.408C44.2038 0.408 44.9478 0.62 45.4598 1.044C45.9798 1.468 46.2398 2.08 46.2398 2.88C46.2398 3.392 46.1238 3.88 45.8918 4.344C45.6598 4.808 45.2718 5.308 44.7278 5.844L43.3598 7.212H45.7478C46.3558 7.212 46.6598 7.508 46.6598 8.1C46.6598 8.7 46.3558 9 45.7478 9H41.5718ZM50.6391 9.132C49.5911 9.132 48.7911 8.752 48.2391 7.992C47.6871 7.224 47.4111 6.14 47.4111 4.74C47.4111 3.332 47.6871 2.26 48.2391 1.524C48.7911 0.78 49.5911 0.408 50.6391 0.408C51.6871 0.408 52.4871 0.78 53.0391 1.524C53.5911 2.26 53.8671 3.328 53.8671 4.728C53.8671 6.136 53.5911 7.224 53.0391 7.992C52.4871 8.752 51.6871 9.132 50.6391 9.132ZM50.6391 7.38C51.0231 7.38 51.3071 7.172 51.4911 6.756C51.6831 6.332 51.7791 5.656 51.7791 4.728C51.7791 3.808 51.6831 3.152 51.4911 2.76C51.3071 2.36 51.0231 2.16 50.6391 2.16C50.2551 2.16 49.9671 2.36 49.7751 2.76C49.5911 3.152 49.4991 3.808 49.4991 4.728C49.4991 5.656 49.5911 6.332 49.7751 6.756C49.9671 7.172 50.2551 7.38 50.6391 7.38ZM55.9624 9C55.6104 9 55.3544 8.92 55.1944 8.76C55.0424 8.592 54.9664 8.348 54.9664 8.028C54.9664 7.804 55.0144 7.604 55.1104 7.428C55.2064 7.252 55.3384 7.08 55.5064 6.912L57.6064 4.716C57.9184 4.388 58.1384 4.104 58.2664 3.864C58.4024 3.616 58.4704 3.372 58.4704 3.132C58.4704 2.524 58.0824 2.22 57.3064 2.22C57.1144 2.22 56.9064 2.248 56.6824 2.304C56.4664 2.352 56.2384 2.44 55.9984 2.568C55.7824 2.672 55.5864 2.704 55.4104 2.664C55.2344 2.616 55.0904 2.524 54.9784 2.388C54.8664 2.252 54.7944 2.096 54.7624 1.92C54.7384 1.744 54.7664 1.572 54.8464 1.404C54.9264 1.228 55.0704 1.084 55.2784 0.972C55.6464 0.78 56.0264 0.64 56.4184 0.551999C56.8184 0.456 57.2184 0.408 57.6184 0.408C58.5944 0.408 59.3384 0.62 59.8504 1.044C60.3704 1.468 60.6304 2.08 60.6304 2.88C60.6304 3.392 60.5144 3.88 60.2824 4.344C60.0504 4.808 59.6624 5.308 59.1184 5.844L57.7504 7.212H60.1384C60.7464 7.212 61.0504 7.508 61.0504 8.1C61.0504 8.7 60.7464 9 60.1384 9H55.9624ZM63.3137 9C62.7057 9 62.4017 8.7 62.4017 8.1C62.4017 7.508 62.7057 7.212 63.3137 7.212H64.3937V2.928L63.6617 3.372C63.4537 3.5 63.2577 3.552 63.0737 3.528C62.8897 3.496 62.7337 3.416 62.6057 3.288C62.4777 3.16 62.3937 3.004 62.3537 2.82C62.3137 2.636 62.3297 2.452 62.4017 2.268C62.4737 2.084 62.6177 1.928 62.8337 1.8L64.4897 0.767999C64.8497 0.543999 65.2297 0.431999 65.6297 0.431999C65.9337 0.431999 66.1697 0.512 66.3377 0.672C66.5057 0.824 66.5897 1.048 66.5897 1.344V7.212H67.5497C68.1577 7.212 68.4617 7.508 68.4617 8.1C68.4617 8.7 68.1577 9 67.5497 9H63.3137Z" fill="#211A52"/>
</svg>
