<svg width="43" height="10" viewBox="0 0 43 10" fill="none" xmlns="http://www.w3.org/2000/svg">
<path d="M1.29806 9C0.690063 9 0.386063 8.7 0.386063 8.1C0.386063 7.508 0.690063 7.212 1.29806 7.212H2.37806V2.928L1.64606 3.372C1.43806 3.5 1.24206 3.552 1.05806 3.528C0.874063 3.496 0.718063 3.416 0.590063 3.288C0.462063 3.16 0.378063 3.004 0.338063 2.82C0.298063 2.636 0.314063 2.452 0.386063 2.268C0.458063 2.084 0.602063 1.928 0.818063 1.8L2.47406 0.767999C2.83406 0.543999 3.21406 0.431999 3.61406 0.431999C3.91806 0.431999 4.15406 0.512 4.32206 0.672C4.49006 0.824 4.57406 1.048 4.57406 1.344V7.212H5.53406C6.14206 7.212 6.44606 7.508 6.44606 8.1C6.44606 8.7 6.14206 9 5.53406 9H1.29806ZM9.46538 9.132C9.13738 9.132 8.80138 9.092 8.45738 9.012C8.12138 8.932 7.80538 8.812 7.50938 8.652C7.31738 8.556 7.18138 8.428 7.10138 8.268C7.02938 8.1 7.00538 7.928 7.02938 7.752C7.05338 7.568 7.11738 7.404 7.22138 7.26C7.32538 7.116 7.46138 7.02 7.62938 6.972C7.79738 6.916 7.99338 6.936 8.21738 7.032C8.45738 7.144 8.68138 7.22 8.88938 7.26C9.09738 7.3 9.29738 7.32 9.48938 7.32C10.6894 7.32 11.2894 6.576 11.2894 5.088V5.004C11.1214 5.348 10.8694 5.616 10.5334 5.808C10.2054 6 9.82938 6.096 9.40538 6.096C8.94138 6.096 8.52138 5.98 8.14538 5.748C7.77738 5.508 7.48538 5.18 7.26938 4.764C7.05338 4.348 6.94538 3.876 6.94538 3.348C6.94538 2.772 7.06938 2.264 7.31738 1.824C7.56538 1.384 7.90938 1.04 8.34938 0.792C8.78938 0.536 9.29738 0.408 9.87338 0.408C10.9854 0.408 11.8414 0.78 12.4414 1.524C13.0494 2.268 13.3534 3.324 13.3534 4.692C13.3534 5.62 13.1974 6.416 12.8854 7.08C12.5814 7.744 12.1374 8.252 11.5534 8.604C10.9694 8.956 10.2734 9.132 9.46538 9.132ZM9.99338 4.416C10.3054 4.416 10.5534 4.312 10.7374 4.104C10.9294 3.888 11.0254 3.604 11.0254 3.252C11.0254 2.9 10.9294 2.62 10.7374 2.412C10.5534 2.196 10.3054 2.088 9.99338 2.088C9.68138 2.088 9.42938 2.196 9.23738 2.412C9.05338 2.62 8.96138 2.9 8.96138 3.252C8.96138 3.604 9.05338 3.888 9.23738 4.104C9.42938 4.312 9.68138 4.416 9.99338 4.416ZM17.7407 9.132C16.6287 9.132 15.7687 8.76 15.1607 8.016C14.5607 7.272 14.2607 6.216 14.2607 4.848C14.2607 3.92 14.4127 3.124 14.7167 2.46C15.0287 1.796 15.4767 1.288 16.0607 0.935999C16.6447 0.584 17.3407 0.408 18.1487 0.408C18.4767 0.408 18.8087 0.448 19.1447 0.528C19.4887 0.608 19.8087 0.727999 20.1047 0.887999C20.2967 0.983999 20.4287 1.116 20.5007 1.284C20.5807 1.444 20.6087 1.616 20.5847 1.8C20.5607 1.976 20.4967 2.136 20.3927 2.28C20.2887 2.424 20.1527 2.524 19.9847 2.58C19.8167 2.628 19.6207 2.604 19.3967 2.508C19.1567 2.396 18.9327 2.32 18.7247 2.28C18.5167 2.24 18.3167 2.22 18.1247 2.22C16.9247 2.22 16.3247 2.964 16.3247 4.452V4.536C16.4927 4.192 16.7407 3.924 17.0687 3.732C17.4047 3.54 17.7847 3.444 18.2087 3.444C18.6727 3.444 19.0887 3.564 19.4567 3.804C19.8327 4.036 20.1287 4.36 20.3447 4.776C20.5607 5.192 20.6687 5.664 20.6687 6.192C20.6687 6.768 20.5447 7.276 20.2967 7.716C20.0487 8.156 19.7047 8.504 19.2647 8.76C18.8247 9.008 18.3167 9.132 17.7407 9.132ZM17.6207 7.452C17.9327 7.452 18.1807 7.348 18.3647 7.14C18.5567 6.924 18.6527 6.64 18.6527 6.288C18.6527 5.936 18.5567 5.652 18.3647 5.436C18.1807 5.22 17.9327 5.112 17.6207 5.112C17.3167 5.112 17.0687 5.22 16.8767 5.436C16.6847 5.652 16.5887 5.936 16.5887 6.288C16.5887 6.64 16.6847 6.924 16.8767 7.14C17.0687 7.348 17.3167 7.452 17.6207 7.452ZM24.6 9.132C23.552 9.132 22.752 8.752 22.2 7.992C21.648 7.224 21.372 6.14 21.372 4.74C21.372 3.332 21.648 2.26 22.2 1.524C22.752 0.78 23.552 0.408 24.6 0.408C25.648 0.408 26.448 0.78 27 1.524C27.552 2.26 27.828 3.328 27.828 4.728C27.828 6.136 27.552 7.224 27 7.992C26.448 8.752 25.648 9.132 24.6 9.132ZM24.6 7.38C24.984 7.38 25.268 7.172 25.452 6.756C25.644 6.332 25.74 5.656 25.74 4.728C25.74 3.808 25.644 3.152 25.452 2.76C25.268 2.36 24.984 2.16 24.6 2.16C24.216 2.16 23.928 2.36 23.736 2.76C23.552 3.152 23.46 3.808 23.46 4.728C23.46 5.656 23.552 6.332 23.736 6.756C23.928 7.172 24.216 7.38 24.6 7.38ZM33.0673 9.108C32.7313 9.108 32.4673 9.016 32.2753 8.832C32.0913 8.648 31.9993 8.376 31.9993 8.016V7.584H29.5873C29.2353 7.584 28.9593 7.504 28.7593 7.344C28.5673 7.184 28.4713 6.944 28.4713 6.624C28.4713 6.432 28.5073 6.244 28.5793 6.06C28.6513 5.876 28.7793 5.656 28.9633 5.4L31.8913 1.128C32.0593 0.888 32.2393 0.711999 32.4313 0.599999C32.6233 0.487999 32.8593 0.431999 33.1393 0.431999C33.4433 0.431999 33.6833 0.523999 33.8593 0.707999C34.0353 0.891999 34.1233 1.164 34.1233 1.524V5.916H34.4113C35.0273 5.916 35.3353 6.192 35.3353 6.744C35.3353 7.304 35.0273 7.584 34.4113 7.584H34.1233V8.016C34.1233 8.368 34.0313 8.64 33.8473 8.832C33.6633 9.016 33.4033 9.108 33.0673 9.108ZM31.9993 5.916V3.576L30.4273 5.916H31.9993ZM39.3266 9.132C38.2146 9.132 37.3546 8.76 36.7466 8.016C36.1466 7.272 35.8466 6.216 35.8466 4.848C35.8466 3.92 35.9986 3.124 36.3026 2.46C36.6146 1.796 37.0626 1.288 37.6466 0.935999C38.2306 0.584 38.9266 0.408 39.7346 0.408C40.0626 0.408 40.3946 0.448 40.7306 0.528C41.0746 0.608 41.3946 0.727999 41.6906 0.887999C41.8826 0.983999 42.0146 1.116 42.0866 1.284C42.1666 1.444 42.1946 1.616 42.1706 1.8C42.1466 1.976 42.0826 2.136 41.9786 2.28C41.8746 2.424 41.7386 2.524 41.5706 2.58C41.4026 2.628 41.2066 2.604 40.9826 2.508C40.7426 2.396 40.5186 2.32 40.3106 2.28C40.1026 2.24 39.9026 2.22 39.7106 2.22C38.5106 2.22 37.9106 2.964 37.9106 4.452V4.536C38.0786 4.192 38.3266 3.924 38.6546 3.732C38.9906 3.54 39.3706 3.444 39.7946 3.444C40.2586 3.444 40.6746 3.564 41.0426 3.804C41.4186 4.036 41.7146 4.36 41.9306 4.776C42.1466 5.192 42.2546 5.664 42.2546 6.192C42.2546 6.768 42.1306 7.276 41.8826 7.716C41.6346 8.156 41.2906 8.504 40.8506 8.76C40.4106 9.008 39.9026 9.132 39.3266 9.132ZM39.2066 7.452C39.5186 7.452 39.7666 7.348 39.9506 7.14C40.1426 6.924 40.2386 6.64 40.2386 6.288C40.2386 5.936 40.1426 5.652 39.9506 5.436C39.7666 5.22 39.5186 5.112 39.2066 5.112C38.9026 5.112 38.6546 5.22 38.4626 5.436C38.2706 5.652 38.1746 5.936 38.1746 6.288C38.1746 6.64 38.2706 6.924 38.4626 7.14C38.6546 7.348 38.9026 7.452 39.2066 7.452Z" fill="#211A52"/>
</svg>
