<svg width="58" height="10" viewBox="0 0 58 10" fill="none" xmlns="http://www.w3.org/2000/svg">
<path d="M1.94675 9C1.59475 9 1.33875 8.92 1.17875 8.76C1.02675 8.592 0.95075 8.348 0.95075 8.028C0.95075 7.804 0.99875 7.604 1.09475 7.428C1.19075 7.252 1.32275 7.08 1.49075 6.912L3.59075 4.716C3.90275 4.388 4.12275 4.104 4.25075 3.864C4.38675 3.616 4.45475 3.372 4.45475 3.132C4.45475 2.524 4.06675 2.22 3.29075 2.22C3.09875 2.22 2.89075 2.248 2.66675 2.304C2.45075 2.352 2.22275 2.44 1.98275 2.568C1.76675 2.672 1.57075 2.704 1.39475 2.664C1.21875 2.616 1.07475 2.524 0.96275 2.388C0.85075 2.252 0.77875 2.096 0.74675 1.92C0.72275 1.744 0.75075 1.572 0.83075 1.404C0.91075 1.228 1.05475 1.084 1.26275 0.972C1.63075 0.78 2.01075 0.64 2.40275 0.551999C2.80275 0.456 3.20275 0.408 3.60275 0.408C4.57875 0.408 5.32275 0.62 5.83475 1.044C6.35475 1.468 6.61475 2.08 6.61475 2.88C6.61475 3.392 6.49875 3.88 6.26675 4.344C6.03475 4.808 5.64675 5.308 5.10275 5.844L3.73475 7.212H6.12275C6.73075 7.212 7.03475 7.508 7.03475 8.1C7.03475 8.7 6.73075 9 6.12275 9H1.94675ZM11.0141 9.132C9.96606 9.132 9.16606 8.752 8.61406 7.992C8.06206 7.224 7.78606 6.14 7.78606 4.74C7.78606 3.332 8.06206 2.26 8.61406 1.524C9.16606 0.78 9.96606 0.408 11.0141 0.408C12.0621 0.408 12.8621 0.78 13.4141 1.524C13.9661 2.26 14.2421 3.328 14.2421 4.728C14.2421 6.136 13.9661 7.224 13.4141 7.992C12.8621 8.752 12.0621 9.132 11.0141 9.132ZM11.0141 7.38C11.3981 7.38 11.6821 7.172 11.8661 6.756C12.0581 6.332 12.1541 5.656 12.1541 4.728C12.1541 3.808 12.0581 3.152 11.8661 2.76C11.6821 2.36 11.3981 2.16 11.0141 2.16C10.6301 2.16 10.3421 2.36 10.1501 2.76C9.96606 3.152 9.87406 3.808 9.87406 4.728C9.87406 5.656 9.96606 6.332 10.1501 6.756C10.3421 7.172 10.6301 7.38 11.0141 7.38ZM16.3374 9C15.9854 9 15.7294 8.92 15.5694 8.76C15.4174 8.592 15.3414 8.348 15.3414 8.028C15.3414 7.804 15.3894 7.604 15.4854 7.428C15.5814 7.252 15.7134 7.08 15.8814 6.912L17.9814 4.716C18.2934 4.388 18.5134 4.104 18.6414 3.864C18.7774 3.616 18.8454 3.372 18.8454 3.132C18.8454 2.524 18.4574 2.22 17.6814 2.22C17.4894 2.22 17.2814 2.248 17.0574 2.304C16.8414 2.352 16.6134 2.44 16.3734 2.568C16.1574 2.672 15.9614 2.704 15.7854 2.664C15.6094 2.616 15.4654 2.524 15.3534 2.388C15.2414 2.252 15.1694 2.096 15.1374 1.92C15.1134 1.744 15.1414 1.572 15.2214 1.404C15.3014 1.228 15.4454 1.084 15.6534 0.972C16.0214 0.78 16.4014 0.64 16.7934 0.551999C17.1934 0.456 17.5934 0.408 17.9934 0.408C18.9694 0.408 19.7134 0.62 20.2254 1.044C20.7454 1.468 21.0054 2.08 21.0054 2.88C21.0054 3.392 20.8894 3.88 20.6574 4.344C20.4254 4.808 20.0374 5.308 19.4934 5.844L18.1254 7.212H20.5134C21.1214 7.212 21.4254 7.508 21.4254 8.1C21.4254 8.7 21.1214 9 20.5134 9H16.3374ZM23.6887 9C23.0807 9 22.7767 8.7 22.7767 8.1C22.7767 7.508 23.0807 7.212 23.6887 7.212H24.7687V2.928L24.0367 3.372C23.8287 3.5 23.6327 3.552 23.4487 3.528C23.2647 3.496 23.1087 3.416 22.9807 3.288C22.8527 3.16 22.7687 3.004 22.7287 2.82C22.6887 2.636 22.7047 2.452 22.7767 2.268C22.8487 2.084 22.9927 1.928 23.2087 1.8L24.8647 0.767999C25.2247 0.543999 25.6047 0.431999 26.0047 0.431999C26.3087 0.431999 26.5447 0.512 26.7127 0.672C26.8807 0.824 26.9647 1.048 26.9647 1.344V7.212H27.9247C28.5327 7.212 28.8367 7.508 28.8367 8.1C28.8367 8.7 28.5327 9 27.9247 9H23.6887ZM30.728 9C30.376 9 30.12 8.92 29.96 8.76C29.808 8.592 29.732 8.348 29.732 8.028C29.732 7.804 29.78 7.604 29.876 7.428C29.972 7.252 30.104 7.08 30.272 6.912L32.372 4.716C32.684 4.388 32.904 4.104 33.032 3.864C33.168 3.616 33.236 3.372 33.236 3.132C33.236 2.524 32.848 2.22 32.072 2.22C31.88 2.22 31.672 2.248 31.448 2.304C31.232 2.352 31.004 2.44 30.764 2.568C30.548 2.672 30.352 2.704 30.176 2.664C30 2.616 29.856 2.524 29.744 2.388C29.632 2.252 29.56 2.096 29.528 1.92C29.504 1.744 29.532 1.572 29.612 1.404C29.692 1.228 29.836 1.084 30.044 0.972C30.412 0.78 30.792 0.64 31.184 0.551999C31.584 0.456 31.984 0.408 32.384 0.408C33.36 0.408 34.104 0.62 34.616 1.044C35.136 1.468 35.396 2.08 35.396 2.88C35.396 3.392 35.28 3.88 35.048 4.344C34.816 4.808 34.428 5.308 33.884 5.844L32.516 7.212H34.904C35.512 7.212 35.816 7.508 35.816 8.1C35.816 8.7 35.512 9 34.904 9H30.728ZM40.1313 9.132C39.0193 9.132 38.1593 8.76 37.5513 8.016C36.9513 7.272 36.6513 6.216 36.6513 4.848C36.6513 3.92 36.8033 3.124 37.1073 2.46C37.4193 1.796 37.8673 1.288 38.4513 0.935999C39.0353 0.584 39.7313 0.408 40.5393 0.408C40.8673 0.408 41.1993 0.448 41.5353 0.528C41.8793 0.608 42.1993 0.727999 42.4953 0.887999C42.6873 0.983999 42.8193 1.116 42.8913 1.284C42.9713 1.444 42.9993 1.616 42.9753 1.8C42.9513 1.976 42.8873 2.136 42.7833 2.28C42.6793 2.424 42.5433 2.524 42.3753 2.58C42.2073 2.628 42.0113 2.604 41.7873 2.508C41.5473 2.396 41.3233 2.32 41.1153 2.28C40.9073 2.24 40.7073 2.22 40.5153 2.22C39.3153 2.22 38.7153 2.964 38.7153 4.452V4.536C38.8833 4.192 39.1313 3.924 39.4593 3.732C39.7953 3.54 40.1753 3.444 40.5993 3.444C41.0633 3.444 41.4793 3.564 41.8473 3.804C42.2233 4.036 42.5193 4.36 42.7353 4.776C42.9513 5.192 43.0593 5.664 43.0593 6.192C43.0593 6.768 42.9353 7.276 42.6873 7.716C42.4393 8.156 42.0953 8.504 41.6553 8.76C41.2153 9.008 40.7073 9.132 40.1313 9.132ZM40.0113 7.452C40.3233 7.452 40.5713 7.348 40.7553 7.14C40.9473 6.924 41.0433 6.64 41.0433 6.288C41.0433 5.936 40.9473 5.652 40.7553 5.436C40.5713 5.22 40.3233 5.112 40.0113 5.112C39.7073 5.112 39.4593 5.22 39.2673 5.436C39.0753 5.652 38.9793 5.936 38.9793 6.288C38.9793 6.64 39.0753 6.924 39.2673 7.14C39.4593 7.348 39.7073 7.452 40.0113 7.452ZM46.9906 9.132C45.9666 9.132 45.1586 8.916 44.5666 8.484C43.9826 8.052 43.6906 7.452 43.6906 6.684C43.6906 6.188 43.8106 5.764 44.0506 5.412C44.2986 5.052 44.6226 4.792 45.0226 4.632C44.6866 4.456 44.4186 4.2 44.2186 3.864C44.0186 3.528 43.9186 3.148 43.9186 2.724C43.9186 2.004 44.1946 1.44 44.7466 1.032C45.2986 0.616 46.0466 0.408 46.9906 0.408C47.9346 0.408 48.6826 0.616 49.2346 1.032C49.7866 1.44 50.0626 2.004 50.0626 2.724C50.0626 3.164 49.9626 3.552 49.7626 3.888C49.5706 4.224 49.3106 4.476 48.9826 4.644C49.3746 4.804 49.6906 5.064 49.9306 5.424C50.1706 5.776 50.2906 6.196 50.2906 6.684C50.2906 7.452 49.9946 8.052 49.4026 8.484C48.8186 8.916 48.0146 9.132 46.9906 9.132ZM46.9906 3.888C47.3266 3.888 47.5906 3.808 47.7826 3.648C47.9746 3.48 48.0706 3.256 48.0706 2.976C48.0706 2.696 47.9746 2.476 47.7826 2.316C47.5906 2.148 47.3266 2.064 46.9906 2.064C46.6546 2.064 46.3906 2.148 46.1986 2.316C46.0146 2.476 45.9226 2.696 45.9226 2.976C45.9226 3.256 46.0146 3.48 46.1986 3.648C46.3906 3.808 46.6546 3.888 46.9906 3.888ZM46.9906 7.476C47.8626 7.476 48.2986 7.156 48.2986 6.516C48.2986 5.876 47.8626 5.556 46.9906 5.556C46.5666 5.556 46.2426 5.64 46.0186 5.808C45.7946 5.968 45.6826 6.204 45.6826 6.516C45.6826 6.828 45.7946 7.068 46.0186 7.236C46.2426 7.396 46.5666 7.476 46.9906 7.476ZM53.4419 9.132C53.1139 9.132 52.7779 9.092 52.4339 9.012C52.0979 8.932 51.7819 8.812 51.4859 8.652C51.2939 8.556 51.1579 8.428 51.0779 8.268C51.0059 8.1 50.9819 7.928 51.0059 7.752C51.0299 7.568 51.0939 7.404 51.1979 7.26C51.3019 7.116 51.4379 7.02 51.6059 6.972C51.7739 6.916 51.9699 6.936 52.1939 7.032C52.4339 7.144 52.6579 7.22 52.8659 7.26C53.0739 7.3 53.2739 7.32 53.4659 7.32C54.6659 7.32 55.2659 6.576 55.2659 5.088V5.004C55.0979 5.348 54.8459 5.616 54.5099 5.808C54.1819 6 53.8059 6.096 53.3819 6.096C52.9179 6.096 52.4979 5.98 52.1219 5.748C51.7539 5.508 51.4619 5.18 51.2459 4.764C51.0299 4.348 50.9219 3.876 50.9219 3.348C50.9219 2.772 51.0459 2.264 51.2939 1.824C51.5419 1.384 51.8859 1.04 52.3259 0.792C52.7659 0.536 53.2739 0.408 53.8499 0.408C54.9619 0.408 55.8179 0.78 56.4179 1.524C57.0259 2.268 57.3299 3.324 57.3299 4.692C57.3299 5.62 57.1739 6.416 56.8619 7.08C56.5579 7.744 56.1139 8.252 55.5299 8.604C54.9459 8.956 54.2499 9.132 53.4419 9.132ZM53.9699 4.416C54.2819 4.416 54.5299 4.312 54.7139 4.104C54.9059 3.888 55.0019 3.604 55.0019 3.252C55.0019 2.9 54.9059 2.62 54.7139 2.412C54.5299 2.196 54.2819 2.088 53.9699 2.088C53.6579 2.088 53.4059 2.196 53.2139 2.412C53.0299 2.62 52.9379 2.9 52.9379 3.252C52.9379 3.604 53.0299 3.888 53.2139 4.104C53.4059 4.312 53.6579 4.416 53.9699 4.416Z" fill="#211A52"/>
</svg>
