<svg width="118" height="10" viewBox="0 0 118 10" fill="none" xmlns="http://www.w3.org/2000/svg">
<path d="M1.84714 9C1.49514 9 1.23914 8.92 1.07914 8.76C0.927141 8.592 0.851141 8.348 0.851141 8.028C0.851141 7.804 0.899141 7.604 0.995141 7.428C1.09114 7.252 1.22314 7.08 1.39114 6.912L3.49114 4.716C3.80314 4.388 4.02314 4.104 4.15114 3.864C4.28714 3.616 4.35514 3.372 4.35514 3.132C4.35514 2.524 3.96714 2.22 3.19114 2.22C2.99914 2.22 2.79114 2.248 2.56714 2.304C2.35114 2.352 2.12314 2.44 1.88314 2.568C1.66714 2.672 1.47114 2.704 1.29514 2.664C1.11914 2.616 0.975141 2.524 0.863141 2.388C0.751141 2.252 0.679141 2.096 0.647141 1.92C0.623141 1.744 0.651141 1.572 0.731141 1.404C0.811141 1.228 0.955141 1.084 1.16314 0.972C1.53114 0.78 1.91114 0.64 2.30314 0.551999C2.70314 0.456 3.10314 0.408 3.50314 0.408C4.47914 0.408 5.22314 0.62 5.73514 1.044C6.25514 1.468 6.51514 2.08 6.51514 2.88C6.51514 3.392 6.39914 3.88 6.16714 4.344C5.93514 4.808 5.54714 5.308 5.00314 5.844L3.63514 7.212H6.02314C6.63114 7.212 6.93514 7.508 6.93514 8.1C6.93514 8.7 6.63114 9 6.02314 9H1.84714ZM12.1865 9.108C11.8505 9.108 11.5865 9.016 11.3945 8.832C11.2105 8.648 11.1185 8.376 11.1185 8.016V7.584H8.70645C8.35445 7.584 8.07845 7.504 7.87845 7.344C7.68645 7.184 7.59045 6.944 7.59045 6.624C7.59045 6.432 7.62645 6.244 7.69845 6.06C7.77045 5.876 7.89845 5.656 8.08245 5.4L11.0105 1.128C11.1785 0.888 11.3585 0.711999 11.5505 0.599999C11.7425 0.487999 11.9785 0.431999 12.2585 0.431999C12.5625 0.431999 12.8025 0.523999 12.9785 0.707999C13.1545 0.891999 13.2425 1.164 13.2425 1.524V5.916H13.5305C14.1465 5.916 14.4545 6.192 14.4545 6.744C14.4545 7.304 14.1465 7.584 13.5305 7.584H13.2425V8.016C13.2425 8.368 13.1505 8.64 12.9665 8.832C12.7825 9.016 12.5225 9.108 12.1865 9.108ZM11.1185 5.916V3.576L9.54645 5.916H11.1185ZM16.1418 9.072C15.7818 9.072 15.4938 8.964 15.2778 8.748C15.0698 8.524 14.9658 8.24 14.9658 7.896C14.9658 7.56 15.0698 7.284 15.2778 7.068C15.4938 6.852 15.7818 6.744 16.1418 6.744C16.5098 6.744 16.7978 6.852 17.0058 7.068C17.2138 7.284 17.3178 7.56 17.3178 7.896C17.3178 8.24 17.2138 8.524 17.0058 8.748C16.7978 8.964 16.5098 9.072 16.1418 9.072ZM23.4089 9.108C23.0649 9.108 22.8009 9.016 22.6169 8.832C22.4329 8.648 22.3409 8.38 22.3409 8.028V4.668H22.0289C21.4929 4.668 21.2249 4.404 21.2249 3.876C21.2249 3.356 21.4929 3.096 22.0289 3.096H22.3409C22.3809 2.288 22.6209 1.68 23.0609 1.272C23.5009 0.863999 24.1449 0.615999 24.9929 0.528L25.3409 0.491999C25.5969 0.459999 25.8009 0.491999 25.9529 0.588C26.1049 0.675999 26.2089 0.796 26.2649 0.948C26.3209 1.1 26.3329 1.256 26.3009 1.416C26.2769 1.568 26.2169 1.7 26.1209 1.812C26.0249 1.924 25.8969 1.988 25.7369 2.004L25.5689 2.016C25.1609 2.04 24.8769 2.128 24.7169 2.28C24.5569 2.424 24.4769 2.636 24.4769 2.916V3.096H25.1609C25.6969 3.096 25.9649 3.356 25.9649 3.876C25.9649 4.404 25.6969 4.668 25.1609 4.668H24.4769V8.028C24.4769 8.748 24.1209 9.108 23.4089 9.108ZM29.7521 9.132C29.0321 9.132 28.4081 9.008 27.8801 8.76C27.3601 8.504 26.9601 8.144 26.6801 7.68C26.4001 7.216 26.2601 6.668 26.2601 6.036C26.2601 5.436 26.3921 4.904 26.6561 4.44C26.9281 3.976 27.2961 3.616 27.7601 3.36C28.2321 3.096 28.7681 2.964 29.3681 2.964C29.9601 2.964 30.4721 3.088 30.9041 3.336C31.3441 3.584 31.6801 3.94 31.9121 4.404C32.1521 4.86 32.2721 5.396 32.2721 6.012C32.2721 6.324 32.0881 6.48 31.7201 6.48H28.3001C28.3721 6.864 28.5321 7.14 28.7801 7.308C29.0281 7.476 29.3721 7.56 29.8121 7.56C29.9801 7.56 30.1801 7.54 30.4121 7.5C30.6441 7.46 30.8641 7.396 31.0721 7.308C31.3281 7.212 31.5441 7.212 31.7201 7.308C31.8961 7.396 32.0121 7.536 32.0681 7.728C32.1321 7.912 32.1241 8.104 32.0441 8.304C31.9721 8.496 31.8241 8.644 31.6001 8.748C31.3201 8.884 31.0201 8.98 30.7001 9.036C30.3881 9.1 30.0721 9.132 29.7521 9.132ZM29.4641 4.344C29.1441 4.344 28.8801 4.44 28.6721 4.632C28.4721 4.824 28.3441 5.104 28.2881 5.472H30.5201C30.4961 5.096 30.3921 4.816 30.2081 4.632C30.0321 4.44 29.7841 4.344 29.4641 4.344ZM37.0804 9.132C36.6884 9.132 36.3284 9.048 36.0004 8.88C35.6804 8.712 35.4404 8.488 35.2804 8.208C35.2164 8.808 34.8724 9.108 34.2484 9.108C33.5444 9.108 33.1924 8.748 33.1924 8.028V1.512C33.1924 0.792 33.5444 0.431999 34.2484 0.431999C34.5924 0.431999 34.8564 0.523999 35.0404 0.707999C35.2324 0.891999 35.3284 1.16 35.3284 1.512V3.804C35.4964 3.548 35.7364 3.344 36.0484 3.192C36.3684 3.04 36.7124 2.964 37.0804 2.964C37.5924 2.964 38.0404 3.088 38.4244 3.336C38.8164 3.584 39.1204 3.94 39.3364 4.404C39.5524 4.86 39.6604 5.408 39.6604 6.048C39.6604 6.68 39.5484 7.228 39.3244 7.692C39.1084 8.156 38.8044 8.512 38.4124 8.76C38.0284 9.008 37.5844 9.132 37.0804 9.132ZM36.4084 7.56C36.7284 7.56 36.9924 7.44 37.2004 7.2C37.4084 6.96 37.5124 6.576 37.5124 6.048C37.5124 5.512 37.4084 5.128 37.2004 4.896C36.9924 4.656 36.7284 4.536 36.4084 4.536C36.0804 4.536 35.8124 4.656 35.6044 4.896C35.3964 5.128 35.2924 5.512 35.2924 6.048C35.2924 6.576 35.3964 6.96 35.6044 7.2C35.8124 7.44 36.0804 7.56 36.4084 7.56ZM41.7258 9.108C40.9978 9.108 40.6338 8.748 40.6338 8.028V4.056C40.6338 3.344 40.9818 2.988 41.6778 2.988C42.0058 2.988 42.2578 3.08 42.4338 3.264C42.6178 3.448 42.7098 3.712 42.7098 4.056V4.092C42.8458 3.748 43.0658 3.476 43.3698 3.276C43.6738 3.076 44.0338 2.972 44.4498 2.964C44.6818 2.956 44.8538 3.016 44.9658 3.144C45.0858 3.264 45.1498 3.492 45.1578 3.828C45.1578 4.116 45.0978 4.344 44.9778 4.512C44.8578 4.68 44.6298 4.78 44.2938 4.812L44.0178 4.836C43.5938 4.876 43.2858 4.996 43.0938 5.196C42.9018 5.388 42.8058 5.676 42.8058 6.06V8.028C42.8058 8.748 42.4458 9.108 41.7258 9.108ZM48.0449 9.132C47.2769 9.132 46.7089 8.924 46.3409 8.508C45.9809 8.084 45.8009 7.44 45.8009 6.576V4.056C45.8009 3.344 46.1569 2.988 46.8689 2.988C47.2129 2.988 47.4769 3.08 47.6609 3.264C47.8449 3.448 47.9369 3.712 47.9369 4.056V6.636C47.9369 7.212 48.1849 7.5 48.6809 7.5C48.9689 7.5 49.2049 7.396 49.3889 7.188C49.5729 6.98 49.6649 6.704 49.6649 6.36V4.056C49.6649 3.344 50.0209 2.988 50.7329 2.988C51.0769 2.988 51.3409 3.08 51.5249 3.264C51.7089 3.448 51.8009 3.712 51.8009 4.056V8.028C51.8009 8.748 51.4569 9.108 50.7689 9.108C50.1529 9.108 49.8049 8.82 49.7249 8.244C49.3409 8.836 48.7809 9.132 48.0449 9.132ZM55.0959 9.132C54.6399 9.132 54.2359 9.048 53.8839 8.88C53.5399 8.712 53.2679 8.484 53.0679 8.196C52.8759 7.9 52.7799 7.564 52.7799 7.188C52.7799 6.764 52.8919 6.428 53.1159 6.18C53.3399 5.924 53.6999 5.744 54.1959 5.64C54.6919 5.528 55.3519 5.472 56.1759 5.472H56.6319V5.304C56.6319 5.016 56.5559 4.812 56.4039 4.692C56.2599 4.572 56.0079 4.512 55.6479 4.512C55.4479 4.512 55.2279 4.536 54.9879 4.584C54.7559 4.624 54.4919 4.7 54.1959 4.812C53.9319 4.908 53.7119 4.904 53.5359 4.8C53.3599 4.696 53.2439 4.548 53.1879 4.356C53.1399 4.156 53.1599 3.96 53.2479 3.768C53.3439 3.568 53.5239 3.42 53.7879 3.324C54.1719 3.188 54.5239 3.096 54.8439 3.048C55.1719 2.992 55.4719 2.964 55.7439 2.964C56.7279 2.964 57.4559 3.176 57.9279 3.6C58.4079 4.024 58.6479 4.692 58.6479 5.604V8.028C58.6479 8.748 58.3199 9.108 57.6639 9.108C57.0399 9.108 56.7079 8.788 56.6679 8.148C56.5559 8.452 56.3639 8.692 56.0919 8.868C55.8199 9.044 55.4879 9.132 55.0959 9.132ZM55.5759 7.74C55.8719 7.74 56.1199 7.644 56.3199 7.452C56.5279 7.26 56.6319 7.008 56.6319 6.696V6.48H56.1759C55.7039 6.48 55.3559 6.532 55.1319 6.636C54.9159 6.732 54.8079 6.888 54.8079 7.104C54.8079 7.288 54.8719 7.44 54.9999 7.56C55.1359 7.68 55.3279 7.74 55.5759 7.74ZM60.9562 9.108C60.2282 9.108 59.8642 8.748 59.8642 8.028V4.056C59.8642 3.344 60.2122 2.988 60.9082 2.988C61.2362 2.988 61.4882 3.08 61.6642 3.264C61.8482 3.448 61.9402 3.712 61.9402 4.056V4.092C62.0762 3.748 62.2962 3.476 62.6002 3.276C62.9042 3.076 63.2642 2.972 63.6802 2.964C63.9122 2.956 64.0842 3.016 64.1962 3.144C64.3162 3.264 64.3802 3.492 64.3882 3.828C64.3882 4.116 64.3282 4.344 64.2082 4.512C64.0882 4.68 63.8602 4.78 63.5242 4.812L63.2482 4.836C62.8242 4.876 62.5162 4.996 62.3242 5.196C62.1322 5.388 62.0362 5.676 62.0362 6.06V8.028C62.0362 8.748 61.6762 9.108 60.9562 9.108ZM69.557 9.108C69.213 9.108 68.949 9.016 68.765 8.832C68.589 8.648 68.501 8.38 68.501 8.028V1.512C68.501 0.792 68.853 0.431999 69.557 0.431999C69.901 0.431999 70.165 0.523999 70.349 0.707999C70.541 0.891999 70.637 1.16 70.637 1.512V5.472H70.661L72.125 3.696C72.325 3.448 72.509 3.268 72.677 3.156C72.853 3.044 73.089 2.988 73.385 2.988C73.681 2.988 73.909 3.06 74.069 3.204C74.229 3.348 74.309 3.528 74.309 3.744C74.317 3.96 74.233 4.176 74.057 4.392L72.785 5.904L74.249 7.752C74.417 7.984 74.485 8.204 74.453 8.412C74.429 8.612 74.329 8.78 74.153 8.916C73.985 9.044 73.769 9.108 73.505 9.108C73.177 9.108 72.917 9.052 72.725 8.94C72.541 8.82 72.353 8.636 72.161 8.388L70.661 6.54H70.637V8.028C70.637 8.748 70.277 9.108 69.557 9.108ZM77.7059 9.132C76.9299 9.132 76.3619 8.928 76.0019 8.52C75.6419 8.104 75.4619 7.48 75.4619 6.648V1.512C75.4619 0.792 75.8139 0.431999 76.5179 0.431999C76.8619 0.431999 77.1259 0.523999 77.3099 0.707999C77.5019 0.891999 77.5979 1.16 77.5979 1.512V6.576C77.5979 6.872 77.6539 7.088 77.7659 7.224C77.8859 7.36 78.0379 7.428 78.2219 7.428C78.2779 7.428 78.3339 7.424 78.3899 7.416C78.4539 7.4 78.5219 7.388 78.5939 7.38C78.7379 7.38 78.8419 7.432 78.9059 7.536C78.9699 7.64 79.0019 7.852 79.0019 8.172C79.0019 8.452 78.9459 8.664 78.8339 8.808C78.7219 8.944 78.5499 9.032 78.3179 9.072C78.2539 9.088 78.1619 9.1 78.0419 9.108C77.9219 9.124 77.8099 9.132 77.7059 9.132ZM80.759 9.072C80.399 9.072 80.111 8.964 79.895 8.748C79.687 8.524 79.583 8.24 79.583 7.896C79.583 7.56 79.687 7.284 79.895 7.068C80.111 6.852 80.399 6.744 80.759 6.744C81.127 6.744 81.415 6.852 81.623 7.068C81.831 7.284 81.935 7.56 81.935 7.896C81.935 8.24 81.831 8.524 81.623 8.748C81.415 8.964 81.127 9.072 80.759 9.072ZM87.7141 9C87.1061 9 86.8021 8.7 86.8021 8.1C86.8021 7.508 87.1061 7.212 87.7141 7.212H88.7941V2.928L88.0621 3.372C87.8541 3.5 87.6581 3.552 87.4741 3.528C87.2901 3.496 87.1341 3.416 87.0061 3.288C86.8781 3.16 86.7941 3.004 86.7541 2.82C86.7141 2.636 86.7301 2.452 86.8021 2.268C86.8741 2.084 87.0181 1.928 87.2341 1.8L88.8901 0.767999C89.2501 0.543999 89.6301 0.431999 90.0301 0.431999C90.3341 0.431999 90.5701 0.512 90.7381 0.672C90.9061 0.824 90.9901 1.048 90.9901 1.344V7.212H91.9501C92.5581 7.212 92.8621 7.508 92.8621 8.1C92.8621 8.7 92.5581 9 91.9501 9H87.7141ZM94.7534 9C94.4014 9 94.1454 8.92 93.9854 8.76C93.8334 8.592 93.7574 8.348 93.7574 8.028C93.7574 7.804 93.8054 7.604 93.9014 7.428C93.9974 7.252 94.1294 7.08 94.2974 6.912L96.3974 4.716C96.7094 4.388 96.9294 4.104 97.0574 3.864C97.1934 3.616 97.2614 3.372 97.2614 3.132C97.2614 2.524 96.8734 2.22 96.0974 2.22C95.9054 2.22 95.6974 2.248 95.4734 2.304C95.2574 2.352 95.0294 2.44 94.7894 2.568C94.5734 2.672 94.3774 2.704 94.2014 2.664C94.0254 2.616 93.8814 2.524 93.7694 2.388C93.6574 2.252 93.5854 2.096 93.5534 1.92C93.5294 1.744 93.5574 1.572 93.6374 1.404C93.7174 1.228 93.8614 1.084 94.0694 0.972C94.4374 0.78 94.8174 0.64 95.2094 0.551999C95.6094 0.456 96.0094 0.408 96.4094 0.408C97.3854 0.408 98.1294 0.62 98.6414 1.044C99.1614 1.468 99.4214 2.08 99.4214 2.88C99.4214 3.392 99.3054 3.88 99.0734 4.344C98.8414 4.808 98.4534 5.308 97.9094 5.844L96.5414 7.212H98.9294C99.5374 7.212 99.8414 7.508 99.8414 8.1C99.8414 8.7 99.5374 9 98.9294 9H94.7534ZM101.853 5.352C101.493 5.352 101.205 5.244 100.989 5.028C100.781 4.804 100.677 4.524 100.677 4.188C100.677 3.836 100.781 3.556 100.989 3.348C101.205 3.132 101.493 3.024 101.853 3.024C102.221 3.024 102.509 3.132 102.717 3.348C102.925 3.556 103.029 3.836 103.029 4.188C103.029 4.524 102.925 4.804 102.717 5.028C102.509 5.244 102.221 5.352 101.853 5.352ZM101.853 9.072C101.493 9.072 101.205 8.964 100.989 8.748C100.781 8.524 100.677 8.24 100.677 7.896C100.677 7.56 100.781 7.284 100.989 7.068C101.205 6.852 101.493 6.744 101.853 6.744C102.221 6.744 102.509 6.852 102.717 7.068C102.925 7.284 103.029 7.56 103.029 7.896C103.029 8.24 102.925 8.524 102.717 8.748C102.509 8.964 102.221 9.072 101.853 9.072ZM105.218 9C104.866 9 104.61 8.92 104.45 8.76C104.298 8.592 104.222 8.348 104.222 8.028C104.222 7.804 104.27 7.604 104.366 7.428C104.462 7.252 104.594 7.08 104.762 6.912L106.862 4.716C107.174 4.388 107.394 4.104 107.522 3.864C107.658 3.616 107.726 3.372 107.726 3.132C107.726 2.524 107.338 2.22 106.562 2.22C106.37 2.22 106.162 2.248 105.938 2.304C105.722 2.352 105.494 2.44 105.254 2.568C105.038 2.672 104.842 2.704 104.666 2.664C104.49 2.616 104.346 2.524 104.234 2.388C104.122 2.252 104.05 2.096 104.018 1.92C103.994 1.744 104.022 1.572 104.102 1.404C104.182 1.228 104.326 1.084 104.534 0.972C104.902 0.78 105.282 0.64 105.674 0.551999C106.074 0.456 106.474 0.408 106.874 0.408C107.85 0.408 108.594 0.62 109.106 1.044C109.626 1.468 109.886 2.08 109.886 2.88C109.886 3.392 109.77 3.88 109.538 4.344C109.306 4.808 108.918 5.308 108.374 5.844L107.006 7.212H109.394C110.002 7.212 110.306 7.508 110.306 8.1C110.306 8.7 110.002 9 109.394 9H105.218ZM113.542 9.132C113.214 9.132 112.878 9.092 112.534 9.012C112.198 8.932 111.882 8.812 111.586 8.652C111.394 8.556 111.258 8.428 111.178 8.268C111.106 8.1 111.082 7.928 111.106 7.752C111.13 7.568 111.194 7.404 111.298 7.26C111.402 7.116 111.538 7.02 111.706 6.972C111.874 6.916 112.07 6.936 112.294 7.032C112.534 7.144 112.758 7.22 112.966 7.26C113.174 7.3 113.374 7.32 113.566 7.32C114.766 7.32 115.366 6.576 115.366 5.088V5.004C115.198 5.348 114.946 5.616 114.61 5.808C114.282 6 113.906 6.096 113.482 6.096C113.018 6.096 112.598 5.98 112.222 5.748C111.854 5.508 111.562 5.18 111.346 4.764C111.13 4.348 111.022 3.876 111.022 3.348C111.022 2.772 111.146 2.264 111.394 1.824C111.642 1.384 111.986 1.04 112.426 0.792C112.866 0.536 113.374 0.408 113.95 0.408C115.062 0.408 115.918 0.78 116.518 1.524C117.126 2.268 117.43 3.324 117.43 4.692C117.43 5.62 117.274 6.416 116.962 7.08C116.658 7.744 116.214 8.252 115.63 8.604C115.046 8.956 114.35 9.132 113.542 9.132ZM114.07 4.416C114.382 4.416 114.63 4.312 114.814 4.104C115.006 3.888 115.102 3.604 115.102 3.252C115.102 2.9 115.006 2.62 114.814 2.412C114.63 2.196 114.382 2.088 114.07 2.088C113.758 2.088 113.506 2.196 113.314 2.412C113.13 2.62 113.038 2.9 113.038 3.252C113.038 3.604 113.13 3.888 113.314 4.104C113.506 4.312 113.758 4.416 114.07 4.416Z" fill="#211A52"/>
</svg>
