<svg width="53" height="62" viewBox="0 0 53 62" fill="none" xmlns="http://www.w3.org/2000/svg">
<path d="M7.66601 50.7549H8.79143C8.82151 50.7549 8.83131 50.7398 8.8215 50.7105L8.24735 48.7689C8.24212 48.7487 8.23428 48.7402 8.22447 48.7421C8.21466 48.7449 8.20681 48.7532 8.20158 48.7689L7.63528 50.7105C7.63005 50.7398 7.64051 50.7549 7.66601 50.7549ZM9.32699 52.4245L9.13081 51.7514C9.121 51.732 9.10792 51.722 9.09353 51.722H7.37109C7.35605 51.722 7.34362 51.732 7.33316 51.7514L7.13698 52.4245C7.12194 52.474 7.08663 52.4996 7.03105 52.4996H5.8762C5.84612 52.4996 5.82323 52.4904 5.80753 52.4727C5.79314 52.4559 5.79054 52.4296 5.80035 52.3936L7.41621 47.2883C7.4319 47.2387 7.46395 47.2132 7.51495 47.2132H8.94183C8.99219 47.2132 9.02488 47.2387 9.04058 47.2883L10.6636 52.3936C10.6689 52.4036 10.6715 52.4166 10.6715 52.4316C10.6715 52.4766 10.644 52.4996 10.5884 52.4996H9.43294C9.37735 52.4996 9.34203 52.474 9.32699 52.4245Z" fill="white"/>
<path d="M14.2668 50.7549H15.3916C15.4216 50.7549 15.4321 50.7398 15.4216 50.7105L14.8475 48.7689C14.8429 48.7487 14.8351 48.7402 14.8253 48.7421C14.8155 48.7449 14.8076 48.7532 14.8024 48.7689L14.2361 50.7105C14.2308 50.7398 14.2413 50.7549 14.2668 50.7549ZM15.9278 52.4245L15.7316 51.7514C15.7211 51.732 15.7087 51.722 15.6937 51.722H13.9719C13.9568 51.722 13.9444 51.732 13.9339 51.7514L13.7378 52.4245C13.7227 52.474 13.6874 52.4996 13.6318 52.4996H12.4763C12.4469 52.4996 12.4234 52.4904 12.4083 52.4727C12.3933 52.4559 12.3913 52.4296 12.4011 52.3936L14.017 47.2883C14.032 47.2387 14.0647 47.2132 14.1151 47.2132H15.5426C15.593 47.2132 15.6257 47.2387 15.6407 47.2883L17.2644 52.3936C17.2697 52.4036 17.2716 52.4166 17.2716 52.4316C17.2716 52.4766 17.2441 52.4996 17.1886 52.4996H16.0337C15.9781 52.4996 15.9428 52.474 15.9278 52.4245Z" fill="white"/>
<path d="M19.2086 52.4727C19.1909 52.4559 19.1817 52.4342 19.1817 52.4087V47.3041C19.1817 47.2786 19.1909 47.2572 19.2086 47.2401C19.2262 47.2224 19.2478 47.2132 19.2727 47.2132H20.3457C20.3706 47.2132 20.3915 47.2224 20.4092 47.2401C20.4275 47.2572 20.436 47.2786 20.436 47.3041V51.39C20.436 51.4147 20.4484 51.4265 20.4739 51.4265H22.883C22.9078 51.4265 22.9294 51.4357 22.9471 51.4533C22.9647 51.4717 22.9732 51.4932 22.9732 51.5174V52.4087C22.9732 52.4342 22.9647 52.4559 22.9471 52.4727C22.9294 52.4904 22.9078 52.4996 22.883 52.4996H19.2727C19.2478 52.4996 19.2262 52.4904 19.2086 52.4727Z" fill="white"/>
<path d="M27.4363 51.2801C27.5475 51.1866 27.6024 51.0525 27.6024 50.8765C27.6024 50.7051 27.5488 50.5725 27.4403 50.479C27.3324 50.3868 27.1748 50.3396 26.9688 50.3396H26.1605C26.135 50.3396 26.1232 50.3528 26.1232 50.3776V51.382C26.1232 51.4076 26.135 51.4201 26.1605 51.4201H26.9688C27.1695 51.4201 27.3258 51.3728 27.4363 51.2801ZM26.1232 48.3228V49.2744C26.1232 49.2999 26.135 49.3129 26.1605 49.3129H26.908C27.1146 49.3129 27.2729 49.2685 27.3834 49.1804C27.4945 49.092 27.5501 48.9684 27.5501 48.8062C27.5501 48.6409 27.4945 48.5119 27.3834 48.4217C27.2729 48.3308 27.1146 48.2856 26.908 48.2856H26.1605C26.135 48.2856 26.1232 48.2981 26.1232 48.3228ZM28.1687 49.7957C28.6278 50.0376 28.8567 50.441 28.8567 51.0039C28.8567 51.5077 28.6834 51.883 28.3355 52.1294C27.9882 52.376 27.5325 52.4996 26.9688 52.4996H24.9592C24.9344 52.4996 24.9128 52.4904 24.8958 52.4727C24.8775 52.4559 24.869 52.4342 24.869 52.4087V47.3041C24.869 47.2786 24.8775 47.2572 24.8958 47.2401C24.9128 47.2224 24.9344 47.2132 24.9592 47.2132H26.908C27.522 47.2132 27.987 47.3297 28.3015 47.5603C28.616 47.792 28.773 48.1673 28.773 48.6858C28.773 49.1788 28.5722 49.5342 28.1687 49.751C28.1393 49.7656 28.1393 49.7806 28.1687 49.7957Z" fill="white"/>
<path d="M33.4446 51.276C33.5924 51.1205 33.667 50.9105 33.667 50.6489V49.0854C33.667 48.8292 33.5924 48.6217 33.4446 48.4628C33.2955 48.3039 33.1007 48.2247 32.8587 48.2247C32.622 48.2247 32.4297 48.3039 32.2813 48.4628C32.1328 48.6217 32.0583 48.8292 32.0583 49.0854V50.6489C32.0583 50.9105 32.1328 51.1205 32.2813 51.276C32.4297 51.4318 32.622 51.5103 32.8587 51.5103C33.1007 51.5103 33.2955 51.4318 33.4446 51.276ZM31.783 52.3374C31.473 52.1739 31.2324 51.9433 31.0611 51.6462C30.8904 51.3488 30.8047 51.0039 30.8047 50.6116V49.1012C30.8047 48.7193 30.8904 48.3799 31.0611 48.0856C31.2324 47.7908 31.473 47.5619 31.783 47.3984C32.0923 47.2349 32.4507 47.1532 32.8587 47.1532C33.2668 47.1532 33.6264 47.2349 33.939 47.3984C34.2509 47.5619 34.4922 47.7908 34.6636 48.0856C34.8349 48.3799 34.9206 48.7193 34.9206 49.1012V50.6116C34.9206 51.0039 34.8349 51.3488 34.6636 51.6462C34.4922 51.9433 34.2509 52.1739 33.939 52.3374C33.6264 52.5009 33.2668 52.5826 32.8587 52.5826C32.4507 52.5826 32.0923 52.5009 31.783 52.3374Z" fill="white"/>
<path d="M38.1909 48.3228V49.396C38.1909 49.421 38.2026 49.4333 38.2281 49.4333H39.0665C39.2529 49.4333 39.4033 49.3817 39.5197 49.2785C39.6354 49.1758 39.6936 49.0384 39.6936 48.867C39.6936 48.6912 39.6354 48.5499 39.5197 48.4447C39.4033 48.3387 39.2529 48.2856 39.0665 48.2856H38.2281C38.2026 48.2856 38.1909 48.2981 38.1909 48.3228ZM39.6635 52.4316L38.7716 50.4229C38.7618 50.4024 38.7467 50.3919 38.7265 50.3919H38.2281C38.2026 50.3919 38.1909 50.4049 38.1909 50.4305V52.4087C38.1909 52.4342 38.1817 52.4559 38.1641 52.4727C38.1458 52.4904 38.1248 52.4996 38.1 52.4996H37.0269C37.002 52.4996 36.9805 52.4904 36.9635 52.4727C36.9451 52.4559 36.9366 52.4342 36.9366 52.4087V47.3041C36.9366 47.2786 36.9451 47.2572 36.9635 47.2401C36.9805 47.2224 37.002 47.2132 37.0269 47.2132H39.2705C39.6027 47.2132 39.8944 47.2807 40.1461 47.4165C40.3986 47.5532 40.5934 47.7455 40.7314 47.9946C40.87 48.2439 40.9394 48.5303 40.9394 48.8519C40.9394 49.1888 40.8563 49.4818 40.6902 49.7283C40.5241 49.9748 40.2926 50.1534 39.9951 50.2645C39.9696 50.2749 39.963 50.2921 39.9722 50.3169L40.9695 52.3936C40.9793 52.414 40.9845 52.4296 40.9845 52.4396C40.9845 52.4794 40.957 52.4996 40.9014 52.4996H39.7688C39.7185 52.4996 39.6832 52.4766 39.6635 52.4316Z" fill="white"/>
<path d="M43.8127 52.3185C43.5087 52.1575 43.2719 51.9307 43.1032 51.639C42.9345 51.346 42.8502 51.0093 42.8502 50.6267V49.079C42.8502 48.6963 42.9345 48.3602 43.1032 48.0705C43.2719 47.7808 43.5087 47.5552 43.8127 47.3943C44.1175 47.2334 44.4712 47.1532 44.8741 47.1532C45.2716 47.1532 45.6241 47.2296 45.9315 47.3833C46.2381 47.5363 46.4768 47.7468 46.6449 48.0143C46.8136 48.2812 46.898 48.5747 46.898 48.8971V48.9352C46.898 48.9604 46.8888 48.9814 46.8718 48.9985C46.8542 49.0169 46.8326 49.0253 46.8071 49.0253H45.7353C45.7098 49.0253 45.6888 49.0169 45.6705 48.9985C45.6535 48.9814 45.6444 48.9604 45.6444 48.9352C45.6444 48.7382 45.5751 48.5709 45.4371 48.4327C45.2984 48.2942 45.1108 48.2247 44.8741 48.2247C44.6426 48.2247 44.4562 48.3007 44.3156 48.4524C44.1744 48.6028 44.1037 48.7997 44.1037 49.0409V50.664C44.1037 50.9054 44.1822 51.102 44.3378 51.2533C44.4935 51.405 44.6903 51.4801 44.9264 51.4801C45.1481 51.4801 45.3272 51.4214 45.4632 51.3029C45.5993 51.1838 45.6666 51.0191 45.6666 50.8078V50.5965C45.6666 50.5712 45.6549 50.5588 45.6293 50.5588H44.8741C44.8486 50.5588 44.8276 50.5503 44.81 50.5327C44.7917 50.5148 44.7838 50.4934 44.7838 50.4686V49.6374C44.7838 49.6118 44.7917 49.5909 44.81 49.5733C44.8276 49.5556 44.8486 49.5464 44.8741 49.5464H46.8071C46.8326 49.5464 46.8542 49.5556 46.8718 49.5733C46.8888 49.5909 46.898 49.6118 46.898 49.6374V50.664C46.898 51.042 46.8136 51.3741 46.6449 51.662C46.4768 51.9476 46.2395 52.17 45.9347 52.3256C45.6307 52.482 45.2769 52.5598 44.8741 52.5598C44.4712 52.5598 44.1175 52.4794 43.8127 52.3185Z" fill="white"/>
<path d="M0.963239 61.7698C0.658507 61.6161 0.421777 61.3984 0.253063 61.1172C0.0843488 60.8346 0 60.5103 0 60.1422V56.7438C0 56.7187 0.00914929 56.6978 0.0268054 56.6801C0.0444616 56.662 0.06604 56.6533 0.0908894 56.6533H1.16335C1.18885 56.6533 1.20977 56.662 1.22743 56.6801C1.24509 56.6978 1.25358 56.7187 1.25358 56.7438V60.1422C1.25358 60.379 1.32355 60.569 1.46153 60.7131C1.60016 60.8561 1.78522 60.9281 2.01671 60.9281C2.24297 60.9281 2.42543 60.8561 2.56406 60.7131C2.7027 60.569 2.77201 60.379 2.77201 60.1422V56.7438C2.77201 56.7187 2.78052 56.6978 2.79883 56.6801C2.81583 56.662 2.83741 56.6533 2.86226 56.6533H3.9347C3.9602 56.6533 3.98113 56.662 3.99944 56.6801C4.01644 56.6978 4.02559 56.7187 4.02559 56.7438V60.1422C4.02559 60.5103 3.94255 60.8346 3.77645 61.1172C3.61035 61.3984 3.37428 61.6161 3.0702 61.7698C2.76547 61.9234 2.4143 62 2.01671 62C1.61912 62 1.26797 61.9234 0.963239 61.7698Z" fill="white"/>
<path d="M9.1197 56.6801C9.13671 56.662 9.15828 56.6533 9.18313 56.6533H10.2562C10.2811 56.6533 10.302 56.662 10.3203 56.6801C10.338 56.6978 10.3465 56.7187 10.3465 56.7438V61.8487C10.3465 61.8743 10.338 61.896 10.3203 61.9129C10.302 61.9313 10.2811 61.9397 10.2562 61.9397H9.2289C9.1779 61.9397 9.14325 61.9195 9.12298 61.8797L7.38613 58.9945C7.37632 58.9794 7.36586 58.973 7.3554 58.9756C7.34559 58.9781 7.34102 58.9894 7.34102 59.0095L7.34885 61.8487C7.34885 61.8743 7.3397 61.896 7.32205 61.9129C7.30374 61.9313 7.28281 61.9397 7.25796 61.9397H6.18485C6.16001 61.9397 6.13843 61.9313 6.12143 61.9129C6.10312 61.896 6.09462 61.8743 6.09462 61.8487V56.7438C6.09462 56.7187 6.10312 56.6978 6.12143 56.6801C6.13843 56.662 6.16001 56.6533 6.18485 56.6533H7.22003C7.27038 56.6533 7.30505 56.6738 7.32532 56.7136L9.05496 59.5909C9.06543 59.606 9.07523 59.6124 9.08504 59.6098C9.09551 59.6073 9.10008 59.596 9.10008 59.5758L9.0929 56.7438C9.0929 56.7187 9.10139 56.6978 9.1197 56.6801Z" fill="white"/>
<path d="M12.4796 61.9129C12.4619 61.896 12.4528 61.8743 12.4528 61.8487V56.7438C12.4528 56.7187 12.4619 56.6978 12.4796 56.6801C12.4973 56.662 12.5188 56.6533 12.5437 56.6533H13.6168C13.6416 56.6533 13.6626 56.662 13.6802 56.6801C13.6985 56.6978 13.707 56.7187 13.707 56.7438V61.8487C13.707 61.8743 13.6985 61.896 13.6802 61.9129C13.6626 61.9313 13.6416 61.9397 13.6168 61.9397H12.5437C12.5188 61.9397 12.4973 61.9313 12.4796 61.9129Z" fill="white"/>
<path d="M17.1585 61.8639L15.6335 56.7593L15.6257 56.7287C15.6257 56.6789 15.6531 56.6533 15.7087 56.6533H16.8636C16.9191 56.6533 16.9545 56.6789 16.9702 56.7287L17.8386 60.1657C17.8432 60.18 17.8503 60.1879 17.8608 60.1879C17.8706 60.1879 17.8785 60.18 17.8837 60.1657L18.7371 56.7287C18.7521 56.6789 18.7874 56.6533 18.843 56.6533H19.9756C20.0057 56.6533 20.0279 56.6633 20.0436 56.6835C20.0587 56.7044 20.0606 56.7287 20.0508 56.7593L18.5023 61.8639C18.4879 61.9141 18.4546 61.9397 18.4049 61.9397H17.2566C17.2062 61.9397 17.1735 61.9141 17.1585 61.8639Z" fill="white"/>
<path d="M25.6655 57.6991C25.6478 57.7168 25.6262 57.7259 25.6014 57.7259H23.2302C23.2047 57.7259 23.1923 57.739 23.1923 57.7638V58.693C23.1923 58.7178 23.2047 58.7296 23.2302 58.7296H24.748C24.7729 58.7296 24.7938 58.7388 24.8121 58.7564C24.8297 58.7747 24.8389 58.7957 24.8389 58.8205V59.7046C24.8389 59.7301 24.8297 59.7511 24.8121 59.7682C24.7938 59.7863 24.7729 59.7948 24.748 59.7948H23.2302C23.2047 59.7948 23.1923 59.808 23.1923 59.8328V60.8293C23.1923 60.8548 23.2047 60.8673 23.2302 60.8673H25.6014C25.6262 60.8673 25.6478 60.8766 25.6655 60.8934C25.6831 60.911 25.6916 60.9327 25.6916 60.9583V61.8487C25.6916 61.8743 25.6831 61.896 25.6655 61.9129C25.6478 61.9313 25.6262 61.9397 25.6014 61.9397H22.029C22.0041 61.9397 21.9825 61.9313 21.9649 61.9129C21.9472 61.896 21.9381 61.8743 21.9381 61.8487V56.7438C21.9381 56.7187 21.9472 56.6978 21.9649 56.6801C21.9825 56.662 22.0041 56.6533 22.029 56.6533H25.6014C25.6262 56.6533 25.6478 56.662 25.6655 56.6801C25.6831 56.6978 25.6916 56.7187 25.6916 56.7438V57.635C25.6916 57.661 25.6831 57.682 25.6655 57.6991Z" fill="white"/>
<path d="M28.909 57.7638V58.8356C28.909 58.8611 28.9214 58.8734 28.9469 58.8734H29.7846C29.971 58.8734 30.122 58.8218 30.2384 58.7191C30.3535 58.6159 30.4117 58.4785 30.4117 58.3071C30.4117 58.1306 30.3535 57.99 30.2384 57.884C30.122 57.778 29.971 57.7259 29.7846 57.7259H28.9469C28.9214 57.7259 28.909 57.739 28.909 57.7638ZM30.3816 61.8718L29.4903 59.863C29.4799 59.8426 29.4655 59.8328 29.4452 59.8328H28.9469C28.9214 59.8328 28.909 59.8454 28.909 59.8701V61.8487C28.909 61.8743 28.9005 61.896 28.8822 61.9129C28.8645 61.9313 28.8436 61.9397 28.8187 61.9397H27.7456C27.7208 61.9397 27.6992 61.9313 27.6815 61.9129C27.6639 61.896 27.6547 61.8743 27.6547 61.8487V56.7438C27.6547 56.7187 27.6639 56.6978 27.6815 56.6801C27.6992 56.662 27.7208 56.6533 27.7456 56.6533H29.9893C30.3215 56.6533 30.6131 56.7213 30.8649 56.8574C31.1167 56.9928 31.3115 57.1857 31.4502 57.4347C31.5888 57.6841 31.6574 57.9699 31.6574 58.2915C31.6574 58.6297 31.575 58.9212 31.409 59.1676C31.2429 59.4149 31.0107 59.5935 30.7138 59.7046C30.6883 59.7146 30.6811 59.7327 30.6909 59.7577L31.6875 61.834C31.698 61.8541 31.7032 61.8692 31.7032 61.8797C31.7032 61.9195 31.6758 61.9397 31.6202 61.9397H30.4869C30.4366 61.9397 30.4019 61.917 30.3816 61.8718Z" fill="white"/>
<path d="M34.4785 61.8005C34.1692 61.6671 33.9299 61.4755 33.7612 61.2263C33.5924 60.9764 33.5087 60.6888 33.5087 60.361V60.218C33.5087 60.193 33.5166 60.1715 33.5349 60.1539C33.5525 60.1363 33.5735 60.1271 33.599 60.1271H34.6485C34.674 60.1271 34.695 60.1363 34.7126 60.1539C34.7309 60.1715 34.7388 60.193 34.7388 60.218V60.3082C34.7388 60.4742 34.8218 60.6195 34.9886 60.7424C35.1547 60.8666 35.379 60.9281 35.6608 60.9281C35.8818 60.9281 36.0453 60.8799 36.1519 60.7843C36.2572 60.6888 36.3102 60.5777 36.3102 60.452C36.3102 60.3514 36.2788 60.2696 36.2153 60.2063C36.1526 60.1434 36.0689 60.0906 35.9623 60.0479C35.857 60.0047 35.6929 59.946 35.4712 59.8701C35.4417 59.855 35.4117 59.8438 35.3816 59.8367C35.3508 59.829 35.3234 59.8203 35.2979 59.8106C34.9709 59.7046 34.6865 59.5901 34.4445 59.4665C34.2032 59.3429 33.9966 59.1717 33.8252 58.9533C33.6539 58.7337 33.5682 58.4629 33.5682 58.141C33.5682 57.8292 33.65 57.5558 33.8141 57.3218C33.9776 57.0876 34.2058 56.9072 34.4975 56.7823C34.7898 56.6554 35.1194 56.5933 35.4869 56.5933C35.8746 56.5933 36.2232 56.6633 36.5332 56.8046C36.8425 56.9458 37.0851 57.1438 37.2616 57.4008C37.4375 57.6585 37.5258 57.952 37.5258 58.2848V58.3904C37.5258 58.4156 37.5167 58.4373 37.4997 58.4542C37.482 58.4721 37.4604 58.4805 37.4349 58.4805H36.3854C36.3605 58.4805 36.3389 58.4721 36.3213 58.4542C36.3036 58.4373 36.2951 58.4156 36.2951 58.3904V58.338C36.2951 58.1615 36.2167 58.0051 36.061 57.869C35.9047 57.7336 35.6955 57.6652 35.4339 57.6652C35.2377 57.6652 35.084 57.7055 34.9735 57.7859C34.8624 57.8664 34.8074 57.9801 34.8074 58.1255C34.8074 58.2366 34.8427 58.3288 34.9127 58.4014C34.9833 58.4747 35.0925 58.5426 35.2416 58.6059C35.3894 58.6687 35.6177 58.7505 35.925 58.8511C36.2775 58.9714 36.5521 59.0774 36.7483 59.1676C36.9445 59.2586 37.1295 59.4057 37.3028 59.6098C37.4768 59.8144 37.5638 60.0826 37.5638 60.4142C37.5638 60.7412 37.4807 61.0237 37.3146 61.2597C37.1485 61.497 36.9151 61.6789 36.6156 61.8076C36.3161 61.9358 35.9675 62 35.5699 62C35.1521 62 34.7885 61.9333 34.4785 61.8005Z" fill="white"/>
<path d="M39.5609 61.9129C39.5432 61.896 39.534 61.8743 39.534 61.8487V56.7438C39.534 56.7187 39.5432 56.6978 39.5609 56.6801C39.5785 56.662 39.6001 56.6533 39.6249 56.6533H40.698C40.7229 56.6533 40.7438 56.662 40.7615 56.6801C40.7798 56.6978 40.7883 56.7187 40.7883 56.7438V61.8487C40.7883 61.8743 40.7798 61.896 40.7615 61.9129C40.7438 61.9313 40.7229 61.9397 40.698 61.9397H39.6249C39.6001 61.9397 39.5785 61.9313 39.5609 61.9129Z" fill="white"/>
<path d="M46.7809 56.6801C46.7986 56.6978 46.8071 56.7187 46.8071 56.7438V57.6429C46.8071 57.6677 46.7986 57.6892 46.7809 57.7068C46.7632 57.7247 46.7423 57.7336 46.7168 57.7336H45.3952C45.3697 57.7336 45.3579 57.7461 45.3579 57.7709V61.8487C45.3579 61.8743 45.3488 61.896 45.3311 61.9129C45.3135 61.9313 45.2919 61.9397 45.2671 61.9397H44.1946C44.1691 61.9397 44.1482 61.9313 44.1305 61.9129C44.1122 61.896 44.1044 61.8743 44.1044 61.8487V57.7709C44.1044 57.7461 44.0913 57.7336 44.0658 57.7336H42.79C42.7645 57.7336 42.7435 57.7247 42.7252 57.7068C42.7082 57.6892 42.6991 57.6677 42.6991 57.6429V56.7438C42.6991 56.7187 42.7082 56.6978 42.7252 56.6801C42.7435 56.662 42.7645 56.6533 42.79 56.6533H46.7168C46.7423 56.6533 46.7632 56.662 46.7809 56.6801Z" fill="white"/>
<path d="M50.1343 61.8986C50.1166 61.8809 50.1075 61.8587 50.1075 61.834V60.0441C50.1075 60.0244 50.1049 60.0088 50.1003 59.9996L48.5518 56.7593C48.542 56.7384 48.5367 56.7241 48.5367 56.7136C48.5367 56.6738 48.5649 56.6533 48.6204 56.6533H49.7831C49.8328 56.6533 49.8688 56.6763 49.8884 56.7213L50.7117 58.6323C50.7274 58.6624 50.7424 58.6624 50.7568 58.6323L51.588 56.7213C51.6082 56.6763 51.6436 56.6533 51.6939 56.6533H52.8644C52.8998 56.6533 52.9233 56.662 52.9364 56.6801C52.9488 56.6978 52.9475 56.7241 52.9325 56.7593L51.3611 59.9996C51.3565 60.0088 51.3545 60.0244 51.3545 60.0441V61.834C51.3545 61.8587 51.3454 61.8809 51.3277 61.8986C51.3094 61.9157 51.2885 61.9246 51.2636 61.9246H50.1984C50.1735 61.9246 50.1519 61.9157 50.1343 61.8986Z" fill="white"/>
<path d="M43.2209 27.01C42.3172 26.5987 41.4095 26.4267 39.8662 25.332C35.9413 22.5483 34.1751 19.3244 36.6888 12.5019C38.1392 8.56721 38.6944 5.64742 38.6087 1.82911C38.5558 1.79184 38.406 1.68982 38.3609 1.65255C37.5788 6.39747 36.2703 8.73724 33.3269 13.5175C26.664 24.3381 32.9287 30.9617 35.889 33.3524C38.6296 32.0354 41.4978 29.752 43.2209 27.01Z" fill="url(#paint0_linear_45_26)"/>
<path d="M30.171 13.146C34.8172 7.2757 36.7215 4.81823 37.1328 0.876331C37.0798 0.847561 36.9373 0.771053 36.885 0.742283C35.6268 5.50617 33.0222 7.58828 25.2482 12.9662C17.165 18.5573 17.4514 26.9813 19.6539 33.1269C22.1532 34.4092 24.9814 35.1372 27.9823 35.1372C28.6219 35.1372 29.2536 35.1037 29.8768 35.0397C24.3177 26.1462 24.7519 19.994 30.171 13.146Z" fill="url(#paint1_linear_45_26)"/>
<path d="M27.0054 8.68885C32.2774 6.07835 34.6145 3.47243 35.6477 0.109264C35.602 0.0863762 35.4018 -0.00256157 35.4005 5.34058e-05C32.4153 5.11641 28.7089 5.49308 20.2751 6.9023C15.4315 7.71187 12.7961 9.82734 10.0784 12.8086C9.82727 13.8778 9.6494 15.5885 9.6507 16.725C9.65724 21.1161 11.1567 25.2634 13.8568 28.4794C14.0078 14.7377 20.4196 11.95 27.0054 8.68885Z" fill="url(#paint2_linear_45_26)"/>
<defs>
<linearGradient id="paint0_linear_45_26" x1="44.8337" y1="49.0463" x2="26.706" y2="15.2447" gradientUnits="userSpaceOnUse">
<stop stop-color="#FFADE3"/>
<stop offset="0.0001" stop-color="#FFA5E0"/>
<stop offset="0.322917" stop-color="#FF9393"/>
<stop offset="0.588542" stop-color="#D6FFA3"/>
<stop offset="0.833333" stop-color="#A3C2FF"/>
<stop offset="1" stop-color="#E7A3FF"/>
</linearGradient>
<linearGradient id="paint1_linear_45_26" x1="39.4937" y1="52.1654" x2="23.2828" y2="11.3858" gradientUnits="userSpaceOnUse">
<stop stop-color="#FFA3E0"/>
<stop offset="0.322917" stop-color="#FFA3A3"/>
<stop offset="0.588542" stop-color="#D6FFA3"/>
<stop offset="0.833333" stop-color="#A4C3FF"/>
<stop offset="1" stop-color="#E7A3FF"/>
</linearGradient>
<linearGradient id="paint2_linear_45_26" x1="38.9104" y1="42.5789" x2="30.0972" y2="5.57616" gradientUnits="userSpaceOnUse">
<stop stop-color="#FFA3E0"/>
<stop offset="0.322917" stop-color="#FFA3A3"/>
<stop offset="0.588542" stop-color="#D6FFA3"/>
<stop offset="0.833333" stop-color="#A4C3FF"/>
<stop offset="1" stop-color="#E7A3FF"/>
</linearGradient>
</defs>
</svg>
