<svg width="46" height="50" viewBox="0 0 46 50" fill="none" xmlns="http://www.w3.org/2000/svg">
<path d="M4.24805 40.0918L2.04492 47H0.00585938L3.16406 38.4688H4.45312L4.24805 40.0918ZM6.07617 47L3.86719 40.0918L3.63867 38.4688H4.94531L8.11523 47H6.07617ZM5.98242 43.8242V45.3008H1.53516V43.8242H5.98242ZM13.0819 45.582V38H14.9217V47H13.2694L13.0819 45.582ZM9.13266 43.9062V43.7832C9.13266 43.3027 9.18539 42.8652 9.29086 42.4707C9.40023 42.0723 9.55844 41.7305 9.76547 41.4453C9.97641 41.1562 10.2362 40.9336 10.5448 40.7773C10.8534 40.6211 11.2069 40.543 11.6053 40.543C11.9725 40.543 12.2928 40.625 12.5662 40.7891C12.8397 40.9492 13.0721 41.1758 13.2635 41.4688C13.4588 41.7578 13.617 42.0996 13.7381 42.4941C13.8592 42.8848 13.951 43.3086 14.0135 43.7656V43.9766C13.9549 44.4141 13.8631 44.8223 13.7381 45.2012C13.617 45.5801 13.4588 45.9141 13.2635 46.2031C13.0721 46.4883 12.8377 46.7129 12.5604 46.877C12.287 47.0371 11.9647 47.1172 11.5936 47.1172C11.1952 47.1172 10.8416 47.0371 10.533 46.877C10.2284 46.7168 9.9725 46.4922 9.76547 46.2031C9.55844 45.9141 9.40023 45.5742 9.29086 45.1836C9.18539 44.793 9.13266 44.3672 9.13266 43.9062ZM10.9608 43.7832V43.9062C10.9608 44.1562 10.9784 44.3887 11.0135 44.6035C11.0526 44.8184 11.1151 45.0078 11.201 45.1719C11.287 45.3359 11.4002 45.4648 11.5409 45.5586C11.6815 45.6484 11.8534 45.6934 12.0565 45.6934C12.3299 45.6934 12.5545 45.6309 12.7303 45.5059C12.9061 45.377 13.0389 45.1992 13.1287 44.9727C13.2186 44.7461 13.2655 44.4824 13.2694 44.1816V43.5664C13.2694 43.3164 13.244 43.0918 13.1932 42.8926C13.1424 42.6934 13.0662 42.5254 12.9647 42.3887C12.867 42.252 12.744 42.1484 12.5955 42.0781C12.4471 42.0039 12.2713 41.9668 12.0682 41.9668C11.869 41.9668 11.6991 42.0137 11.5584 42.1074C11.4178 42.1973 11.3026 42.3242 11.2127 42.4883C11.1268 42.6523 11.0623 42.8457 11.0194 43.0684C10.9803 43.2871 10.9608 43.5254 10.9608 43.7832ZM20.7966 40.6602H22.4606V46.7715C22.4606 47.3535 22.3278 47.8477 22.0622 48.2539C21.8005 48.6602 21.4352 48.9688 20.9665 49.1797C20.4977 49.3906 19.9489 49.4961 19.32 49.4961C19.0466 49.4961 18.7614 49.459 18.4645 49.3848C18.1677 49.3145 17.8884 49.207 17.6266 49.0625C17.3649 48.9219 17.1462 48.7422 16.9704 48.5234L17.7497 47.4453C17.9294 47.6484 18.1442 47.8125 18.3942 47.9375C18.6442 48.0664 18.9294 48.1309 19.2497 48.1309C19.5427 48.1309 19.7907 48.0781 19.9938 47.9727C20.197 47.8672 20.3512 47.7129 20.4567 47.5098C20.5661 47.3066 20.6208 47.0605 20.6208 46.7715V42.1426L20.7966 40.6602ZM16.5602 43.9062V43.7832C16.5602 43.3027 16.6188 42.8652 16.736 42.4707C16.8532 42.0723 17.0231 41.7305 17.2458 41.4453C17.4723 41.1562 17.7438 40.9336 18.0602 40.7773C18.3805 40.6211 18.7399 40.543 19.1384 40.543C19.568 40.543 19.9235 40.625 20.2048 40.7891C20.486 40.9492 20.7145 41.1758 20.8903 41.4688C21.0661 41.7578 21.2048 42.0996 21.3063 42.4941C21.4079 42.8848 21.4899 43.3086 21.5524 43.7656V43.9766C21.4899 44.4141 21.4001 44.8223 21.2829 45.2012C21.1657 45.5801 21.0134 45.9141 20.8259 46.2031C20.6384 46.4883 20.404 46.7129 20.1227 46.877C19.8454 47.0371 19.5134 47.1172 19.1266 47.1172C18.7321 47.1172 18.3766 47.0371 18.0602 46.877C17.7438 46.7168 17.4723 46.4922 17.2458 46.2031C17.0231 45.9141 16.8532 45.5742 16.736 45.1836C16.6188 44.793 16.5602 44.3672 16.5602 43.9062ZM18.3884 43.7832V43.9062C18.3884 44.1562 18.4118 44.3887 18.4587 44.6035C18.5095 44.8184 18.5837 45.0078 18.6813 45.1719C18.7829 45.3359 18.9079 45.4648 19.0563 45.5586C19.2087 45.6484 19.3864 45.6934 19.5895 45.6934C19.8864 45.6934 20.1266 45.6309 20.3102 45.5059C20.4977 45.377 20.6345 45.1992 20.7204 44.9727C20.8102 44.7461 20.8571 44.4824 20.861 44.1816V43.5664C20.861 43.3164 20.8356 43.0918 20.7848 42.8926C20.7341 42.6934 20.6579 42.5254 20.5563 42.3887C20.4587 42.252 20.3298 42.1484 20.1696 42.0781C20.0134 42.0039 19.8239 41.9668 19.6012 41.9668C19.402 41.9668 19.2262 42.0137 19.0739 42.1074C18.9216 42.1973 18.7946 42.3242 18.693 42.4883C18.5915 42.6523 18.5153 42.8457 18.4645 43.0684C18.4137 43.2871 18.3884 43.5254 18.3884 43.7832ZM27.6968 45.4883V42.7695C27.6968 42.5781 27.6675 42.4141 27.6089 42.2773C27.5503 42.1406 27.4585 42.0332 27.3335 41.9551C27.2085 41.877 27.0464 41.8379 26.8472 41.8379C26.6792 41.8379 26.5327 41.8672 26.4077 41.9258C26.2866 41.9844 26.1929 42.0684 26.1265 42.1777C26.064 42.2871 26.0327 42.4219 26.0327 42.582H24.2046C24.2046 42.2969 24.2691 42.0312 24.398 41.7852C24.5269 41.5391 24.7105 41.3223 24.9487 41.1348C25.1909 40.9473 25.48 40.8027 25.8159 40.7012C26.1519 40.5957 26.5288 40.543 26.9468 40.543C27.4429 40.543 27.8843 40.627 28.271 40.7949C28.6616 40.959 28.9702 41.207 29.1968 41.5391C29.4234 41.8672 29.5366 42.2812 29.5366 42.7812V45.4355C29.5366 45.8184 29.5581 46.1191 29.6011 46.3379C29.648 46.5527 29.7144 46.7402 29.8003 46.9004V47H27.9546C27.8687 46.8164 27.8042 46.5898 27.7612 46.3203C27.7183 46.0469 27.6968 45.7695 27.6968 45.4883ZM27.9253 43.1328L27.937 44.1406H27.0288C26.8257 44.1406 26.6499 44.166 26.5015 44.2168C26.357 44.2676 26.2398 44.3379 26.1499 44.4277C26.0601 44.5137 25.9937 44.6152 25.9507 44.7324C25.9116 44.8457 25.8921 44.9707 25.8921 45.1074C25.8921 45.2363 25.9234 45.3535 25.9859 45.459C26.0484 45.5605 26.1343 45.6406 26.2437 45.6992C26.353 45.7578 26.48 45.7871 26.6245 45.7871C26.8628 45.7871 27.0659 45.7402 27.2339 45.6465C27.4058 45.5527 27.5386 45.4395 27.6323 45.3066C27.7261 45.1699 27.773 45.043 27.773 44.9258L28.2124 45.6875C28.1421 45.8438 28.0562 46.0059 27.9546 46.1738C27.853 46.3379 27.7241 46.4922 27.5679 46.6367C27.4116 46.7773 27.2222 46.8926 26.9995 46.9824C26.7808 47.0723 26.5171 47.1172 26.2085 47.1172C25.8101 47.1172 25.4487 47.0371 25.1245 46.877C24.8003 46.7129 24.5405 46.4883 24.3452 46.2031C24.1538 45.918 24.0581 45.5898 24.0581 45.2188C24.0581 44.8867 24.1187 44.5918 24.2398 44.334C24.3609 44.0762 24.5425 43.8574 24.7847 43.6777C25.0308 43.498 25.3394 43.3633 25.7105 43.2734C26.0816 43.1797 26.5152 43.1328 27.0112 43.1328H27.9253ZM33.1908 42.0137V47H31.3568V40.6602H33.0795L33.1908 42.0137ZM32.9505 43.6074L32.4935 43.6191C32.4935 43.1426 32.5521 42.7148 32.6693 42.3359C32.7865 41.957 32.9525 41.6348 33.1673 41.3691C33.3861 41.0996 33.6459 40.8945 33.9466 40.7539C34.2513 40.6133 34.5873 40.543 34.9545 40.543C35.2513 40.543 35.5228 40.5859 35.7689 40.6719C36.015 40.7578 36.2259 40.8965 36.4017 41.0879C36.5814 41.2754 36.7181 41.5254 36.8119 41.8379C36.9056 42.1465 36.9525 42.5273 36.9525 42.9805V47H35.1127V42.9746C35.1127 42.709 35.0755 42.5039 35.0013 42.3594C34.9271 42.2148 34.8177 42.1133 34.6732 42.0547C34.5326 41.9961 34.3607 41.9668 34.1576 41.9668C33.9427 41.9668 33.7591 42.0098 33.6068 42.0957C33.4545 42.1777 33.3295 42.293 33.2318 42.4414C33.1341 42.5898 33.0619 42.7637 33.015 42.9629C32.972 43.1621 32.9505 43.377 32.9505 43.6074ZM42.8039 40.6602H44.468V46.7715C44.468 47.3535 44.3352 47.8477 44.0695 48.2539C43.8078 48.6602 43.4426 48.9688 42.9738 49.1797C42.5051 49.3906 41.9562 49.4961 41.3273 49.4961C41.0539 49.4961 40.7687 49.459 40.4719 49.3848C40.175 49.3145 39.8957 49.207 39.634 49.0625C39.3723 48.9219 39.1535 48.7422 38.9777 48.5234L39.757 47.4453C39.9367 47.6484 40.1516 47.8125 40.4016 47.9375C40.6516 48.0664 40.9367 48.1309 41.257 48.1309C41.55 48.1309 41.798 48.0781 42.0012 47.9727C42.2043 47.8672 42.3586 47.7129 42.4641 47.5098C42.5734 47.3066 42.6281 47.0605 42.6281 46.7715V42.1426L42.8039 40.6602ZM38.5676 43.9062V43.7832C38.5676 43.3027 38.6262 42.8652 38.7434 42.4707C38.8605 42.0723 39.0305 41.7305 39.2531 41.4453C39.4797 41.1562 39.7512 40.9336 40.0676 40.7773C40.3879 40.6211 40.7473 40.543 41.1457 40.543C41.5754 40.543 41.9309 40.625 42.2121 40.7891C42.4934 40.9492 42.7219 41.1758 42.8977 41.4688C43.0734 41.7578 43.2121 42.0996 43.3137 42.4941C43.4152 42.8848 43.4973 43.3086 43.5598 43.7656V43.9766C43.4973 44.4141 43.4074 44.8223 43.2902 45.2012C43.173 45.5801 43.0207 45.9141 42.8332 46.2031C42.6457 46.4883 42.4113 46.7129 42.1301 46.877C41.8527 47.0371 41.5207 47.1172 41.134 47.1172C40.7395 47.1172 40.384 47.0371 40.0676 46.877C39.7512 46.7168 39.4797 46.4922 39.2531 46.2031C39.0305 45.9141 38.8605 45.5742 38.7434 45.1836C38.6262 44.793 38.5676 44.3672 38.5676 43.9062ZM40.3957 43.7832V43.9062C40.3957 44.1562 40.4191 44.3887 40.466 44.6035C40.5168 44.8184 40.591 45.0078 40.6887 45.1719C40.7902 45.3359 40.9152 45.4648 41.0637 45.5586C41.216 45.6484 41.3937 45.6934 41.5969 45.6934C41.8937 45.6934 42.134 45.6309 42.3176 45.5059C42.5051 45.377 42.6418 45.1992 42.7277 44.9727C42.8176 44.7461 42.8645 44.4824 42.8684 44.1816V43.5664C42.8684 43.3164 42.843 43.0918 42.7922 42.8926C42.7414 42.6934 42.6652 42.5254 42.5637 42.3887C42.466 42.252 42.3371 42.1484 42.177 42.0781C42.0207 42.0039 41.8312 41.9668 41.6086 41.9668C41.4094 41.9668 41.2336 42.0137 41.0812 42.1074C40.9289 42.1973 40.802 42.3242 40.7004 42.4883C40.5988 42.6523 40.5227 42.8457 40.4719 43.0684C40.4211 43.2871 40.3957 43.5254 40.3957 43.7832Z" fill="black"/>
<path d="M27.375 12H16.375V9.33335C16.373 8.5416 16.6133 7.76708 17.0656 7.10789C17.5179 6.44869 18.1617 5.93448 18.9156 5.63036C19.6694 5.32625 20.4994 5.24592 21.3004 5.39954C22.1014 5.55317 22.8373 5.93384 23.415 6.49335C23.9319 7.00544 24.3017 7.63978 24.4875 8.33335C24.5326 8.50319 24.6118 8.66275 24.7206 8.80291C24.8293 8.94308 24.9654 9.0611 25.1212 9.15024C25.277 9.23939 25.4493 9.29791 25.6284 9.32246C25.8075 9.34702 25.9899 9.33712 26.165 9.29335C26.3402 9.24958 26.5047 9.17278 26.6492 9.06734C26.7938 8.9619 26.9155 8.82989 27.0074 8.67884C27.0994 8.52779 27.1597 8.36066 27.185 8.18699C27.2103 8.01333 27.2001 7.83652 27.155 7.66668C26.8418 6.51308 26.2205 5.45993 25.3537 4.61335C24.3915 3.68317 23.1666 3.05033 21.8337 2.79474C20.5008 2.53915 19.1197 2.67227 17.8648 3.17729C16.6098 3.68231 15.5374 4.53659 14.7828 5.63225C14.0282 6.72791 13.6253 8.01581 13.625 9.33335V12C12.531 12 11.4818 12.4214 10.7082 13.1716C9.9346 13.9217 9.5 14.9391 9.5 16V25.3333C9.5 26.3942 9.9346 27.4116 10.7082 28.1618C11.4818 28.9119 12.531 29.3333 13.625 29.3333H27.375C28.469 29.3333 29.5182 28.9119 30.2918 28.1618C31.0654 27.4116 31.5 26.3942 31.5 25.3333V16C31.5 14.9391 31.0654 13.9217 30.2918 13.1716C29.5182 12.4214 28.469 12 27.375 12ZM28.75 25.3333C28.75 25.687 28.6051 26.0261 28.3473 26.2762C28.0894 26.5262 27.7397 26.6667 27.375 26.6667H13.625C13.2603 26.6667 12.9106 26.5262 12.6527 26.2762C12.3949 26.0261 12.25 25.687 12.25 25.3333V16C12.25 15.6464 12.3949 15.3073 12.6527 15.0572C12.9106 14.8072 13.2603 14.6667 13.625 14.6667H27.375C27.7397 14.6667 28.0894 14.8072 28.3473 15.0572C28.6051 15.3073 28.75 15.6464 28.75 16V25.3333Z" fill="black"/>
</svg>
