<svg width="18" height="10" viewBox="0 0 18 10" fill="none" xmlns="http://www.w3.org/2000/svg">
<path d="M1.92 9C1.152 9 0.768 8.62 0.768 7.86V1.68C0.768 0.92 1.152 0.539999 1.92 0.539999H4.272C5.736 0.539999 6.872 0.908 7.68 1.644C8.488 2.38 8.892 3.42 8.892 4.764C8.892 6.108 8.488 7.152 7.68 7.896C6.872 8.632 5.736 9 4.272 9H1.92ZM2.976 7.212H4.128C4.968 7.212 5.588 7.012 5.988 6.612C6.396 6.204 6.6 5.588 6.6 4.764C6.6 3.94 6.396 3.328 5.988 2.928C5.58 2.528 4.96 2.328 4.128 2.328H2.976V7.212ZM11.3056 9.108C10.9536 9.108 10.6816 9.012 10.4896 8.82C10.2976 8.628 10.2016 8.352 10.2016 7.992V1.548C10.2016 1.188 10.2976 0.912 10.4896 0.719999C10.6816 0.527999 10.9536 0.431999 11.3056 0.431999C11.6576 0.431999 11.9296 0.527999 12.1216 0.719999C12.3136 0.912 12.4096 1.188 12.4096 1.548V4.164H12.4336L15.3496 0.948C15.5016 0.788 15.6616 0.664 15.8296 0.576C16.0056 0.48 16.2016 0.431999 16.4176 0.431999C16.7456 0.431999 16.9856 0.52 17.1376 0.696C17.2896 0.864 17.3576 1.064 17.3416 1.296C17.3256 1.528 17.2336 1.736 17.0656 1.92L14.5696 4.56L17.2096 7.548C17.4176 7.78 17.5216 8.016 17.5216 8.256C17.5216 8.496 17.4376 8.7 17.2696 8.868C17.1016 9.028 16.8616 9.108 16.5496 9.108C16.2776 9.108 16.0576 9.056 15.8896 8.952C15.7216 8.84 15.5456 8.676 15.3616 8.46L12.4336 5.184H12.4096V7.992C12.4096 8.352 12.3136 8.628 12.1216 8.82C11.9376 9.012 11.6656 9.108 11.3056 9.108Z" fill="white"/>
</svg>
