<svg width="23" height="10" viewBox="0 0 23 10" fill="none" xmlns="http://www.w3.org/2000/svg">
<path d="M0.584 9C0.224 9 0.0440001 8.82 0.0440001 8.46V1.08C0.0440001 0.72 0.224 0.539999 0.584 0.539999H5.048C5.328 0.539999 5.468 0.676 5.468 0.948C5.468 1.228 5.328 1.368 5.048 1.368H1.004V4.296H4.796C5.076 4.296 5.216 4.432 5.216 4.704C5.216 4.984 5.076 5.124 4.796 5.124H1.004V8.172H5.048C5.328 8.172 5.468 8.308 5.468 8.58C5.468 8.86 5.328 9 5.048 9H0.584ZM7.50809 9.084C7.19609 9.084 7.04009 8.92 7.04009 8.592V0.96C7.04009 0.624 7.18409 0.456 7.47209 0.456C7.59209 0.456 7.68409 0.48 7.74809 0.528C7.81209 0.568 7.88409 0.644 7.96409 0.756L12.9081 7.344V0.935999C12.9081 0.616 13.0641 0.456 13.3761 0.456C13.6721 0.456 13.8201 0.616 13.8201 0.935999V8.604C13.8201 8.924 13.6881 9.084 13.4241 9.084C13.3041 9.084 13.2081 9.06 13.1361 9.012C13.0641 8.964 12.9881 8.888 12.9081 8.784L7.96409 2.172V8.592C7.96409 8.92 7.81209 9.084 7.50809 9.084ZM19.7869 9.108C18.4269 9.108 17.3909 8.724 16.6789 7.956C15.9669 7.188 15.6109 6.128 15.6109 4.776C15.6109 3.88 15.7709 3.108 16.0909 2.46C16.4109 1.812 16.8709 1.312 17.4709 0.96C18.0709 0.608 18.7949 0.431999 19.6429 0.431999C20.1469 0.431999 20.6349 0.503999 21.1069 0.648C21.5789 0.784 21.9989 1.004 22.3669 1.308C22.4789 1.388 22.5429 1.488 22.5589 1.608C22.5749 1.72 22.5509 1.828 22.4869 1.932C22.4309 2.028 22.3469 2.092 22.2349 2.124C22.1309 2.156 22.0189 2.132 21.8989 2.052C21.5709 1.796 21.2229 1.612 20.8549 1.5C20.4869 1.38 20.0789 1.32 19.6309 1.32C18.6709 1.32 17.9349 1.624 17.4229 2.232C16.9109 2.832 16.6549 3.68 16.6549 4.776C16.6549 5.896 16.9189 6.752 17.4469 7.344C17.9749 7.936 18.7629 8.232 19.8109 8.232C20.4909 8.232 21.1429 8.116 21.7669 7.884V5.376H20.0509C19.7629 5.376 19.6189 5.244 19.6189 4.98C19.6189 4.724 19.7629 4.596 20.0509 4.596H22.1989C22.4789 4.596 22.6189 4.736 22.6189 5.016V8.148C22.6189 8.396 22.5309 8.556 22.3549 8.628C22.0189 8.772 21.6149 8.888 21.1429 8.976C20.6789 9.064 20.2269 9.108 19.7869 9.108Z" fill="white"/>
</svg>
