<svg width="69" height="10" viewBox="0 0 69 10" fill="none" xmlns="http://www.w3.org/2000/svg">
<path d="M4.86 9.096C3.524 9.096 2.508 8.716 1.812 7.956C1.116 7.196 0.768 6.132 0.768 4.764C0.768 3.876 0.92 3.108 1.224 2.46C1.536 1.812 1.98 1.316 2.556 0.972C3.14 0.619999 3.844 0.443999 4.668 0.443999C5.196 0.443999 5.7 0.52 6.18 0.672C6.66 0.824 7.08 1.064 7.44 1.392C7.552 1.488 7.596 1.6 7.572 1.728C7.548 1.848 7.484 1.94 7.38 2.004C7.284 2.068 7.172 2.052 7.044 1.956C6.716 1.66 6.352 1.448 5.952 1.32C5.552 1.192 5.12 1.128 4.656 1.128C3.656 1.128 2.888 1.448 2.352 2.088C1.816 2.72 1.548 3.612 1.548 4.764C1.548 5.956 1.824 6.864 2.376 7.488C2.936 8.112 3.768 8.424 4.872 8.424C5.624 8.424 6.324 8.296 6.972 8.04V5.292H5.076C4.844 5.292 4.728 5.184 4.728 4.968C4.728 4.768 4.844 4.668 5.076 4.668H7.296C7.52 4.668 7.632 4.78 7.632 5.004V8.232C7.632 8.424 7.568 8.552 7.44 8.616C7.12 8.752 6.72 8.868 6.24 8.964C5.768 9.052 5.308 9.096 4.86 9.096ZM12.0004 9.072C11.7524 9.072 11.6284 8.94 11.6284 8.676V4.944L8.73638 0.995999C8.64038 0.868 8.62038 0.748 8.67638 0.636C8.73238 0.524 8.82838 0.468 8.96438 0.468C9.13238 0.468 9.27238 0.548 9.38438 0.707999L12.0124 4.296L14.6524 0.707999C14.7644 0.548 14.9004 0.468 15.0604 0.468C15.1964 0.468 15.2884 0.524 15.3364 0.636C15.3924 0.74 15.3684 0.864 15.2644 1.008L12.3724 4.956V8.676C12.3724 8.94 12.2484 9.072 12.0004 9.072ZM17.0854 9C16.8374 9 16.7134 8.872 16.7134 8.616V0.864C16.7134 0.608 16.8334 0.48 17.0734 0.48C17.3214 0.48 17.4454 0.608 17.4454 0.864V8.34H21.5734C21.8134 8.34 21.9334 8.448 21.9334 8.664C21.9334 8.888 21.8134 9 21.5734 9H17.0854ZM23.5433 9C23.2713 9 23.1353 8.86 23.1353 8.58V0.96C23.1353 0.68 23.2713 0.539999 23.5433 0.539999H25.8593C27.2033 0.539999 28.2393 0.9 28.9673 1.62C29.7033 2.34 30.0713 3.388 30.0713 4.764C30.0713 6.14 29.7033 7.192 28.9673 7.92C28.2393 8.64 27.2033 9 25.8593 9H23.5433ZM23.8673 8.352H25.7993C28.1193 8.352 29.2793 7.156 29.2793 4.764C29.2793 2.38 28.1193 1.188 25.7993 1.188H23.8673V8.352ZM32.296 9.072C32.056 9.072 31.936 8.944 31.936 8.688V0.852C31.936 0.596 32.056 0.468 32.296 0.468C32.544 0.468 32.668 0.596 32.668 0.852V8.688C32.668 8.944 32.544 9.072 32.296 9.072ZM38.6334 9.096C37.2974 9.096 36.2814 8.716 35.5854 7.956C34.8894 7.196 34.5414 6.132 34.5414 4.764C34.5414 3.876 34.6934 3.108 34.9974 2.46C35.3094 1.812 35.7534 1.316 36.3294 0.972C36.9134 0.619999 37.6174 0.443999 38.4414 0.443999C38.9694 0.443999 39.4734 0.52 39.9534 0.672C40.4334 0.824 40.8534 1.064 41.2134 1.392C41.3254 1.488 41.3694 1.6 41.3454 1.728C41.3214 1.848 41.2574 1.94 41.1534 2.004C41.0574 2.068 40.9454 2.052 40.8174 1.956C40.4894 1.66 40.1254 1.448 39.7254 1.32C39.3254 1.192 38.8934 1.128 38.4294 1.128C37.4294 1.128 36.6614 1.448 36.1254 2.088C35.5894 2.72 35.3214 3.612 35.3214 4.764C35.3214 5.956 35.5974 6.864 36.1494 7.488C36.7094 8.112 37.5414 8.424 38.6454 8.424C39.3974 8.424 40.0974 8.296 40.7454 8.04V5.292H38.8494C38.6174 5.292 38.5014 5.184 38.5014 4.968C38.5014 4.768 38.6174 4.668 38.8494 4.668H41.0694C41.2934 4.668 41.4054 4.78 41.4054 5.004V8.232C41.4054 8.424 41.3414 8.552 41.2134 8.616C40.8934 8.752 40.4934 8.868 40.0134 8.964C39.5414 9.052 39.0814 9.096 38.6334 9.096ZM46.969 9.072C46.697 9.072 46.561 8.936 46.561 8.664V0.96C46.561 0.68 46.697 0.539999 46.969 0.539999H51.397C51.621 0.539999 51.733 0.644 51.733 0.852C51.733 1.068 51.621 1.176 51.397 1.176H47.293V4.404H51.157C51.381 4.404 51.493 4.508 51.493 4.716C51.493 4.932 51.381 5.04 51.157 5.04H47.293V8.664C47.293 8.936 47.185 9.072 46.969 9.072ZM53.4249 9.072C53.1849 9.072 53.0649 8.944 53.0649 8.688V0.924C53.0649 0.668 53.1889 0.539999 53.4369 0.539999H56.2569C57.1609 0.539999 57.8489 0.747999 58.3209 1.164C58.8009 1.58 59.0409 2.172 59.0409 2.94C59.0409 3.572 58.8689 4.084 58.5249 4.476C58.1809 4.868 57.6929 5.12 57.0609 5.232C57.4049 5.36 57.7089 5.672 57.9729 6.168L59.2449 8.532C59.3169 8.668 59.3289 8.792 59.2809 8.904C59.2409 9.016 59.1529 9.072 59.0169 9.072C58.8249 9.072 58.6809 8.98 58.5849 8.796L57.2409 6.288C57.0329 5.912 56.8009 5.66 56.5449 5.532C56.2889 5.404 55.9449 5.34 55.5129 5.34H53.7969V8.688C53.7969 8.944 53.6729 9.072 53.4249 9.072ZM53.7969 4.716H56.1609C57.5849 4.716 58.2969 4.124 58.2969 2.94C58.2969 1.764 57.5849 1.176 56.1609 1.176H53.7969V4.716ZM60.5696 9.072C60.4096 9.072 60.3056 9.024 60.2576 8.928C60.2096 8.824 60.2176 8.7 60.2816 8.556L63.6536 0.804C63.7496 0.58 63.8976 0.468 64.0976 0.468C64.2976 0.468 64.4456 0.58 64.5416 0.804L67.9136 8.556C67.9856 8.7 67.9976 8.824 67.9496 8.928C67.9096 9.024 67.8136 9.072 67.6616 9.072C67.5496 9.072 67.4576 9.044 67.3856 8.988C67.3216 8.924 67.2656 8.84 67.2176 8.736L66.3656 6.744H61.8296L60.9776 8.736C60.8816 8.96 60.7456 9.072 60.5696 9.072ZM64.0856 1.452L62.1056 6.108H66.0896L64.1096 1.452H64.0856Z" fill="#211A52"/>
</svg>
