<svg width="154" height="59" viewBox="0 0 154 59" fill="none" xmlns="http://www.w3.org/2000/svg">
<path d="M2.9 19.225C2.16667 19.225 1.6 19.025 1.2 18.625C0.8 18.225 0.6 17.6417 0.6 16.875V3.5C0.6 2.73333 0.8 2.15 1.2 1.75C1.6 1.35 2.16667 1.15 2.9 1.15C3.63333 1.15 4.2 1.35 4.6 1.75C5 2.15 5.2 2.73333 5.2 3.5V8.175H12.475V3.5C12.475 2.73333 12.675 2.15 13.075 1.75C13.475 1.35 14.0417 1.15 14.775 1.15C15.5083 1.15 16.0667 1.35 16.45 1.75C16.85 2.15 17.05 2.73333 17.05 3.5V16.875C17.05 17.6417 16.85 18.225 16.45 18.625C16.0667 19.025 15.5083 19.225 14.775 19.225C14.025 19.225 13.45 19.025 13.05 18.625C12.6667 18.225 12.475 17.6417 12.475 16.875V11.95H5.2V16.875C5.2 17.6417 5 18.225 4.6 18.625C4.21667 19.025 3.65 19.225 2.9 19.225ZM24.2283 19.275C23.2783 19.275 22.4367 19.1 21.7033 18.75C20.9867 18.4 20.42 17.925 20.0033 17.325C19.6033 16.7083 19.4033 16.0083 19.4033 15.225C19.4033 14.3417 19.6367 13.6417 20.1033 13.125C20.57 12.5917 21.32 12.2167 22.3533 12C23.3867 11.7667 24.7617 11.65 26.4783 11.65H27.4283V11.3C27.4283 10.7 27.27 10.275 26.9533 10.025C26.6533 9.775 26.1283 9.65 25.3783 9.65C24.9617 9.65 24.5033 9.7 24.0033 9.8C23.52 9.88333 22.97 10.0417 22.3533 10.275C21.8033 10.475 21.345 10.4667 20.9783 10.25C20.6117 10.0333 20.37 9.725 20.2533 9.325C20.1533 8.90833 20.195 8.5 20.3783 8.1C20.5783 7.68333 20.9533 7.375 21.5033 7.175C22.3033 6.89167 23.0367 6.7 23.7033 6.6C24.3867 6.48333 25.0117 6.425 25.5783 6.425C27.6283 6.425 29.145 6.86667 30.1283 7.75C31.1283 8.63333 31.6283 10.025 31.6283 11.925V16.975C31.6283 18.475 30.945 19.225 29.5783 19.225C28.2783 19.225 27.5867 18.5583 27.5033 17.225C27.27 17.8583 26.87 18.3583 26.3033 18.725C25.7367 19.0917 25.045 19.275 24.2283 19.275ZM25.2283 16.375C25.845 16.375 26.3617 16.175 26.7783 15.775C27.2117 15.375 27.4283 14.85 27.4283 14.2V13.75H26.4783C25.495 13.75 24.77 13.8583 24.3033 14.075C23.8533 14.275 23.6283 14.6 23.6283 15.05C23.6283 15.4333 23.7617 15.75 24.0283 16C24.3117 16.25 24.7117 16.375 25.2283 16.375ZM36.4123 19.225C35.6956 19.225 35.1456 19.0333 34.7623 18.65C34.3956 18.2667 34.2123 17.7083 34.2123 16.975V8.7C34.2123 7.21667 34.9373 6.475 36.3873 6.475C37.704 6.475 38.4206 7.10833 38.5373 8.375C38.904 7.775 39.404 7.3 40.0373 6.95C40.6873 6.6 41.4373 6.425 42.2873 6.425C43.1206 6.425 43.8373 6.60833 44.4373 6.975C45.054 7.34167 45.5206 7.90833 45.8373 8.675C46.254 7.95833 46.8206 7.40833 47.5373 7.025C48.254 6.625 49.0456 6.425 49.9123 6.425C51.3456 6.425 52.404 6.85833 53.0873 7.725C53.7873 8.575 54.1373 9.90833 54.1373 11.725V16.975C54.1373 17.7083 53.9373 18.2667 53.5373 18.65C53.154 19.0333 52.604 19.225 51.8873 19.225C51.1873 19.225 50.6456 19.0333 50.2623 18.65C49.879 18.2667 49.6873 17.7083 49.6873 16.975V11.85C49.6873 11.1333 49.579 10.6167 49.3623 10.3C49.1456 9.98333 48.7873 9.825 48.2873 9.825C47.6706 9.825 47.1956 10.0417 46.8623 10.475C46.5456 10.9083 46.3873 11.525 46.3873 12.325V16.975C46.3873 17.7083 46.1956 18.2667 45.8123 18.65C45.429 19.0333 44.879 19.225 44.1623 19.225C43.4456 19.225 42.8956 19.0333 42.5123 18.65C42.129 18.2667 41.9373 17.7083 41.9373 16.975V11.85C41.9373 11.1333 41.829 10.6167 41.6123 10.3C41.3956 9.98333 41.0373 9.825 40.5373 9.825C39.9373 9.825 39.4706 10.0417 39.1373 10.475C38.8206 10.9083 38.6623 11.525 38.6623 12.325V16.975C38.6623 18.475 37.9123 19.225 36.4123 19.225ZM58.0709 19C57.4709 19 57.0209 18.8083 56.7209 18.425C56.4209 18.0417 56.2876 17.5833 56.3209 17.05C56.3709 16.5 56.6126 15.9917 57.0459 15.525L61.9459 9.975H57.8959C56.7959 9.975 56.2459 9.425 56.2459 8.325C56.2459 7.24167 56.7959 6.7 57.8959 6.7H64.9709C65.6376 6.7 66.1376 6.89167 66.4709 7.275C66.8042 7.65833 66.9542 8.11667 66.9209 8.65C66.8876 9.18333 66.6542 9.68333 66.2209 10.15L61.2959 15.725H65.5959C66.7126 15.725 67.2709 16.2667 67.2709 17.35C67.2709 18.45 66.7126 19 65.5959 19H58.0709ZM73.0564 19.275C72.1064 19.275 71.2648 19.1 70.5314 18.75C69.8148 18.4 69.2481 17.925 68.8314 17.325C68.4314 16.7083 68.2314 16.0083 68.2314 15.225C68.2314 14.3417 68.4648 13.6417 68.9314 13.125C69.3981 12.5917 70.1481 12.2167 71.1814 12C72.2148 11.7667 73.5898 11.65 75.3064 11.65H76.2564V11.3C76.2564 10.7 76.0981 10.275 75.7814 10.025C75.4814 9.775 74.9564 9.65 74.2064 9.65C73.7898 9.65 73.3314 9.7 72.8314 9.8C72.3481 9.88333 71.7981 10.0417 71.1814 10.275C70.6314 10.475 70.1731 10.4667 69.8064 10.25C69.4398 10.0333 69.1981 9.725 69.0814 9.325C68.9814 8.90833 69.0231 8.5 69.2064 8.1C69.4064 7.68333 69.7814 7.375 70.3314 7.175C71.1314 6.89167 71.8648 6.7 72.5314 6.6C73.2148 6.48333 73.8398 6.425 74.4064 6.425C76.4564 6.425 77.9731 6.86667 78.9564 7.75C79.9564 8.63333 80.4564 10.025 80.4564 11.925V16.975C80.4564 18.475 79.7731 19.225 78.4064 19.225C77.1064 19.225 76.4148 18.5583 76.3314 17.225C76.0981 17.8583 75.6981 18.3583 75.1314 18.725C74.5648 19.0917 73.8731 19.275 73.0564 19.275ZM74.0564 16.375C74.6731 16.375 75.1898 16.175 75.6064 15.775C76.0398 15.375 76.2564 14.85 76.2564 14.2V13.75H75.3064C74.3231 13.75 73.5981 13.8583 73.1314 14.075C72.6814 14.275 72.4564 14.6 72.4564 15.05C72.4564 15.4333 72.5898 15.75 72.8564 16C73.1398 16.25 73.5398 16.375 74.0564 16.375ZM92.5688 19.225C91.9021 19.225 91.3854 19.0417 91.0188 18.675C90.6688 18.3083 90.4937 17.7917 90.4937 17.125V3.25C90.4937 2.56667 90.6854 2.05 91.0688 1.7C91.4521 1.33333 91.9938 1.15 92.6938 1.15C93.2604 1.15 93.7188 1.26667 94.0688 1.5C94.4188 1.71667 94.7354 2.08333 95.0188 2.6L99.9438 11.475L104.869 2.6C105.169 2.08333 105.485 1.71667 105.819 1.5C106.169 1.26667 106.635 1.15 107.219 1.15C107.869 1.15 108.377 1.33333 108.744 1.7C109.11 2.05 109.294 2.56667 109.294 3.25V17.125C109.294 17.7917 109.119 18.3083 108.769 18.675C108.419 19.0417 107.902 19.225 107.219 19.225C106.552 19.225 106.035 19.0417 105.669 18.675C105.319 18.3083 105.144 17.7917 105.144 17.125V9.425L101.644 15.525C101.41 15.8917 101.16 16.1667 100.894 16.35C100.644 16.5333 100.302 16.625 99.8688 16.625C99.4521 16.625 99.1104 16.5333 98.8438 16.35C98.5771 16.1667 98.3354 15.8917 98.1188 15.525L94.6438 9.525V17.125C94.6438 17.7917 94.4688 18.3083 94.1188 18.675C93.7688 19.0417 93.2521 19.225 92.5688 19.225ZM116.513 19.275C115.563 19.275 114.722 19.1 113.988 18.75C113.272 18.4 112.705 17.925 112.288 17.325C111.888 16.7083 111.688 16.0083 111.688 15.225C111.688 14.3417 111.922 13.6417 112.388 13.125C112.855 12.5917 113.605 12.2167 114.638 12C115.672 11.7667 117.047 11.65 118.763 11.65H119.713V11.3C119.713 10.7 119.555 10.275 119.238 10.025C118.938 9.775 118.413 9.65 117.663 9.65C117.247 9.65 116.788 9.7 116.288 9.8C115.805 9.88333 115.255 10.0417 114.638 10.275C114.088 10.475 113.63 10.4667 113.263 10.25C112.897 10.0333 112.655 9.725 112.538 9.325C112.438 8.90833 112.48 8.5 112.663 8.1C112.863 7.68333 113.238 7.375 113.788 7.175C114.588 6.89167 115.322 6.7 115.988 6.6C116.672 6.48333 117.297 6.425 117.863 6.425C119.913 6.425 121.43 6.86667 122.413 7.75C123.413 8.63333 123.913 10.025 123.913 11.925V16.975C123.913 18.475 123.23 19.225 121.863 19.225C120.563 19.225 119.872 18.5583 119.788 17.225C119.555 17.8583 119.155 18.3583 118.588 18.725C118.022 19.0917 117.33 19.275 116.513 19.275ZM117.513 16.375C118.13 16.375 118.647 16.175 119.063 15.775C119.497 15.375 119.713 14.85 119.713 14.2V13.75H118.763C117.78 13.75 117.055 13.8583 116.588 14.075C116.138 14.275 115.913 14.6 115.913 15.05C115.913 15.4333 116.047 15.75 116.313 16C116.597 16.25 116.997 16.375 117.513 16.375ZM128.772 4.7C127.972 4.7 127.356 4.51667 126.922 4.15C126.506 3.78333 126.297 3.25 126.297 2.55C126.297 1.86667 126.506 1.34167 126.922 0.975C127.356 0.608333 127.972 0.424999 128.772 0.424999C130.422 0.424999 131.247 1.13333 131.247 2.55C131.247 3.25 131.031 3.78333 130.597 4.15C130.181 4.51667 129.572 4.7 128.772 4.7ZM125.722 23.675C125.072 23.6917 124.589 23.55 124.272 23.25C123.956 22.95 123.781 22.6 123.747 22.2C123.714 21.8 123.806 21.4333 124.022 21.1C124.239 20.7833 124.564 20.6 124.997 20.55C125.547 20.5 125.947 20.35 126.197 20.1C126.447 19.85 126.572 19.4583 126.572 18.925V8.7C126.572 7.98333 126.764 7.43333 127.147 7.05C127.531 6.66667 128.081 6.475 128.797 6.475C130.281 6.475 131.022 7.21667 131.022 8.7V18.5C131.022 20.2 130.589 21.475 129.722 22.325C128.872 23.175 127.539 23.625 125.722 23.675ZM135.825 4.7C135.042 4.7 134.434 4.51667 134 4.15C133.584 3.78333 133.375 3.25 133.375 2.55C133.375 1.86667 133.584 1.34167 134 0.975C134.434 0.608333 135.042 0.424999 135.825 0.424999C137.475 0.424999 138.3 1.13333 138.3 2.55C138.3 3.25 138.084 3.78333 137.65 4.15C137.234 4.51667 136.625 4.7 135.825 4.7ZM135.825 19.225C135.109 19.225 134.559 19.0167 134.175 18.6C133.809 18.1833 133.625 17.5833 133.625 16.8V8.9C133.625 8.11667 133.809 7.51667 134.175 7.1C134.559 6.68333 135.109 6.475 135.825 6.475C136.542 6.475 137.092 6.68333 137.475 7.1C137.875 7.51667 138.075 8.11667 138.075 8.9V16.8C138.075 17.5833 137.884 18.1833 137.5 18.6C137.117 19.0167 136.559 19.225 135.825 19.225ZM145.456 19.275C144.406 19.275 143.473 19.0167 142.656 18.5C141.856 17.9833 141.223 17.2417 140.756 16.275C140.306 15.3083 140.081 14.1667 140.081 12.85C140.081 11.5167 140.306 10.375 140.756 9.425C141.223 8.45833 141.856 7.71667 142.656 7.2C143.473 6.68333 144.406 6.425 145.456 6.425C146.24 6.425 146.956 6.59167 147.606 6.925C148.273 7.24167 148.781 7.65833 149.131 8.175V3.4C149.131 1.9 149.873 1.15 151.356 1.15C152.073 1.15 152.623 1.34167 153.006 1.725C153.39 2.10833 153.581 2.66667 153.581 3.4V16.975C153.581 18.475 152.848 19.225 151.381 19.225C150.065 19.225 149.34 18.6 149.206 17.35C148.873 17.9333 148.365 18.4 147.681 18.75C147.015 19.1 146.273 19.275 145.456 19.275ZM146.881 16C147.548 16 148.098 15.75 148.531 15.25C148.965 14.75 149.181 13.95 149.181 12.85C149.181 11.7333 148.965 10.9333 148.531 10.45C148.098 9.95 147.548 9.7 146.881 9.7C146.198 9.7 145.64 9.95 145.206 10.45C144.773 10.9333 144.556 11.7333 144.556 12.85C144.556 13.95 144.773 14.75 145.206 15.25C145.64 15.75 146.198 16 146.881 16ZM16.65 55.225C16.95 55.725 17.0583 56.175 16.975 56.575C16.8917 56.9917 16.6833 57.3417 16.35 57.625C16.0333 57.9083 15.65 58.0917 15.2 58.175C14.7667 58.2583 14.3333 58.2167 13.9 58.05C13.4667 57.9 13.1083 57.5833 12.825 57.1L10.975 54.125C10.625 53.5583 9.99167 53.275 9.075 53.275C7.29167 53.275 5.725 52.9 4.375 52.15C3.04167 51.3833 2 50.3167 1.25 48.95C0.516667 47.5833 0.15 45.9917 0.15 44.175C0.15 42.3417 0.516667 40.75 1.25 39.4C2 38.0333 3.05 36.975 4.4 36.225C5.75 35.475 7.31667 35.1 9.1 35.1C10.8833 35.1 12.4417 35.475 13.775 36.225C15.125 36.975 16.175 38.0333 16.925 39.4C17.675 40.75 18.05 42.3417 18.05 44.175C18.05 46.0083 17.6667 47.6167 16.9 49C16.15 50.3667 15.1 51.4167 13.75 52.15C14.5667 52.3833 15.225 52.9167 15.725 53.75L16.65 55.225ZM9.1 49.425C10.4 49.425 11.4167 48.9667 12.15 48.05C12.9 47.1167 13.275 45.825 13.275 44.175C13.275 42.525 12.9083 41.2417 12.175 40.325C11.4417 39.4083 10.4167 38.95 9.1 38.95C7.78333 38.95 6.75833 39.4083 6.025 40.325C5.29167 41.2417 4.925 42.525 4.925 44.175C4.925 45.825 5.29167 47.1167 6.025 48.05C6.75833 48.9667 7.78333 49.425 9.1 49.425ZM25.066 53.275C23.466 53.275 22.2827 52.8417 21.516 51.975C20.766 51.0917 20.391 49.75 20.391 47.95V42.7C20.391 41.2167 21.1327 40.475 22.616 40.475C23.3327 40.475 23.8827 40.6667 24.266 41.05C24.6493 41.4333 24.841 41.9833 24.841 42.7V48.075C24.841 49.275 25.3577 49.875 26.391 49.875C26.991 49.875 27.4827 49.6583 27.866 49.225C28.2493 48.7917 28.441 48.2167 28.441 47.5V42.7C28.441 41.2167 29.1827 40.475 30.666 40.475C31.3827 40.475 31.9327 40.6667 32.316 41.05C32.6993 41.4333 32.891 41.9833 32.891 42.7V50.975C32.891 52.475 32.1743 53.225 30.741 53.225C29.4577 53.225 28.7327 52.625 28.566 51.425C27.766 52.6583 26.5993 53.275 25.066 53.275ZM37.7557 53.225C36.239 53.225 35.4807 52.475 35.4807 50.975V42.7C35.4807 41.2167 36.2057 40.475 37.6557 40.475C38.339 40.475 38.864 40.6667 39.2307 41.05C39.614 41.4333 39.8057 41.9833 39.8057 42.7V42.775C40.089 42.0583 40.5473 41.4917 41.1807 41.075C41.814 40.6583 42.564 40.4417 43.4307 40.425C43.914 40.4083 44.2723 40.5333 44.5057 40.8C44.7557 41.05 44.889 41.525 44.9057 42.225C44.9057 42.825 44.7807 43.3 44.5307 43.65C44.2807 44 43.8057 44.2083 43.1057 44.275L42.5307 44.325C41.6473 44.4083 41.0057 44.6583 40.6057 45.075C40.2057 45.475 40.0057 46.075 40.0057 46.875V50.975C40.0057 52.475 39.2557 53.225 37.7557 53.225ZM52.8008 53.275C51.3008 53.275 50.0008 53.0167 48.9008 52.5C47.8174 51.9667 46.9841 51.2167 46.4008 50.25C45.8174 49.2833 45.5258 48.1417 45.5258 46.825C45.5258 45.575 45.8008 44.4667 46.3508 43.5C46.9174 42.5333 47.6841 41.7833 48.6508 41.25C49.6341 40.7 50.7508 40.425 52.0008 40.425C53.2341 40.425 54.3008 40.6833 55.2008 41.2C56.1174 41.7167 56.8174 42.4583 57.3008 43.425C57.8008 44.375 58.0508 45.4917 58.0508 46.775C58.0508 47.425 57.6674 47.75 56.9008 47.75H49.7758C49.9258 48.55 50.2591 49.125 50.7758 49.475C51.2924 49.825 52.0091 50 52.9258 50C53.2758 50 53.6924 49.9583 54.1758 49.875C54.6591 49.7917 55.1174 49.6583 55.5508 49.475C56.0841 49.275 56.5341 49.275 56.9008 49.475C57.2674 49.6583 57.5091 49.95 57.6258 50.35C57.7591 50.7333 57.7424 51.1333 57.5758 51.55C57.4258 51.95 57.1174 52.2583 56.6508 52.475C56.0674 52.7583 55.4424 52.9583 54.7758 53.075C54.1258 53.2083 53.4674 53.275 52.8008 53.275ZM52.2008 43.3C51.5341 43.3 50.9841 43.5 50.5508 43.9C50.1341 44.3 49.8674 44.8833 49.7508 45.65H54.4008C54.3508 44.8667 54.1341 44.2833 53.7508 43.9C53.3841 43.5 52.8674 43.3 52.2008 43.3ZM64.868 53.275C64.118 53.275 63.368 53.2167 62.618 53.1C61.868 52.9833 61.1846 52.7917 60.568 52.525C60.0513 52.325 59.7096 52.0333 59.543 51.65C59.393 51.2667 59.3763 50.8833 59.493 50.5C59.6263 50.1167 59.8596 49.825 60.193 49.625C60.5263 49.425 60.9263 49.4083 61.393 49.575C62.0763 49.825 62.7013 50.0083 63.268 50.125C63.8346 50.225 64.3763 50.275 64.893 50.275C65.5096 50.275 65.9513 50.1917 66.218 50.025C66.4846 49.8417 66.618 49.6083 66.618 49.325C66.618 49.075 66.5263 48.8917 66.343 48.775C66.1763 48.6417 65.9346 48.5417 65.618 48.475L62.843 48.025C61.8096 47.8583 61.0096 47.4833 60.443 46.9C59.8763 46.3167 59.593 45.5583 59.593 44.625C59.593 43.7583 59.8346 43.0167 60.318 42.4C60.8013 41.7667 61.4763 41.2833 62.343 40.95C63.2096 40.6 64.2013 40.425 65.318 40.425C66.068 40.425 66.7513 40.4833 67.368 40.6C67.9846 40.7167 68.5846 40.9083 69.168 41.175C69.618 41.3583 69.9013 41.6417 70.018 42.025C70.1513 42.4083 70.143 42.7917 69.993 43.175C69.8596 43.5417 69.618 43.825 69.268 44.025C68.9346 44.2083 68.5263 44.2083 68.043 44.025C67.493 43.8083 67.0013 43.65 66.568 43.55C66.1513 43.45 65.7596 43.4 65.393 43.4C64.7096 43.4 64.2263 43.5 63.943 43.7C63.6596 43.8833 63.518 44.1083 63.518 44.375C63.518 44.825 63.8263 45.1 64.443 45.2L67.218 45.675C68.2846 45.8417 69.1013 46.2083 69.668 46.775C70.2513 47.325 70.543 48.075 70.543 49.025C70.543 50.375 70.0263 51.425 68.993 52.175C67.9596 52.9083 66.5846 53.275 64.868 53.275ZM74.5703 53.225C73.8536 53.225 73.3036 53.0333 72.9203 52.65C72.5536 52.2667 72.3703 51.7083 72.3703 50.975V37.4C72.3703 35.9 73.1036 35.15 74.5703 35.15C75.287 35.15 75.837 35.3417 76.2203 35.725C76.6203 36.1083 76.8203 36.6667 76.8203 37.4V42.225C77.7036 41.025 78.987 40.425 80.6703 40.425C82.137 40.425 83.2203 40.8583 83.9203 41.725C84.637 42.5917 84.9953 43.925 84.9953 45.725V50.975C84.9953 51.7083 84.8036 52.2667 84.4203 52.65C84.037 53.0333 83.487 53.225 82.7703 53.225C82.0536 53.225 81.5036 53.0333 81.1203 52.65C80.737 52.2667 80.5453 51.7083 80.5453 50.975V45.9C80.5453 45.15 80.412 44.6167 80.1453 44.3C79.8953 43.9833 79.5203 43.825 79.0203 43.825C78.3536 43.825 77.8203 44.0417 77.4203 44.475C77.0203 44.8917 76.8203 45.4583 76.8203 46.175V50.975C76.8203 52.475 76.0703 53.225 74.5703 53.225ZM89.7314 38.7C88.9481 38.7 88.3398 38.5167 87.9064 38.15C87.4898 37.7833 87.2814 37.25 87.2814 36.55C87.2814 35.8667 87.4898 35.3417 87.9064 34.975C88.3398 34.6083 88.9481 34.425 89.7314 34.425C91.3814 34.425 92.2064 35.1333 92.2064 36.55C92.2064 37.25 91.9898 37.7833 91.5564 38.15C91.1398 38.5167 90.5314 38.7 89.7314 38.7ZM89.7314 53.225C89.0148 53.225 88.4648 53.0167 88.0814 52.6C87.7148 52.1833 87.5314 51.5833 87.5314 50.8V42.9C87.5314 42.1167 87.7148 41.5167 88.0814 41.1C88.4648 40.6833 89.0148 40.475 89.7314 40.475C90.4481 40.475 90.9981 40.6833 91.3814 41.1C91.7814 41.5167 91.9814 42.1167 91.9814 42.9V50.8C91.9814 51.5833 91.7898 52.1833 91.4064 52.6C91.0231 53.0167 90.4648 53.225 89.7314 53.225Z" fill="#211A52"/>
</svg>
