<svg width="47" height="10" viewBox="0 0 47 10" fill="none" xmlns="http://www.w3.org/2000/svg">
<path d="M0.464 9.072C0.224 9.072 0.104 8.944 0.104 8.688V0.84C0.104 0.592 0.224 0.468 0.464 0.468C0.712 0.468 0.836 0.592 0.836 0.84V4.428H0.86L4.976 0.684C5.144 0.54 5.312 0.468 5.48 0.468C5.64 0.468 5.74 0.524 5.78 0.636C5.82 0.74 5.78 0.848 5.66 0.96L1.556 4.668L5.864 8.508C6.008 8.644 6.052 8.772 5.996 8.892C5.948 9.012 5.844 9.072 5.684 9.072C5.588 9.072 5.504 9.052 5.432 9.012C5.368 8.98 5.292 8.924 5.204 8.844L0.86 4.98H0.836V8.688C0.836 8.944 0.712 9.072 0.464 9.072ZM10.4738 9.096C9.69778 9.096 9.02578 8.92 8.45778 8.568C7.89778 8.216 7.46178 7.716 7.14978 7.068C6.84578 6.42 6.69378 5.652 6.69378 4.764C6.69378 3.876 6.84578 3.108 7.14978 2.46C7.45378 1.812 7.88978 1.316 8.45778 0.972C9.02578 0.619999 9.69778 0.443999 10.4738 0.443999C11.2578 0.443999 11.9298 0.619999 12.4898 0.972C13.0578 1.316 13.4938 1.812 13.7978 2.46C14.1098 3.1 14.2658 3.864 14.2658 4.752C14.2658 5.648 14.1098 6.42 13.7978 7.068C13.4938 7.716 13.0578 8.216 12.4898 8.568C11.9218 8.92 11.2498 9.096 10.4738 9.096ZM10.4738 8.424C11.4258 8.424 12.1658 8.104 12.6938 7.464C13.2218 6.824 13.4858 5.924 13.4858 4.764C13.4858 3.604 13.2218 2.708 12.6938 2.076C12.1738 1.436 11.4338 1.116 10.4738 1.116C9.52178 1.116 8.78178 1.436 8.25378 2.076C7.73378 2.716 7.47378 3.612 7.47378 4.764C7.47378 5.916 7.73378 6.816 8.25378 7.464C8.78178 8.104 9.52178 8.424 10.4738 8.424ZM16.4953 9.072C16.2553 9.072 16.1353 8.944 16.1353 8.688V0.924C16.1353 0.668 16.2593 0.539999 16.5073 0.539999H19.3273C20.2313 0.539999 20.9193 0.747999 21.3913 1.164C21.8713 1.58 22.1113 2.172 22.1113 2.94C22.1113 3.572 21.9393 4.084 21.5953 4.476C21.2513 4.868 20.7633 5.12 20.1313 5.232C20.4753 5.36 20.7793 5.672 21.0433 6.168L22.3153 8.532C22.3873 8.668 22.3993 8.792 22.3513 8.904C22.3113 9.016 22.2233 9.072 22.0872 9.072C21.8953 9.072 21.7513 8.98 21.6553 8.796L20.3113 6.288C20.1033 5.912 19.8713 5.66 19.6153 5.532C19.3593 5.404 19.0153 5.34 18.5833 5.34H16.8673V8.688C16.8673 8.944 16.7433 9.072 16.4953 9.072ZM16.8673 4.716H19.2313C20.6553 4.716 21.3672 4.124 21.3672 2.94C21.3672 1.764 20.6553 1.176 19.2313 1.176H16.8673V4.716ZM26.2945 9.072C26.0465 9.072 25.9225 8.944 25.9225 8.688V1.2H23.0545C22.8145 1.2 22.6945 1.088 22.6945 0.864C22.6945 0.648 22.8145 0.539999 23.0545 0.539999H29.5465C29.7785 0.539999 29.8945 0.648 29.8945 0.864C29.8945 1.088 29.7785 1.2 29.5465 1.2H26.6665V8.688C26.6665 8.944 26.5425 9.072 26.2945 9.072ZM31.3075 9.072C31.0755 9.072 30.9595 8.948 30.9595 8.7V0.852C30.9595 0.596 31.0635 0.468 31.2715 0.468C31.3675 0.468 31.4395 0.484 31.4875 0.516C31.5435 0.548 31.5995 0.608 31.6555 0.696L36.8995 7.752V0.827999C36.8995 0.588 37.0155 0.468 37.2475 0.468C37.4715 0.468 37.5835 0.588 37.5835 0.827999V8.7C37.5835 8.948 37.4835 9.072 37.2835 9.072C37.1315 9.072 36.9995 8.996 36.8875 8.844L31.6435 1.776V8.7C31.6435 8.948 31.5315 9.072 31.3075 9.072ZM40.1554 9.072C39.9154 9.072 39.7954 8.944 39.7954 8.688V0.924C39.7954 0.668 39.9194 0.539999 40.1674 0.539999H42.9874C43.8914 0.539999 44.5794 0.747999 45.0514 1.164C45.5314 1.58 45.7714 2.172 45.7714 2.94C45.7714 3.572 45.5994 4.084 45.2554 4.476C44.9114 4.868 44.4234 5.12 43.7914 5.232C44.1354 5.36 44.4394 5.672 44.7034 6.168L45.9754 8.532C46.0474 8.668 46.0594 8.792 46.0114 8.904C45.9714 9.016 45.8834 9.072 45.7474 9.072C45.5554 9.072 45.4114 8.98 45.3154 8.796L43.9714 6.288C43.7634 5.912 43.5314 5.66 43.2754 5.532C43.0194 5.404 42.6754 5.34 42.2434 5.34H40.5274V8.688C40.5274 8.944 40.4034 9.072 40.1554 9.072ZM40.5274 4.716H42.8914C44.3154 4.716 45.0274 4.124 45.0274 2.94C45.0274 1.764 44.3154 1.176 42.8914 1.176H40.5274V4.716Z" fill="#211A52"/>
</svg>
