<svg width="153" height="43" viewBox="0 0 153 43" fill="none" xmlns="http://www.w3.org/2000/svg">
<path d="M22.3724 10.0495H25.6031C25.6894 10.0495 25.7176 10.0066 25.6894 9.9233L24.0412 4.41409C24.0262 4.35675 24.0037 4.33282 23.9756 4.33802C23.9474 4.346 23.9249 4.36974 23.9098 4.41409L22.2842 9.9233C22.2692 10.0066 22.2992 10.0495 22.3724 10.0495ZM27.1405 14.7868L26.5773 12.8769C26.5492 12.8218 26.5116 12.7936 26.4703 12.7936H21.5258C21.4826 12.7936 21.447 12.8218 21.4169 12.8769L20.8538 14.7868C20.8106 14.9274 20.7092 15 20.5497 15H17.2345C17.1482 15 17.0825 14.9738 17.0374 14.9237C16.9961 14.876 16.9886 14.8013 17.0168 14.699L21.6553 0.213015C21.7004 0.0723672 21.7924 1.66765e-07 21.9388 1.66765e-07H26.0348C26.1794 1.66765e-07 26.2732 0.0723672 26.3183 0.213015L30.9775 14.699C30.9925 14.7274 31 14.7643 31 14.807C31 14.9347 30.9212 15 30.7616 15H27.4446C27.285 15 27.1837 14.9274 27.1405 14.7868" fill="white"/>
<path d="M41.3735 10.0495H44.6026C44.6889 10.0495 44.7189 10.0066 44.6889 9.9233L43.0406 4.41409C43.0275 4.35675 43.0049 4.33282 42.9768 4.33802C42.9486 4.346 42.9261 4.36974 42.911 4.41409L41.2852 9.9233C41.2702 10.0066 41.3003 10.0495 41.3735 10.0495V10.0495ZM46.142 14.7868L45.5788 12.8769C45.5487 12.8218 45.5131 12.7936 45.4699 12.7936H40.5268C40.4836 12.7936 40.4479 12.8218 40.4179 12.8769L39.8547 14.7868C39.8115 14.9274 39.7101 15 39.5506 15H36.2333C36.1488 15 36.0812 14.9738 36.038 14.9237C35.9948 14.876 35.9892 14.8013 36.0173 14.699L40.6563 0.213015C40.6995 0.0723672 40.7934 1.66765e-07 40.9379 1.66765e-07H45.0362C45.1808 1.66765e-07 45.2747 0.0723672 45.3178 0.213015L49.9794 14.699C49.9944 14.7274 50 14.7643 50 14.807C50 14.9347 49.9211 15 49.7616 15H46.4461C46.2866 15 46.1852 14.9274 46.142 14.7868" fill="white"/>
<path d="M55.0778 14.9237C55.0266 14.876 55 14.8144 55 14.7419V0.25792C55 0.185555 55.0266 0.124697 55.0778 0.0760827C55.129 0.0259837 55.1916 1.66765e-07 55.2637 1.66765e-07H58.377C58.4491 1.66765e-07 58.5098 0.0259837 58.5611 0.0760827C58.6142 0.124697 58.6389 0.185555 58.6389 0.25792V11.8514C58.6389 11.9217 58.6749 11.9549 58.7489 11.9549H65.7382C65.8103 11.9549 65.8729 11.9811 65.9241 12.0312C65.9754 12.0833 66 12.1442 66 12.213V14.7419C66 14.8144 65.9754 14.876 65.9241 14.9237C65.8729 14.9738 65.8103 15 65.7382 15H55.2637C55.1916 15 55.129 14.9738 55.0778 14.9237" fill="white"/>
<path d="M79.082 11.5396C79.3886 11.2743 79.5401 10.8939 79.5401 10.3944C79.5401 9.90808 79.3922 9.53197 79.0928 9.26663C78.7951 9.005 78.3604 8.87085 77.7922 8.87085H75.5626C75.4923 8.87085 75.4598 8.90852 75.4598 8.97885V11.8289C75.4598 11.9013 75.4923 11.9369 75.5626 11.9369H77.7922C78.346 11.9369 78.7771 11.8028 79.082 11.5396ZM75.4598 3.14844V5.8484C75.4598 5.92095 75.4923 5.95788 75.5626 5.95788H77.6245C78.1945 5.95788 78.631 5.83171 78.9359 5.58177C79.2425 5.3309 79.3959 4.98021 79.3959 4.51985C79.3959 4.05097 79.2425 3.68487 78.9359 3.42899C78.631 3.17107 78.1945 3.04268 77.6245 3.04268H75.5626C75.4923 3.04268 75.4598 3.07831 75.4598 3.14844V3.14844ZM81.1023 7.32781C82.3686 8.01416 83 9.15865 83 10.7561C83 12.1856 82.5219 13.2502 81.5623 13.9496C80.6044 14.6491 79.3471 15 77.7922 15H72.2489C72.1804 15 72.1208 14.9738 72.0739 14.9237C72.0234 14.876 72 14.8144 72 14.7419V0.25792C72 0.185555 72.0234 0.124697 72.0739 0.0760827C72.1208 0.0259837 72.1804 1.66765e-07 72.2489 1.66765e-07H77.6245C79.3183 1.66765e-07 80.6009 0.330465 81.4685 0.984905C82.3362 1.64231 82.7691 2.7072 82.7691 4.17843C82.7691 5.57731 82.2153 6.5856 81.1023 7.20089C81.0212 7.24226 81.0212 7.28494 81.1023 7.32781" fill="white"/>
<path d="M96.6969 12.1497C97.1277 11.6912 97.3451 11.0724 97.3451 10.3016V5.69396C97.3451 4.93892 97.1277 4.32765 96.6969 3.85937C96.2622 3.39109 95.694 3.15772 94.9886 3.15772C94.2984 3.15772 93.7378 3.39109 93.3051 3.85937C92.8723 4.32765 92.6549 4.93892 92.6549 5.69396V10.3016C92.6549 11.0724 92.8723 11.6912 93.3051 12.1497C93.7378 12.6087 94.2984 12.84 94.9886 12.84C95.694 12.84 96.2622 12.6087 96.6969 12.1497ZM91.8523 15.2773C90.9486 14.7956 90.2469 14.1159 89.7474 13.2404C89.2498 12.3642 89 11.3478 89 10.1916V5.74059C89 4.61517 89.2498 3.61482 89.7474 2.74764C90.2469 1.87891 90.9486 1.20443 91.8523 0.722657C92.7541 0.240886 93.7989 5.15556e-08 94.9886 5.15556e-08C96.1783 5.15556e-08 97.2269 0.240886 98.1382 0.722657C99.0477 1.20443 99.7512 1.87891 100.251 2.74764C100.75 3.61482 101 4.61517 101 5.74059V10.1916C101 11.3478 100.75 12.3642 100.251 13.2404C99.7512 14.1159 99.0477 14.7956 98.1382 15.2773C97.2269 15.7591 96.1783 16 94.9886 16C93.7989 16 92.7541 15.7591 91.8523 15.2773Z" fill="white"/>
<path d="M110.408 3.14844V6.19353C110.408 6.26441 110.44 6.2993 110.51 6.2993H112.788C113.294 6.2993 113.703 6.1529 114.019 5.8601C114.334 5.5686 114.492 5.17875 114.492 4.69242C114.492 4.19365 114.334 3.79287 114.019 3.49431C113.703 3.19354 113.294 3.04268 112.788 3.04268H110.51C110.44 3.04268 110.408 3.07831 110.408 3.14844V3.14844ZM114.41 14.807L111.986 9.10725C111.96 9.04917 111.919 9.01948 111.864 9.01948H110.51C110.44 9.01948 110.408 9.05641 110.408 9.12896V14.7419C110.408 14.8144 110.384 14.876 110.336 14.9237C110.286 14.9738 110.229 15 110.161 15H107.245C107.178 15 107.119 14.9738 107.073 14.9237C107.023 14.876 107 14.8144 107 14.7419V0.25792C107 0.185555 107.023 0.124697 107.073 0.0760827C107.119 0.0259837 107.178 1.66765e-07 107.245 1.66765e-07H113.342C114.245 1.66765e-07 115.038 0.191306 115.722 0.576882C116.408 0.964685 116.937 1.5104 117.312 2.21716C117.689 2.92449 117.877 3.73701 117.877 4.64955C117.877 5.6057 117.652 6.43697 117.2 7.1365C116.749 7.83585 116.12 8.34259 115.311 8.65785C115.242 8.68753 115.224 8.73614 115.249 8.80647L117.959 14.699C117.986 14.7571 118 14.8013 118 14.8297C118 14.9427 117.925 15 117.774 15H114.696C114.56 15 114.464 14.9347 114.41 14.807" fill="white"/>
<path d="M126.616 15.2857C125.789 14.8095 125.146 14.1382 124.688 13.2749C124.229 12.4079 124 11.4115 124 10.2792V5.69895C124 4.56648 124.229 3.57179 124.688 2.7145C125.146 1.8572 125.789 1.18975 126.616 0.713497C127.444 0.237245 128.405 -1.41306e-07 129.5 -1.41306e-07C130.58 -1.41306e-07 131.538 0.226027 132.373 0.680992C133.207 1.13383 133.856 1.75676 134.312 2.54826C134.771 3.33821 135 4.20672 135 5.16078V5.27341C135 5.34811 134.975 5.41022 134.929 5.46073C134.881 5.5153 134.822 5.54027 134.753 5.54027H131.84C131.771 5.54027 131.714 5.5153 131.664 5.46073C131.618 5.41022 131.593 5.34811 131.593 5.27341C131.593 4.69053 131.405 4.19531 131.03 3.7864C130.653 3.37672 130.143 3.17101 129.5 3.17101C128.871 3.17101 128.364 3.39569 127.982 3.84466C127.599 4.28994 127.407 4.87263 127.407 5.58633V10.3895C127.407 11.104 127.62 11.6859 128.043 12.1335C128.466 12.5824 129.001 12.8048 129.642 12.8048C130.245 12.8048 130.732 12.6308 131.101 12.2802C131.471 11.9278 131.654 11.4403 131.654 10.815V10.19C131.654 10.1151 131.622 10.0781 131.553 10.0781H129.5C129.431 10.0781 129.374 10.0531 129.326 10.0009C129.276 9.94806 129.255 9.88459 129.255 9.81125V7.35142C129.255 7.27575 129.276 7.21383 129.326 7.16177C129.374 7.10952 129.431 7.08223 129.5 7.08223H134.753C134.822 7.08223 134.881 7.10952 134.929 7.16177C134.975 7.21383 135 7.27575 135 7.35142V10.3895C135 11.5082 134.771 12.4911 134.312 13.343C133.856 14.1881 133.211 14.8464 132.382 15.3068C131.556 15.7695 130.595 16 129.5 16C128.405 16 127.444 15.762 126.616 15.2857Z" fill="white"/>
<path d="M2.87135 42.3112C1.96297 41.8511 1.25729 41.1998 0.754363 40.3582C0.251438 39.5126 0 38.542 0 37.4404V27.2706C0 27.1957 0.0272734 27.1331 0.0799051 27.0802C0.132537 27.026 0.196861 27 0.270935 27H3.46785C3.54388 27 3.60625 27.026 3.65888 27.0802C3.71152 27.1331 3.73684 27.1957 3.73684 27.2706V37.4404C3.73684 38.149 3.9454 38.7177 4.35671 39.1488C4.76997 39.577 5.32162 39.7924 6.01168 39.7924C6.68615 39.7924 7.23003 39.577 7.64329 39.1488C8.05655 38.7177 8.26316 38.149 8.26316 37.4404V27.2706C8.26316 27.1957 8.28853 27.1331 8.34311 27.0802C8.3938 27.026 8.45812 27 8.53219 27H11.7291C11.8051 27 11.8675 27.026 11.922 27.0802C11.9727 27.1331 12 27.1957 12 27.2706V37.4404C12 38.542 11.7525 39.5126 11.2573 40.3582C10.7622 41.1998 10.0585 41.8511 9.15206 42.3112C8.24368 42.7706 7.19687 43 6.01168 43C4.82649 43 3.77973 42.7706 2.87135 42.3112" fill="white"/>
<path d="M26.5377 27.0811C26.5857 27.0263 26.6466 27 26.7167 27H29.7453C29.8154 27 29.8745 27.0263 29.9261 27.0811C29.976 27.1346 30 27.1979 30 27.2737V42.7247C30 42.8021 29.976 42.8678 29.9261 42.9188C29.8745 42.9745 29.8154 43 29.7453 43H26.8459C26.7019 43 26.6041 42.9388 26.5469 42.8183L21.645 34.0858C21.6173 34.0401 21.5878 34.0209 21.5583 34.0286C21.5306 34.0363 21.5177 34.0704 21.5177 34.1313L21.5398 42.7247C21.5398 42.8021 21.514 42.8678 21.4642 42.9188C21.4125 42.9745 21.3534 43 21.2833 43H18.2547C18.1845 43 18.1236 42.9745 18.0757 42.9188C18.024 42.8678 18 42.8021 18 42.7247V27.2737C18 27.1979 18.024 27.1346 18.0757 27.0811C18.1236 27.0263 18.1845 27 18.2547 27H21.1762C21.3184 27 21.4162 27.0619 21.4734 27.1825L26.355 35.891C26.3845 35.9366 26.4122 35.956 26.4399 35.9482C26.4694 35.9405 26.4823 35.9065 26.4823 35.8453L26.462 27.2737C26.462 27.1979 26.486 27.1346 26.5377 27.0811" fill="white"/>
<path d="M36.0855 42.9188C36.0292 42.8678 36 42.8021 36 42.7247V27.2737C36 27.1979 36.0292 27.1346 36.0855 27.0811C36.1418 27.0263 36.2106 27 36.2899 27H39.7122C39.7915 27 39.8582 27.0263 39.9145 27.0811C39.9729 27.1346 40 27.1979 40 27.2737V42.7247C40 42.8021 39.9729 42.8678 39.9145 42.9188C39.8582 42.9745 39.7915 43 39.7122 43H36.2899C36.2106 43 36.1418 42.9745 36.0855 42.9188Z" fill="white"/>
<path d="M49.4969 42.7704L45.023 27.3208L45 27.228C45 27.0774 45.0806 27 45.2436 27H48.6317C48.7947 27 48.8983 27.0774 48.9444 27.228L51.4921 37.6306C51.5055 37.6739 51.5266 37.6979 51.5573 37.6979C51.5861 37.6979 51.6091 37.6739 51.6245 37.6306L54.1281 27.228C54.1722 27.0774 54.2758 27 54.4389 27H57.7617C57.8499 27 57.9152 27.0301 57.9612 27.0912C58.0053 27.1546 58.0111 27.228 57.9823 27.3208L53.4393 42.7704C53.3971 42.9226 53.2993 43 53.1535 43H49.7847C49.6369 43 49.541 42.9226 49.4969 42.7704" fill="white"/>
<path d="M73.9234 30.1652C73.8716 30.2186 73.8084 30.2463 73.7356 30.2463H66.7868C66.712 30.2463 66.6756 30.2859 66.6756 30.3609V33.1734C66.6756 33.2484 66.712 33.284 66.7868 33.284H71.2347C71.3075 33.284 71.3688 33.3119 71.4225 33.3652C71.4742 33.4208 71.501 33.4843 71.501 33.5593V36.235C71.501 36.3124 71.4742 36.3758 71.4225 36.4276C71.3688 36.4824 71.3075 36.508 71.2347 36.508H66.7868C66.712 36.508 66.6756 36.5481 66.6756 36.6231V39.6391C66.6756 39.7165 66.712 39.7543 66.7868 39.7543H73.7356C73.8084 39.7543 73.8716 39.7822 73.9234 39.8333C73.9751 39.8865 74 39.9522 74 40.0296V42.7247C74 42.8021 73.9751 42.8678 73.9234 42.9188C73.8716 42.9745 73.8084 43 73.7356 43H63.2664C63.1935 43 63.1303 42.9745 63.0786 42.9188C63.0268 42.8678 63 42.8021 63 42.7247V27.2737C63 27.1979 63.0268 27.1346 63.0786 27.0811C63.1303 27.0263 63.1935 27 63.2664 27H73.7356C73.8084 27 73.8716 27.0263 73.9234 27.0811C73.9751 27.1346 74 27.1979 74 27.2737V29.9712C74 30.05 73.9751 30.1135 73.9234 30.1652" fill="white"/>
<path d="M83.4078 30.3609V33.6048C83.4078 33.6822 83.4416 33.7192 83.5109 33.7192H85.787C86.2934 33.7192 86.7038 33.5631 87.02 33.2524C87.3328 32.94 87.4909 32.524 87.4909 32.0052C87.4909 31.4711 87.3328 31.0457 87.02 30.7249C86.7038 30.4041 86.2934 30.2463 85.787 30.2463H83.5109C83.4416 30.2463 83.4078 30.2859 83.4078 30.3609V30.3609ZM87.4091 42.7944L84.9874 36.7144C84.959 36.6526 84.9199 36.6231 84.8648 36.6231H83.5109C83.4416 36.6231 83.4078 36.6612 83.4078 36.736V42.7247C83.4078 42.8021 83.3848 42.8678 83.335 42.9188C83.287 42.9745 83.2302 43 83.1627 43H80.247C80.1795 43 80.1208 42.9745 80.0728 42.9188C80.0249 42.8678 80 42.8021 80 42.7247V27.2737C80 27.1979 80.0249 27.1346 80.0728 27.0811C80.1208 27.0263 80.1795 27 80.247 27H86.3431C87.2457 27 88.0381 27.2056 88.7222 27.6177C89.4063 28.0274 89.9357 28.6113 90.3124 29.365C90.6891 30.1196 90.8756 30.9848 90.8756 31.9581C90.8756 32.9818 90.6518 33.8639 90.2005 34.6099C89.7492 35.3584 89.1184 35.8988 88.3118 36.235C88.2425 36.2653 88.2229 36.3201 88.2496 36.3959L90.9574 42.68C90.9858 42.7409 91 42.7866 91 42.8183C91 42.9388 90.9254 43 90.7744 43H87.6952C87.5584 43 87.4642 42.9311 87.4091 42.7944" fill="white"/>
<path d="M99.6307 42.4096C98.7917 42.015 98.1424 41.448 97.6847 40.7103C97.2271 39.9709 97 39.1198 97 38.1499V37.7267C97 37.6525 97.0213 37.5891 97.0709 37.5368C97.1188 37.4848 97.1756 37.4575 97.2448 37.4575H100.092C100.161 37.4575 100.218 37.4848 100.266 37.5368C100.315 37.5891 100.337 37.6525 100.337 37.7267V37.9935C100.337 38.4849 100.562 38.9149 101.014 39.2785C101.465 39.646 102.073 39.8281 102.838 39.8281C103.437 39.8281 103.881 39.6852 104.17 39.4025C104.456 39.1198 104.599 38.791 104.599 38.4191C104.599 38.1212 104.514 37.8793 104.342 37.6918C104.172 37.5058 103.945 37.3495 103.656 37.2231C103.37 37.0954 102.925 36.9216 102.323 36.6969C102.244 36.6524 102.162 36.6192 102.08 36.5981C101.997 36.5754 101.923 36.5497 101.853 36.5209C100.966 36.2072 100.195 35.8685 99.5385 35.5028C98.8839 35.1368 98.3234 34.6304 97.8586 33.984C97.3938 33.334 97.1614 32.5327 97.1614 31.5802C97.1614 30.6573 97.3832 29.8484 97.8284 29.156C98.2719 28.4628 98.891 27.9291 99.6822 27.5595C100.475 27.1837 101.369 27 102.366 27C103.418 27 104.363 27.2071 105.204 27.6253C106.043 28.0433 106.701 28.629 107.18 29.3896C107.658 30.1522 107.897 31.0207 107.897 32.0057V32.318C107.897 32.3927 107.872 32.457 107.826 32.5069C107.778 32.5599 107.72 32.5847 107.651 32.5847H104.803C104.736 32.5847 104.677 32.5599 104.63 32.5069C104.582 32.457 104.559 32.3927 104.559 32.318V32.163C104.559 31.6407 104.346 31.178 103.924 30.7751C103.5 30.3746 102.932 30.1719 102.222 30.1719C101.69 30.1719 101.273 30.2913 100.974 30.5294C100.672 30.7676 100.523 31.1039 100.523 31.5341C100.523 31.8629 100.619 32.1358 100.809 32.3506C101 32.5675 101.296 32.7686 101.701 32.9559C102.102 33.1419 102.721 33.3837 103.555 33.6816C104.511 34.0376 105.256 34.3513 105.788 34.6182C106.32 34.8874 106.822 35.3228 107.292 35.9268C107.764 36.5323 108 37.3259 108 38.3072C108 39.2748 107.775 40.1108 107.324 40.8092C106.874 41.5115 106.24 42.0498 105.428 42.4307C104.615 42.8102 103.67 43 102.591 43C101.458 43 100.472 42.8026 99.6307 42.4096" fill="white"/>
<path d="M114.086 42.9188C114.029 42.8678 114 42.8021 114 42.7247V27.2737C114 27.1979 114.029 27.1346 114.086 27.0811C114.142 27.0263 114.211 27 114.29 27H117.712C117.791 27 117.858 27.0263 117.914 27.0811C117.973 27.1346 118 27.1979 118 27.2737V42.7247C118 42.8021 117.973 42.8678 117.914 42.9188C117.858 42.9745 117.791 43 117.712 43H114.29C114.211 43 114.142 42.9745 114.086 42.9188Z" fill="white"/>
<path d="M134.924 27.0811C134.975 27.1346 135 27.1979 135 27.2737V29.9951C135 30.0702 134.975 30.1351 134.924 30.1883C134.872 30.2426 134.811 30.2697 134.736 30.2697H130.876C130.801 30.2697 130.767 30.3075 130.767 30.3825V42.7247C130.767 42.8021 130.74 42.8678 130.689 42.9188C130.637 42.9745 130.574 43 130.501 43H127.369C127.294 43 127.233 42.9745 127.181 42.9188C127.128 42.8678 127.105 42.8021 127.105 42.7247V30.3825C127.105 30.3075 127.067 30.2697 126.992 30.2697H123.265C123.191 30.2697 123.13 30.2426 123.076 30.1883C123.027 30.1351 123 30.0702 123 29.9951V27.2737C123 27.1979 123.027 27.1346 123.076 27.0811C123.13 27.0263 123.191 27 123.265 27H134.736C134.811 27 134.872 27.0263 134.924 27.0811" fill="white"/>
<path d="M144.711 42.921C144.659 42.8674 144.632 42.8001 144.632 42.7249V37.292C144.632 37.2323 144.625 37.1851 144.611 37.1571L140.044 27.3217C140.015 27.2582 140 27.2148 140 27.183C140 27.0621 140.083 27 140.247 27H143.676C143.822 27 143.928 27.0699 143.986 27.2062L146.414 33.0067C146.461 33.0982 146.505 33.0982 146.547 33.0067L148.998 27.2062C149.058 27.0699 149.162 27 149.311 27H152.763C152.867 27 152.937 27.0264 152.975 27.0814C153.012 27.135 153.008 27.2148 152.964 27.3217L148.329 37.1571C148.316 37.1851 148.31 37.2323 148.31 37.292V42.7249C148.31 42.8001 148.283 42.8674 148.231 42.921C148.177 42.973 148.115 43 148.042 43H144.9C144.827 43 144.763 42.973 144.711 42.921" fill="white"/>
</svg>
