<svg width="20" height="20" viewBox="0 0 20 20" fill="none" xmlns="http://www.w3.org/2000/svg">
<path d="M18.2499 15.6278L18.061 15.4611C17.5251 14.9837 17.0561 14.4361 16.6666 13.8333C16.2411 13.0014 15.9861 12.0929 15.9166 11.1611V8.41667C15.9202 6.95312 15.3893 5.5386 14.4236 4.43888C13.4579 3.33915 12.1239 2.62993 10.6721 2.44445V1.72778C10.6721 1.53108 10.594 1.34243 10.4549 1.20334C10.3158 1.06425 10.1271 0.986115 9.93045 0.986115C9.73374 0.986115 9.5451 1.06425 9.40601 1.20334C9.26692 1.34243 9.18878 1.53108 9.18878 1.72778V2.45556C7.75003 2.65441 6.4321 3.36792 5.47907 4.46395C4.52605 5.55998 4.00252 6.96425 4.00545 8.41667V11.1611C3.93587 12.0929 3.68088 13.0014 3.25545 13.8333C2.8726 14.4346 2.41111 14.9821 1.88322 15.4611L1.69434 15.6278V17.1944H18.2499V15.6278Z" fill="white"/>
<path d="M8.51123 17.7778C8.55995 18.1299 8.73445 18.4526 9.0025 18.6861C9.27055 18.9196 9.61406 19.0482 9.96956 19.0482C10.3251 19.0482 10.6686 18.9196 10.9366 18.6861C11.2047 18.4526 11.3792 18.1299 11.4279 17.7778H8.51123Z" fill="white"/>
</svg>
