<svg width="71" height="52" viewBox="0 0 71 52" fill="none" xmlns="http://www.w3.org/2000/svg">
<path d="M8.04766 40.4688V49H6.14336L2.9207 43.4863V49H1.01055V40.4688H2.9207L6.14922 45.9824V40.4688H8.04766ZM9.76234 45.8945V45.7715C9.76234 45.3066 9.82875 44.8789 9.96156 44.4883C10.0944 44.0938 10.2897 43.752 10.5475 43.4629C10.8053 43.1738 11.1217 42.9492 11.4967 42.7891C11.8717 42.625 12.3014 42.543 12.7858 42.543C13.278 42.543 13.7116 42.625 14.0866 42.7891C14.4655 42.9492 14.7838 43.1738 15.0416 43.4629C15.2995 43.752 15.4948 44.0938 15.6276 44.4883C15.7604 44.8789 15.8268 45.3066 15.8268 45.7715V45.8945C15.8268 46.3555 15.7604 46.7832 15.6276 47.1777C15.4948 47.5684 15.2995 47.9102 15.0416 48.2031C14.7838 48.4922 14.4674 48.7168 14.0924 48.877C13.7174 49.0371 13.2858 49.1172 12.7975 49.1172C12.3131 49.1172 11.8815 49.0371 11.5026 48.877C11.1237 48.7168 10.8053 48.4922 10.5475 48.2031C10.2897 47.9102 10.0944 47.5684 9.96156 47.1777C9.82875 46.7832 9.76234 46.3555 9.76234 45.8945ZM11.5963 45.7715V45.8945C11.5963 46.1445 11.6159 46.3789 11.6549 46.5977C11.6979 46.8164 11.7663 47.0078 11.86 47.1719C11.9538 47.3359 12.0768 47.4648 12.2291 47.5586C12.3854 47.6484 12.5748 47.6934 12.7975 47.6934C13.0202 47.6934 13.2077 47.6484 13.36 47.5586C13.5123 47.4648 13.6354 47.3359 13.7291 47.1719C13.8229 47.0078 13.8893 46.8164 13.9284 46.5977C13.9713 46.3789 13.9928 46.1445 13.9928 45.8945V45.7715C13.9928 45.5254 13.9713 45.2949 13.9284 45.0801C13.8893 44.8613 13.8229 44.668 13.7291 44.5C13.6354 44.332 13.5104 44.2012 13.3541 44.1074C13.2018 44.0137 13.0123 43.9668 12.7858 43.9668C12.567 43.9668 12.3815 44.0137 12.2291 44.1074C12.0768 44.2012 11.9538 44.332 11.86 44.5C11.7663 44.668 11.6979 44.8613 11.6549 45.0801C11.6159 45.2949 11.5963 45.5254 11.5963 45.7715ZM20.6704 42.6602V43.9434H16.9087V42.6602H20.6704ZM17.77 41.0898H19.604V47.0137C19.604 47.1895 19.6255 47.3242 19.6684 47.418C19.7114 47.5117 19.7817 47.5781 19.8794 47.6172C19.977 47.6523 20.102 47.6699 20.2544 47.6699C20.3638 47.6699 20.4575 47.666 20.5356 47.6582C20.6138 47.6504 20.686 47.6406 20.7524 47.6289V48.9531C20.5962 49.0039 20.4302 49.043 20.2544 49.0703C20.0786 49.1016 19.8872 49.1172 19.6802 49.1172C19.2856 49.1172 18.9438 49.0527 18.6548 48.9238C18.3696 48.7949 18.1509 48.5918 17.9985 48.3145C17.8462 48.0332 17.77 47.668 17.77 47.2188V41.0898ZM24.137 42.6602V49H22.303V42.6602H24.137ZM22.1917 41.0195C22.1917 40.7539 22.2855 40.5371 22.473 40.3691C22.6605 40.1973 22.9066 40.1113 23.2113 40.1113C23.5159 40.1113 23.762 40.1973 23.9495 40.3691C24.1409 40.5371 24.2366 40.7539 24.2366 41.0195C24.2366 41.2812 24.1409 41.498 23.9495 41.6699C23.762 41.8379 23.5159 41.9219 23.2113 41.9219C22.9066 41.9219 22.6605 41.8379 22.473 41.6699C22.2855 41.498 22.1917 41.2812 22.1917 41.0195ZM28.3888 49H26.549V42.4316C26.549 41.8809 26.6623 41.416 26.8888 41.0371C27.1193 40.6582 27.4494 40.3711 27.8791 40.1758C28.3088 39.9766 28.8263 39.877 29.4318 39.877C29.7795 39.877 30.1134 39.9082 30.4338 39.9707C30.758 40.0332 31.092 40.1152 31.4357 40.2168L31.1779 41.6758C30.9552 41.6094 30.7189 41.5488 30.4689 41.4941C30.2189 41.4395 29.9123 41.4121 29.549 41.4121C29.174 41.4121 28.8869 41.5 28.6877 41.6758C28.4884 41.8477 28.3888 42.0996 28.3888 42.4316V49ZM29.6369 42.6602V43.9434H25.6173V42.6602H29.6369ZM32.2795 42.6602V49H30.4455V42.6602H32.2795ZM36.0918 39.9941V49H34.2578V39.9941H36.0918ZM40.1172 42.6602L37.3574 45.8477L35.8984 47.3125L35.166 46.0762L36.3496 44.5469L37.9141 42.6602H40.1172ZM38.1836 49L36.3965 46.0879L37.709 45.0625L40.2812 49H38.1836ZM44.7616 47.4883V44.7695C44.7616 44.5781 44.7323 44.4141 44.6737 44.2773C44.6151 44.1406 44.5233 44.0332 44.3983 43.9551C44.2733 43.877 44.1112 43.8379 43.912 43.8379C43.744 43.8379 43.5975 43.8672 43.4725 43.9258C43.3514 43.9844 43.2577 44.0684 43.1912 44.1777C43.1287 44.2871 43.0975 44.4219 43.0975 44.582H41.2694C41.2694 44.2969 41.3338 44.0312 41.4627 43.7852C41.5916 43.5391 41.7752 43.3223 42.0135 43.1348C42.2557 42.9473 42.5448 42.8027 42.8807 42.7012C43.2166 42.5957 43.5936 42.543 44.0116 42.543C44.5077 42.543 44.9491 42.627 45.3358 42.7949C45.7264 42.959 46.035 43.207 46.2616 43.5391C46.4881 43.8672 46.6014 44.2812 46.6014 44.7812V47.4355C46.6014 47.8184 46.6229 48.1191 46.6659 48.3379C46.7127 48.5527 46.7791 48.7402 46.8651 48.9004V49H45.0194C44.9334 48.8164 44.869 48.5898 44.826 48.3203C44.783 48.0469 44.7616 47.7695 44.7616 47.4883ZM44.9901 45.1328L45.0018 46.1406H44.0936C43.8905 46.1406 43.7147 46.166 43.5662 46.2168C43.4217 46.2676 43.3045 46.3379 43.2147 46.4277C43.1248 46.5137 43.0584 46.6152 43.0155 46.7324C42.9764 46.8457 42.9569 46.9707 42.9569 47.1074C42.9569 47.2363 42.9881 47.3535 43.0506 47.459C43.1131 47.5605 43.1991 47.6406 43.3084 47.6992C43.4178 47.7578 43.5448 47.7871 43.6893 47.7871C43.9276 47.7871 44.1307 47.7402 44.2987 47.6465C44.4705 47.5527 44.6034 47.4395 44.6971 47.3066C44.7909 47.1699 44.8377 47.043 44.8377 46.9258L45.2772 47.6875C45.2069 47.8438 45.1209 48.0059 45.0194 48.1738C44.9178 48.3379 44.7889 48.4922 44.6327 48.6367C44.4764 48.7773 44.287 48.8926 44.0643 48.9824C43.8455 49.0723 43.5819 49.1172 43.2733 49.1172C42.8748 49.1172 42.5135 49.0371 42.1893 48.877C41.8651 48.7129 41.6053 48.4883 41.41 48.2031C41.2186 47.918 41.1229 47.5898 41.1229 47.2188C41.1229 46.8867 41.1834 46.5918 41.3045 46.334C41.4256 46.0762 41.6073 45.8574 41.8495 45.6777C42.0955 45.498 42.4041 45.3633 42.7752 45.2734C43.1463 45.1797 43.5799 45.1328 44.076 45.1328H44.9901ZM51.6852 42.6602V43.9434H47.9235V42.6602H51.6852ZM48.7848 41.0898H50.6188V47.0137C50.6188 47.1895 50.6403 47.3242 50.6833 47.418C50.7262 47.5117 50.7966 47.5781 50.8942 47.6172C50.9919 47.6523 51.1169 47.6699 51.2692 47.6699C51.3786 47.6699 51.4723 47.666 51.5505 47.6582C51.6286 47.6504 51.7009 47.6406 51.7673 47.6289V48.9531C51.611 49.0039 51.445 49.043 51.2692 49.0703C51.0934 49.1016 50.902 49.1172 50.695 49.1172C50.3005 49.1172 49.9587 49.0527 49.6696 48.9238C49.3845 48.7949 49.1657 48.5918 49.0134 48.3145C48.861 48.0332 48.7848 47.668 48.7848 47.2188V41.0898ZM55.1519 42.6602V49H53.3179V42.6602H55.1519ZM53.2066 41.0195C53.2066 40.7539 53.3003 40.5371 53.4878 40.3691C53.6753 40.1973 53.9214 40.1113 54.2261 40.1113C54.5308 40.1113 54.7769 40.1973 54.9644 40.3691C55.1558 40.5371 55.2515 40.7539 55.2515 41.0195C55.2515 41.2812 55.1558 41.498 54.9644 41.6699C54.7769 41.8379 54.5308 41.9219 54.2261 41.9219C53.9214 41.9219 53.6753 41.8379 53.4878 41.6699C53.3003 41.498 53.2066 41.2812 53.2066 41.0195ZM56.8666 45.8945V45.7715C56.8666 45.3066 56.933 44.8789 57.0658 44.4883C57.1986 44.0938 57.3939 43.752 57.6517 43.4629C57.9095 43.1738 58.2259 42.9492 58.6009 42.7891C58.9759 42.625 59.4056 42.543 59.89 42.543C60.3822 42.543 60.8158 42.625 61.1908 42.7891C61.5697 42.9492 61.888 43.1738 62.1459 43.4629C62.4037 43.752 62.599 44.0938 62.7318 44.4883C62.8646 44.8789 62.931 45.3066 62.931 45.7715V45.8945C62.931 46.3555 62.8646 46.7832 62.7318 47.1777C62.599 47.5684 62.4037 47.9102 62.1459 48.2031C61.888 48.4922 61.5716 48.7168 61.1966 48.877C60.8216 49.0371 60.39 49.1172 59.9017 49.1172C59.4173 49.1172 58.9857 49.0371 58.6068 48.877C58.2279 48.7168 57.9095 48.4922 57.6517 48.2031C57.3939 47.9102 57.1986 47.5684 57.0658 47.1777C56.933 46.7832 56.8666 46.3555 56.8666 45.8945ZM58.7005 45.7715V45.8945C58.7005 46.1445 58.7201 46.3789 58.7591 46.5977C58.8021 46.8164 58.8705 47.0078 58.9642 47.1719C59.058 47.3359 59.181 47.4648 59.3334 47.5586C59.4896 47.6484 59.6791 47.6934 59.9017 47.6934C60.1244 47.6934 60.3119 47.6484 60.4642 47.5586C60.6166 47.4648 60.7396 47.3359 60.8334 47.1719C60.9271 47.0078 60.9935 46.8164 61.0326 46.5977C61.0755 46.3789 61.097 46.1445 61.097 45.8945V45.7715C61.097 45.5254 61.0755 45.2949 61.0326 45.0801C60.9935 44.8613 60.9271 44.668 60.8334 44.5C60.7396 44.332 60.6146 44.2012 60.4584 44.1074C60.306 44.0137 60.1166 43.9668 59.89 43.9668C59.6712 43.9668 59.4857 44.0137 59.3334 44.1074C59.181 44.2012 59.058 44.332 58.9642 44.5C58.8705 44.668 58.8021 44.8613 58.7591 45.0801C58.7201 45.2949 58.7005 45.5254 58.7005 45.7715ZM66.3449 44.0137V49H64.5109V42.6602H66.2336L66.3449 44.0137ZM66.1047 45.6074L65.6477 45.6191C65.6477 45.1426 65.7062 44.7148 65.8234 44.3359C65.9406 43.957 66.1066 43.6348 66.3215 43.3691C66.5402 43.0996 66.8 42.8945 67.1008 42.7539C67.4055 42.6133 67.7414 42.543 68.1086 42.543C68.4055 42.543 68.677 42.5859 68.923 42.6719C69.1691 42.7578 69.3801 42.8965 69.5559 43.0879C69.7355 43.2754 69.8723 43.5254 69.966 43.8379C70.0598 44.1465 70.1066 44.5273 70.1066 44.9805V49H68.2668V44.9746C68.2668 44.709 68.2297 44.5039 68.1555 44.3594C68.0812 44.2148 67.9719 44.1133 67.8273 44.0547C67.6867 43.9961 67.5148 43.9668 67.3117 43.9668C67.0969 43.9668 66.9133 44.0098 66.7609 44.0957C66.6086 44.1777 66.4836 44.293 66.3859 44.4414C66.2883 44.5898 66.216 44.7637 66.1691 44.9629C66.1262 45.1621 66.1047 45.377 66.1047 45.6074Z" fill="black"/>
<path d="M46.85 28.13L46.51 27.83C45.5454 26.9706 44.7011 25.985 44 24.9C43.2342 23.4025 42.7752 21.7672 42.65 20.09V15.15C42.6566 12.5156 41.701 9.96947 39.9627 7.98997C38.2244 6.01046 35.8231 4.73385 33.21 4.39999V3.10999C33.21 2.75593 33.0693 2.41637 32.819 2.16601C32.5686 1.91565 32.2291 1.77499 31.875 1.77499C31.5209 1.77499 31.1814 1.91565 30.931 2.16601C30.6806 2.41637 30.54 2.75593 30.54 3.10999V4.41999C27.9502 4.77792 25.578 6.06225 23.8625 8.0351C22.1471 10.008 21.2047 12.5356 21.21 15.15V20.09C21.0847 21.7672 20.6258 23.4025 19.86 24.9C19.1709 25.9823 18.3402 26.9677 17.39 27.83L17.05 28.13V30.95H46.85V28.13Z" fill="black"/>
<path d="M29.32 32C29.4077 32.6339 29.7218 33.2146 30.2043 33.635C30.6868 34.0553 31.3051 34.2869 31.945 34.2869C32.5849 34.2869 33.2032 34.0553 33.6857 33.635C34.1682 33.2146 34.4823 32.6339 34.57 32H29.32Z" fill="black"/>
</svg>
