<svg width="30" height="50" viewBox="0 0 30 50" fill="none" xmlns="http://www.w3.org/2000/svg">
<path d="M3.98438 11.25H5.625C5.75391 11.25 5.85938 11.1445 5.85938 11.0156V5.85938H11.0156C11.1445 5.85938 11.25 5.75391 11.25 5.625V3.98438C11.25 3.85547 11.1445 3.75 11.0156 3.75H5.74219C4.64063 3.75 3.75 4.64063 3.75 5.74219V11.0156C3.75 11.1445 3.85547 11.25 3.98438 11.25ZM18.9844 5.85938H24.1406V11.0156C24.1406 11.1445 24.2461 11.25 24.375 11.25H26.0156C26.1445 11.25 26.25 11.1445 26.25 11.0156V5.74219C26.25 4.64063 25.3594 3.75 24.2578 3.75H18.9844C18.8555 3.75 18.75 3.85547 18.75 3.98438V5.625C18.75 5.75391 18.8555 5.85938 18.9844 5.85938ZM11.0156 24.1406H5.85938V18.9844C5.85938 18.8555 5.75391 18.75 5.625 18.75H3.98438C3.85547 18.75 3.75 18.8555 3.75 18.9844V24.2578C3.75 25.3594 4.64063 26.25 5.74219 26.25H11.0156C11.1445 26.25 11.25 26.1445 11.25 26.0156V24.375C11.25 24.2461 11.1445 24.1406 11.0156 24.1406ZM26.0156 18.75H24.375C24.2461 18.75 24.1406 18.8555 24.1406 18.9844V24.1406H18.9844C18.8555 24.1406 18.75 24.2461 18.75 24.375V26.0156C18.75 26.1445 18.8555 26.25 18.9844 26.25H24.2578C25.3594 26.25 26.25 25.3594 26.25 24.2578V18.9844C26.25 18.8555 26.1445 18.75 26.0156 18.75ZM26.4844 13.9453H3.51562C3.38672 13.9453 3.28125 14.0508 3.28125 14.1797V15.8203C3.28125 15.9492 3.38672 16.0547 3.51562 16.0547H26.4844C26.6133 16.0547 26.7188 15.9492 26.7188 15.8203V14.1797C26.7188 14.0508 26.6133 13.9453 26.4844 13.9453Z" fill="black"/>
<path d="M6.12695 44.75C6.12695 44.6055 6.10547 44.4766 6.0625 44.3633C6.01953 44.2461 5.94141 44.1387 5.82812 44.041C5.71484 43.9434 5.55469 43.8457 5.34766 43.748C5.14062 43.6465 4.86914 43.543 4.5332 43.4375C4.15039 43.3125 3.78516 43.1719 3.4375 43.0156C3.09375 42.8555 2.78711 42.6699 2.51758 42.459C2.24805 42.248 2.03516 42.002 1.87891 41.7207C1.72656 41.4395 1.65039 41.1113 1.65039 40.7363C1.65039 40.373 1.73047 40.0449 1.89062 39.752C2.05078 39.459 2.27539 39.209 2.56445 39.002C2.85352 38.791 3.19336 38.6309 3.58398 38.5215C3.97461 38.4082 4.4043 38.3516 4.87305 38.3516C5.49805 38.3516 6.04688 38.4629 6.51953 38.6855C6.99609 38.9043 7.36719 39.2129 7.63281 39.6113C7.89844 40.0059 8.03125 40.4648 8.03125 40.9883H6.13281C6.13281 40.7578 6.08398 40.5547 5.98633 40.3789C5.89258 40.1992 5.74805 40.0586 5.55273 39.957C5.36133 39.8555 5.12109 39.8047 4.83203 39.8047C4.55078 39.8047 4.31445 39.8477 4.12305 39.9336C3.93555 40.0156 3.79297 40.1289 3.69531 40.2734C3.60156 40.418 3.55469 40.5762 3.55469 40.748C3.55469 40.8848 3.58984 41.0098 3.66016 41.123C3.73438 41.2324 3.83984 41.3359 3.97656 41.4336C4.11719 41.5273 4.28906 41.6172 4.49219 41.7031C4.69531 41.7891 4.92773 41.8711 5.18945 41.9492C5.64648 42.0938 6.05078 42.2539 6.40234 42.4297C6.75781 42.6055 7.05664 42.8047 7.29883 43.0273C7.54102 43.25 7.72266 43.502 7.84375 43.7832C7.96875 44.0645 8.03125 44.3828 8.03125 44.7383C8.03125 45.1172 7.95703 45.4531 7.80859 45.7461C7.66406 46.0391 7.45312 46.2891 7.17578 46.4961C6.90234 46.6992 6.57422 46.8535 6.19141 46.959C5.80859 47.0645 5.38086 47.1172 4.9082 47.1172C4.47852 47.1172 4.05469 47.0625 3.63672 46.9531C3.21875 46.8398 2.83984 46.668 2.5 46.4375C2.16406 46.207 1.89453 45.9141 1.69141 45.5586C1.49219 45.1992 1.39258 44.7734 1.39258 44.2812H3.30273C3.30273 44.5391 3.33984 44.7578 3.41406 44.9375C3.48828 45.1133 3.59375 45.2559 3.73047 45.3652C3.87109 45.4746 4.04102 45.5527 4.24023 45.5996C4.43945 45.6465 4.66211 45.6699 4.9082 45.6699C5.19336 45.6699 5.42383 45.6309 5.59961 45.5527C5.7793 45.4707 5.91211 45.3594 5.99805 45.2188C6.08398 45.0781 6.12695 44.9219 6.12695 44.75ZM12.3709 45.6934C12.5662 45.6934 12.7362 45.6562 12.8807 45.582C13.0252 45.5078 13.1366 45.4043 13.2147 45.2715C13.2967 45.1348 13.3377 44.9707 13.3377 44.7793H15.0604C15.0604 45.2402 14.9412 45.6465 14.703 45.998C14.4686 46.3496 14.1522 46.625 13.7537 46.8242C13.3553 47.0195 12.9061 47.1172 12.4061 47.1172C11.9139 47.1172 11.4842 47.0371 11.117 46.877C10.7498 46.7129 10.4432 46.4844 10.1971 46.1914C9.95102 45.8984 9.76547 45.5586 9.64047 45.1719C9.51937 44.7812 9.45883 44.3594 9.45883 43.9062V43.7539C9.45883 43.3047 9.51937 42.8848 9.64047 42.4941C9.76547 42.1035 9.95102 41.7617 10.1971 41.4688C10.4432 41.1758 10.7479 40.9492 11.1112 40.7891C11.4784 40.625 11.908 40.543 12.4002 40.543C12.9198 40.543 13.3787 40.6426 13.7772 40.8418C14.1795 41.041 14.494 41.3281 14.7205 41.7031C14.9471 42.0742 15.0604 42.5215 15.0604 43.0449H13.3377C13.3377 42.8418 13.3006 42.6602 13.2264 42.5C13.1561 42.3359 13.0467 42.207 12.8983 42.1133C12.7537 42.0156 12.5741 41.9668 12.3592 41.9668C12.1366 41.9668 11.953 42.0156 11.8084 42.1133C11.6678 42.207 11.5604 42.3379 11.4862 42.5059C11.412 42.6738 11.3612 42.8652 11.3338 43.0801C11.3065 43.291 11.2928 43.5156 11.2928 43.7539V43.9062C11.2928 44.1484 11.3065 44.3789 11.3338 44.5977C11.3612 44.8125 11.412 45.002 11.4862 45.166C11.5643 45.3301 11.6737 45.459 11.8143 45.5527C11.9549 45.6465 12.1405 45.6934 12.3709 45.6934ZM19.986 45.4883V42.7695C19.986 42.5781 19.9567 42.4141 19.8981 42.2773C19.8395 42.1406 19.7477 42.0332 19.6227 41.9551C19.4977 41.877 19.3356 41.8379 19.1364 41.8379C18.9684 41.8379 18.822 41.8672 18.697 41.9258C18.5759 41.9844 18.4821 42.0684 18.4157 42.1777C18.3532 42.2871 18.322 42.4219 18.322 42.582H16.4938C16.4938 42.2969 16.5583 42.0312 16.6872 41.7852C16.8161 41.5391 16.9997 41.3223 17.238 41.1348C17.4802 40.9473 17.7692 40.8027 18.1052 40.7012C18.4411 40.5957 18.818 40.543 19.236 40.543C19.7321 40.543 20.1735 40.627 20.5602 40.7949C20.9509 40.959 21.2595 41.207 21.486 41.5391C21.7126 41.8672 21.8259 42.2812 21.8259 42.7812V45.4355C21.8259 45.8184 21.8473 46.1191 21.8903 46.3379C21.9372 46.5527 22.0036 46.7402 22.0895 46.9004V47H20.2438C20.1579 46.8164 20.0934 46.5898 20.0505 46.3203C20.0075 46.0469 19.986 45.7695 19.986 45.4883ZM20.2145 43.1328L20.2262 44.1406H19.318C19.1149 44.1406 18.9391 44.166 18.7907 44.2168C18.6462 44.2676 18.529 44.3379 18.4391 44.4277C18.3493 44.5137 18.2829 44.6152 18.2399 44.7324C18.2009 44.8457 18.1813 44.9707 18.1813 45.1074C18.1813 45.2363 18.2126 45.3535 18.2751 45.459C18.3376 45.5605 18.4235 45.6406 18.5329 45.6992C18.6423 45.7578 18.7692 45.7871 18.9137 45.7871C19.152 45.7871 19.3552 45.7402 19.5231 45.6465C19.695 45.5527 19.8278 45.4395 19.9216 45.3066C20.0153 45.1699 20.0622 45.043 20.0622 44.9258L20.5016 45.6875C20.4313 45.8438 20.3454 46.0059 20.2438 46.1738C20.1423 46.3379 20.0134 46.4922 19.8571 46.6367C19.7009 46.7773 19.5114 46.8926 19.2887 46.9824C19.07 47.0723 18.8063 47.1172 18.4977 47.1172C18.0993 47.1172 17.738 47.0371 17.4137 46.877C17.0895 46.7129 16.8298 46.4883 16.6345 46.2031C16.443 45.918 16.3473 45.5898 16.3473 45.2188C16.3473 44.8867 16.4079 44.5918 16.529 44.334C16.6501 44.0762 16.8317 43.8574 17.0739 43.6777C17.32 43.498 17.6286 43.3633 17.9997 43.2734C18.3708 43.1797 18.8044 43.1328 19.3005 43.1328H20.2145ZM25.48 42.0137V47H23.646V40.6602H25.3687L25.48 42.0137ZM25.2398 43.6074L24.7827 43.6191C24.7827 43.1426 24.8413 42.7148 24.9585 42.3359C25.0757 41.957 25.2417 41.6348 25.4566 41.3691C25.6753 41.0996 25.9351 40.8945 26.2359 40.7539C26.5405 40.6133 26.8765 40.543 27.2437 40.543C27.5405 40.543 27.812 40.5859 28.0581 40.6719C28.3042 40.7578 28.5152 40.8965 28.6909 41.0879C28.8706 41.2754 29.0073 41.5254 29.1011 41.8379C29.1948 42.1465 29.2417 42.5273 29.2417 42.9805V47H27.4019V42.9746C27.4019 42.709 27.3648 42.5039 27.2905 42.3594C27.2163 42.2148 27.107 42.1133 26.9624 42.0547C26.8218 41.9961 26.6499 41.9668 26.4468 41.9668C26.232 41.9668 26.0484 42.0098 25.896 42.0957C25.7437 42.1777 25.6187 42.293 25.521 42.4414C25.4234 42.5898 25.3511 42.7637 25.3042 42.9629C25.2612 43.1621 25.2398 43.377 25.2398 43.6074Z" fill="black"/>
</svg>
