<svg width="106" height="10" viewBox="0 0 106 10" fill="none" xmlns="http://www.w3.org/2000/svg">
<path d="M3.744 9.096C2.536 9.096 1.552 8.804 0.792 8.22C0.656 8.124 0.592 8.012 0.6 7.884C0.616 7.748 0.676 7.648 0.78 7.584C0.884 7.52 1.004 7.536 1.14 7.632C1.508 7.912 1.896 8.116 2.304 8.244C2.72 8.364 3.2 8.424 3.744 8.424C4.504 8.424 5.072 8.276 5.448 7.98C5.832 7.684 6.024 7.296 6.024 6.816C6.024 6.416 5.884 6.104 5.604 5.88C5.332 5.656 4.88 5.48 4.248 5.352L3.036 5.1C2.284 4.948 1.72 4.692 1.344 4.332C0.976 3.972 0.792 3.492 0.792 2.892C0.792 2.404 0.916 1.976 1.164 1.608C1.42 1.24 1.772 0.955999 2.22 0.756C2.668 0.547999 3.184 0.443999 3.768 0.443999C4.288 0.443999 4.764 0.515999 5.196 0.659999C5.636 0.803999 6.036 1.032 6.396 1.344C6.516 1.44 6.568 1.552 6.552 1.68C6.536 1.808 6.476 1.904 6.372 1.968C6.276 2.024 6.16 2 6.024 1.896C5.688 1.624 5.336 1.428 4.968 1.308C4.6 1.18 4.2 1.116 3.768 1.116C3.096 1.116 2.556 1.276 2.148 1.596C1.748 1.916 1.548 2.344 1.548 2.88C1.548 3.304 1.676 3.64 1.932 3.888C2.188 4.128 2.6 4.304 3.168 4.416L4.392 4.668C5.2 4.836 5.8 5.088 6.192 5.424C6.584 5.752 6.78 6.204 6.78 6.78C6.78 7.236 6.656 7.64 6.408 7.992C6.168 8.336 5.82 8.608 5.364 8.808C4.908 9 4.368 9.096 3.744 9.096ZM8.75306 9.072C8.51306 9.072 8.39306 8.944 8.39306 8.688V0.852C8.39306 0.596 8.51306 0.468 8.75306 0.468C9.00106 0.468 9.12506 0.596 9.12506 0.852V8.688C9.12506 8.944 9.00106 9.072 8.75306 9.072ZM11.7425 9C11.4705 9 11.3345 8.86 11.3345 8.58V0.96C11.3345 0.68 11.4705 0.539999 11.7425 0.539999H14.0585C15.4025 0.539999 16.4385 0.9 17.1665 1.62C17.9025 2.34 18.2705 3.388 18.2705 4.764C18.2705 6.14 17.9025 7.192 17.1665 7.92C16.4385 8.64 15.4025 9 14.0585 9H11.7425ZM12.0665 8.352H13.9985C16.3185 8.352 17.4785 7.156 17.4785 4.764C17.4785 2.38 16.3185 1.188 13.9985 1.188H12.0665V8.352ZM22.7753 9.096C21.5673 9.096 20.5833 8.804 19.8232 8.22C19.6873 8.124 19.6233 8.012 19.6313 7.884C19.6473 7.748 19.7073 7.648 19.8113 7.584C19.9153 7.52 20.0353 7.536 20.1713 7.632C20.5393 7.912 20.9273 8.116 21.3353 8.244C21.7513 8.364 22.2313 8.424 22.7753 8.424C23.5353 8.424 24.1033 8.276 24.4793 7.98C24.8633 7.684 25.0553 7.296 25.0553 6.816C25.0553 6.416 24.9153 6.104 24.6353 5.88C24.3633 5.656 23.9113 5.48 23.2793 5.352L22.0673 5.1C21.3153 4.948 20.7513 4.692 20.3753 4.332C20.0073 3.972 19.8232 3.492 19.8232 2.892C19.8232 2.404 19.9473 1.976 20.1953 1.608C20.4513 1.24 20.8033 0.955999 21.2513 0.756C21.6993 0.547999 22.2153 0.443999 22.7993 0.443999C23.3193 0.443999 23.7953 0.515999 24.2273 0.659999C24.6673 0.803999 25.0673 1.032 25.4273 1.344C25.5473 1.44 25.5993 1.552 25.5833 1.68C25.5673 1.808 25.5073 1.904 25.4033 1.968C25.3073 2.024 25.1913 2 25.0553 1.896C24.7193 1.624 24.3673 1.428 23.9993 1.308C23.6313 1.18 23.2313 1.116 22.7993 1.116C22.1273 1.116 21.5873 1.276 21.1793 1.596C20.7793 1.916 20.5793 2.344 20.5793 2.88C20.5793 3.304 20.7073 3.64 20.9633 3.888C21.2193 4.128 21.6313 4.304 22.1992 4.416L23.4233 4.668C24.2313 4.836 24.8313 5.088 25.2233 5.424C25.6153 5.752 25.8112 6.204 25.8112 6.78C25.8112 7.236 25.6873 7.64 25.4393 7.992C25.1993 8.336 24.8513 8.608 24.3953 8.808C23.9393 9 23.3993 9.096 22.7753 9.096ZM29.7085 9.072C29.4605 9.072 29.3365 8.944 29.3365 8.688V1.2H26.4685C26.2285 1.2 26.1085 1.088 26.1085 0.864C26.1085 0.648 26.2285 0.539999 26.4685 0.539999H32.9605C33.1925 0.539999 33.3085 0.648 33.3085 0.864C33.3085 1.088 33.1925 1.2 32.9605 1.2H30.0805V8.688C30.0805 8.944 29.9565 9.072 29.7085 9.072ZM40.841 9.096C40.065 9.096 39.393 8.92 38.825 8.568C38.265 8.216 37.829 7.716 37.517 7.068C37.213 6.42 37.061 5.652 37.061 4.764C37.061 3.876 37.213 3.108 37.517 2.46C37.821 1.812 38.257 1.316 38.825 0.972C39.393 0.619999 40.065 0.443999 40.841 0.443999C41.625 0.443999 42.297 0.619999 42.857 0.972C43.425 1.316 43.861 1.812 44.165 2.46C44.477 3.1 44.633 3.864 44.633 4.752C44.633 5.648 44.477 6.42 44.165 7.068C43.861 7.716 43.425 8.216 42.857 8.568C42.289 8.92 41.617 9.096 40.841 9.096ZM40.841 8.424C41.793 8.424 42.533 8.104 43.061 7.464C43.589 6.824 43.853 5.924 43.853 4.764C43.853 3.604 43.589 2.708 43.061 2.076C42.541 1.436 41.801 1.116 40.841 1.116C39.889 1.116 39.149 1.436 38.621 2.076C38.101 2.716 37.841 3.612 37.841 4.764C37.841 5.916 38.101 6.816 38.621 7.464C39.149 8.104 39.889 8.424 40.841 8.424ZM46.8624 9.072C46.6224 9.072 46.5024 8.944 46.5024 8.688V0.924C46.5024 0.668 46.6264 0.539999 46.8744 0.539999H49.6944C50.5984 0.539999 51.2864 0.756 51.7584 1.188C52.2384 1.62 52.4784 2.236 52.4784 3.036C52.4784 3.828 52.2384 4.444 51.7584 4.884C51.2864 5.316 50.5984 5.532 49.6944 5.532H47.2344V8.688C47.2344 8.944 47.1104 9.072 46.8624 9.072ZM47.2344 4.884H49.6344C51.0344 4.884 51.7344 4.268 51.7344 3.036C51.7344 1.796 51.0344 1.176 49.6344 1.176H47.2344V4.884ZM54.3987 9C54.1267 9 53.9907 8.86 53.9907 8.58V0.96C53.9907 0.68 54.1267 0.539999 54.3987 0.539999H56.7147C58.0587 0.539999 59.0947 0.9 59.8227 1.62C60.5587 2.34 60.9267 3.388 60.9267 4.764C60.9267 6.14 60.5587 7.192 59.8227 7.92C59.0947 8.64 58.0587 9 56.7147 9H54.3987ZM54.7227 8.352H56.6547C58.9747 8.352 60.1347 7.156 60.1347 4.764C60.1347 2.38 58.9747 1.188 56.6547 1.188H54.7227V8.352ZM62.3626 9.072C62.2026 9.072 62.0986 9.024 62.0506 8.928C62.0026 8.824 62.0106 8.7 62.0746 8.556L65.4466 0.804C65.5426 0.58 65.6906 0.468 65.8906 0.468C66.0906 0.468 66.2386 0.58 66.3346 0.804L69.7066 8.556C69.7786 8.7 69.7906 8.824 69.7426 8.928C69.7026 9.024 69.6066 9.072 69.4546 9.072C69.3426 9.072 69.2506 9.044 69.1786 8.988C69.1146 8.924 69.0586 8.84 69.0106 8.736L68.1586 6.744H63.6226L62.7706 8.736C62.6746 8.96 62.5386 9.072 62.3626 9.072ZM65.8786 1.452L63.8986 6.108H67.8826L65.9026 1.452H65.8786ZM72.8687 9.072C72.6207 9.072 72.4967 8.944 72.4967 8.688V1.2H69.6287C69.3887 1.2 69.2687 1.088 69.2687 0.864C69.2687 0.648 69.3887 0.539999 69.6287 0.539999H76.1207C76.3527 0.539999 76.4687 0.648 76.4687 0.864C76.4687 1.088 76.3527 1.2 76.1207 1.2H73.2407V8.688C73.2407 8.944 73.1167 9.072 72.8687 9.072ZM77.9417 9C77.6697 9 77.5337 8.86 77.5337 8.58V0.96C77.5337 0.68 77.6697 0.539999 77.9417 0.539999H82.4777C82.7017 0.539999 82.8137 0.644 82.8137 0.852C82.8137 1.068 82.7017 1.176 82.4777 1.176H78.2537V4.392H82.2377C82.4617 4.392 82.5737 4.496 82.5737 4.704C82.5737 4.92 82.4617 5.028 82.2377 5.028H78.2537V8.364H82.4777C82.7017 8.364 82.8137 8.468 82.8137 8.676C82.8137 8.892 82.7017 9 82.4777 9H77.9417ZM84.8078 9.072C84.5678 9.072 84.4478 8.944 84.4478 8.688V0.924C84.4478 0.668 84.5718 0.539999 84.8198 0.539999H87.6398C88.5438 0.539999 89.2318 0.747999 89.7038 1.164C90.1838 1.58 90.4238 2.172 90.4238 2.94C90.4238 3.572 90.2518 4.084 89.9078 4.476C89.5638 4.868 89.0758 5.12 88.4438 5.232C88.7878 5.36 89.0918 5.672 89.3558 6.168L90.6278 8.532C90.6998 8.668 90.7118 8.792 90.6638 8.904C90.6238 9.016 90.5358 9.072 90.3997 9.072C90.2078 9.072 90.0638 8.98 89.9678 8.796L88.6238 6.288C88.4158 5.912 88.1838 5.66 87.9278 5.532C87.6718 5.404 87.3278 5.34 86.8958 5.34H85.1798V8.688C85.1798 8.944 85.0558 9.072 84.8078 9.072ZM85.1798 4.716H87.5438C88.9678 4.716 89.6797 4.124 89.6797 2.94C89.6797 1.764 88.9678 1.176 87.5438 1.176H85.1798V4.716ZM92.7893 9C92.5173 9 92.3813 8.86 92.3813 8.58V0.96C92.3813 0.68 92.5173 0.539999 92.7893 0.539999H97.3253C97.5493 0.539999 97.6613 0.644 97.6613 0.852C97.6613 1.068 97.5493 1.176 97.3253 1.176H93.1013V4.392H97.0853C97.3093 4.392 97.4213 4.496 97.4213 4.704C97.4213 4.92 97.3093 5.028 97.0853 5.028H93.1013V8.364H97.3253C97.5493 8.364 97.6613 8.468 97.6613 8.676C97.6613 8.892 97.5493 9 97.3253 9H92.7893ZM101.556 9.072C101.308 9.072 101.184 8.944 101.184 8.688V1.2H98.3162C98.0762 1.2 97.9562 1.088 97.9562 0.864C97.9562 0.648 98.0762 0.539999 98.3162 0.539999H104.808C105.04 0.539999 105.156 0.648 105.156 0.864C105.156 1.088 105.04 1.2 104.808 1.2H101.928V8.688C101.928 8.944 101.804 9.072 101.556 9.072Z" fill="#211A52"/>
</svg>
