<svg width="61" height="10" viewBox="0 0 61 10" fill="none" xmlns="http://www.w3.org/2000/svg">
<path d="M3.744 9.096C2.536 9.096 1.552 8.804 0.792 8.22C0.656 8.124 0.592 8.012 0.6 7.884C0.616 7.748 0.676 7.648 0.78 7.584C0.884 7.52 1.004 7.536 1.14 7.632C1.508 7.912 1.896 8.116 2.304 8.244C2.72 8.364 3.2 8.424 3.744 8.424C4.504 8.424 5.072 8.276 5.448 7.98C5.832 7.684 6.024 7.296 6.024 6.816C6.024 6.416 5.884 6.104 5.604 5.88C5.332 5.656 4.88 5.48 4.248 5.352L3.036 5.1C2.284 4.948 1.72 4.692 1.344 4.332C0.976 3.972 0.792 3.492 0.792 2.892C0.792 2.404 0.916 1.976 1.164 1.608C1.42 1.24 1.772 0.955999 2.22 0.756C2.668 0.547999 3.184 0.443999 3.768 0.443999C4.288 0.443999 4.764 0.515999 5.196 0.659999C5.636 0.803999 6.036 1.032 6.396 1.344C6.516 1.44 6.568 1.552 6.552 1.68C6.536 1.808 6.476 1.904 6.372 1.968C6.276 2.024 6.16 2 6.024 1.896C5.688 1.624 5.336 1.428 4.968 1.308C4.6 1.18 4.2 1.116 3.768 1.116C3.096 1.116 2.556 1.276 2.148 1.596C1.748 1.916 1.548 2.344 1.548 2.88C1.548 3.304 1.676 3.64 1.932 3.888C2.188 4.128 2.6 4.304 3.168 4.416L4.392 4.668C5.2 4.836 5.8 5.088 6.192 5.424C6.584 5.752 6.78 6.204 6.78 6.78C6.78 7.236 6.656 7.64 6.408 7.992C6.168 8.336 5.82 8.608 5.364 8.808C4.908 9 4.368 9.096 3.744 9.096ZM10.4451 9.096C9.79706 9.096 9.30906 8.92 8.98106 8.568C8.66106 8.216 8.50106 7.712 8.50106 7.056V3.768H7.61306C7.38106 3.768 7.26506 3.668 7.26506 3.468C7.26506 3.276 7.38106 3.18 7.61306 3.18H8.50106V1.68C8.50106 1.432 8.62506 1.308 8.87306 1.308C9.11306 1.308 9.23306 1.432 9.23306 1.68V3.18H10.8531C11.0771 3.18 11.1891 3.276 11.1891 3.468C11.1891 3.668 11.0771 3.768 10.8531 3.768H9.23306V6.96C9.23306 7.448 9.33306 7.82 9.53306 8.076C9.73306 8.332 10.0651 8.46 10.5291 8.46C10.6891 8.46 10.8211 8.444 10.9251 8.412C11.0291 8.372 11.1211 8.352 11.2011 8.352C11.3451 8.352 11.4171 8.452 11.4171 8.652C11.4171 8.716 11.4011 8.78 11.3691 8.844C11.3451 8.9 11.2971 8.94 11.2251 8.964C11.1371 8.996 11.0171 9.024 10.8651 9.048C10.7131 9.08 10.5731 9.096 10.4451 9.096ZM14.3206 9.096C12.9366 9.096 12.2446 8.344 12.2446 6.84V3.48C12.2446 3.224 12.3686 3.096 12.6166 3.096C12.8566 3.096 12.9766 3.224 12.9766 3.48V6.804C12.9766 7.372 13.0926 7.792 13.3246 8.064C13.5566 8.336 13.9206 8.472 14.4166 8.472C14.9526 8.472 15.3886 8.292 15.7246 7.932C16.0686 7.572 16.2406 7.092 16.2406 6.492V3.48C16.2406 3.224 16.3646 3.096 16.6126 3.096C16.8526 3.096 16.9726 3.224 16.9726 3.48V8.7C16.9726 8.948 16.8566 9.072 16.6246 9.072C16.3846 9.072 16.2646 8.948 16.2646 8.7V7.968C16.0726 8.336 15.8046 8.616 15.4606 8.808C15.1246 9 14.7446 9.096 14.3206 9.096ZM21.1214 9.096C20.5934 9.096 20.1374 8.976 19.7534 8.736C19.3694 8.488 19.0694 8.14 18.8534 7.692C18.6454 7.236 18.5414 6.7 18.5414 6.084C18.5414 5.164 18.7734 4.432 19.2374 3.888C19.7014 3.344 20.3294 3.072 21.1214 3.072C21.5854 3.072 21.9934 3.18 22.3454 3.396C22.7054 3.604 22.9734 3.892 23.1494 4.26V0.84C23.1494 0.592 23.2694 0.468 23.5094 0.468C23.7574 0.468 23.8814 0.592 23.8814 0.84V8.7C23.8814 8.948 23.7614 9.072 23.5214 9.072C23.2734 9.072 23.1494 8.948 23.1494 8.7V7.908C22.9734 8.276 22.7054 8.568 22.3454 8.784C21.9934 8.992 21.5854 9.096 21.1214 9.096ZM21.2174 8.484C21.8094 8.484 22.2814 8.276 22.6334 7.86C22.9854 7.436 23.1614 6.844 23.1614 6.084C23.1614 5.324 22.9854 4.736 22.6334 4.32C22.2814 3.904 21.8094 3.696 21.2174 3.696C20.6254 3.696 20.1534 3.904 19.8014 4.32C19.4574 4.736 19.2854 5.324 19.2854 6.084C19.2854 6.844 19.4574 7.436 19.8014 7.86C20.1534 8.276 20.6254 8.484 21.2174 8.484ZM28.3358 9.096C27.4398 9.096 26.7318 8.832 26.2118 8.304C25.6998 7.768 25.4438 7.036 25.4438 6.108C25.4438 5.508 25.5598 4.98 25.7918 4.524C26.0238 4.068 26.3438 3.712 26.7518 3.456C27.1678 3.2 27.6438 3.072 28.1798 3.072C28.9558 3.072 29.5598 3.324 29.9918 3.828C30.4238 4.332 30.6398 5.024 30.6398 5.904C30.6398 6.128 30.5278 6.24 30.3038 6.24H26.1638C26.1878 6.96 26.3838 7.516 26.7518 7.908C27.1278 8.292 27.6478 8.484 28.3118 8.484C28.6078 8.484 28.8918 8.448 29.1638 8.376C29.4438 8.296 29.7158 8.156 29.9798 7.956C30.1238 7.86 30.2478 7.84 30.3518 7.896C30.4558 7.944 30.5118 8.028 30.5198 8.148C30.5358 8.26 30.4758 8.364 30.3398 8.46C30.0838 8.668 29.7718 8.828 29.4038 8.94C29.0438 9.044 28.6878 9.096 28.3358 9.096ZM28.1918 3.66C27.5838 3.66 27.1078 3.852 26.7638 4.236C26.4278 4.612 26.2318 5.1 26.1758 5.7H29.9798C29.9638 5.06 29.8038 4.56 29.4998 4.2C29.1958 3.84 28.7598 3.66 28.1918 3.66ZM32.5039 9.072C32.2559 9.072 32.1319 8.948 32.1319 8.7V3.48C32.1319 3.224 32.2559 3.096 32.5039 3.096C32.7359 3.096 32.8519 3.224 32.8519 3.48V4.236C33.0279 3.86 33.2879 3.572 33.6319 3.372C33.9839 3.172 34.3879 3.068 34.8439 3.06C34.9399 3.052 35.0199 3.072 35.0839 3.12C35.1479 3.168 35.1799 3.244 35.1799 3.348C35.1879 3.572 35.0719 3.696 34.8319 3.72L34.6639 3.732C34.0959 3.78 33.6559 3.968 33.3439 4.296C33.0319 4.616 32.8759 5.048 32.8759 5.592V8.7C32.8759 8.948 32.7519 9.072 32.5039 9.072ZM38.6951 9.096C37.7991 9.096 37.0911 8.832 36.5711 8.304C36.0591 7.768 35.8031 7.036 35.8031 6.108C35.8031 5.508 35.9191 4.98 36.1511 4.524C36.3831 4.068 36.7031 3.712 37.1111 3.456C37.5271 3.2 38.0031 3.072 38.5391 3.072C39.3151 3.072 39.9191 3.324 40.3511 3.828C40.7831 4.332 40.9991 5.024 40.9991 5.904C40.9991 6.128 40.8871 6.24 40.6631 6.24H36.5231C36.5471 6.96 36.7431 7.516 37.1111 7.908C37.4871 8.292 38.0071 8.484 38.6711 8.484C38.9671 8.484 39.2511 8.448 39.5231 8.376C39.8031 8.296 40.0751 8.156 40.3391 7.956C40.4831 7.86 40.6071 7.84 40.7111 7.896C40.8151 7.944 40.8711 8.028 40.8791 8.148C40.8951 8.26 40.8351 8.364 40.6991 8.46C40.4431 8.668 40.1311 8.828 39.7631 8.94C39.4031 9.044 39.0471 9.096 38.6951 9.096ZM38.5511 3.66C37.9431 3.66 37.4671 3.852 37.1231 4.236C36.7871 4.612 36.5911 5.1 36.5351 5.7H40.3391C40.3231 5.06 40.1631 4.56 39.8591 4.2C39.5551 3.84 39.1191 3.66 38.5511 3.66ZM42.8633 9.072C42.6153 9.072 42.4913 8.948 42.4913 8.7V3.48C42.4913 3.224 42.6153 3.096 42.8633 3.096C43.0953 3.096 43.2113 3.224 43.2113 3.48V4.224C43.4033 3.84 43.6793 3.552 44.0393 3.36C44.3993 3.168 44.7993 3.072 45.2393 3.072C46.6233 3.072 47.3153 3.824 47.3153 5.328V8.7C47.3153 8.948 47.1953 9.072 46.9553 9.072C46.7073 9.072 46.5833 8.948 46.5833 8.7V5.388C46.5833 4.812 46.4673 4.388 46.2353 4.116C46.0033 3.844 45.6353 3.708 45.1313 3.708C44.5553 3.708 44.0913 3.888 43.7393 4.248C43.3953 4.6 43.2233 5.076 43.2233 5.676V8.7C43.2233 8.948 43.1033 9.072 42.8633 9.072ZM51.4261 9.096C50.8981 9.096 50.4421 8.976 50.0581 8.736C49.6741 8.488 49.3741 8.14 49.1581 7.692C48.9501 7.236 48.8461 6.7 48.8461 6.084C48.8461 5.164 49.0781 4.432 49.5421 3.888C50.0061 3.344 50.6341 3.072 51.4261 3.072C51.8901 3.072 52.2981 3.18 52.6501 3.396C53.0101 3.604 53.2781 3.892 53.4541 4.26V0.84C53.4541 0.592 53.5741 0.468 53.8141 0.468C54.0621 0.468 54.1861 0.592 54.1861 0.84V8.7C54.1861 8.948 54.0661 9.072 53.8261 9.072C53.5781 9.072 53.4541 8.948 53.4541 8.7V7.908C53.2781 8.276 53.0101 8.568 52.6501 8.784C52.2981 8.992 51.8901 9.096 51.4261 9.096ZM51.5221 8.484C52.1141 8.484 52.5861 8.276 52.9381 7.86C53.2901 7.436 53.4661 6.844 53.4661 6.084C53.4661 5.324 53.2901 4.736 52.9381 4.32C52.5861 3.904 52.1141 3.696 51.5221 3.696C50.9301 3.696 50.4581 3.904 50.1061 4.32C49.7621 4.736 49.5901 5.324 49.5901 6.084C49.5901 6.844 49.7621 7.436 50.1061 7.86C50.4581 8.276 50.9301 8.484 51.5221 8.484ZM58.6404 9.096C57.7444 9.096 57.0364 8.832 56.5164 8.304C56.0044 7.768 55.7484 7.036 55.7484 6.108C55.7484 5.508 55.8644 4.98 56.0964 4.524C56.3284 4.068 56.6484 3.712 57.0564 3.456C57.4724 3.2 57.9484 3.072 58.4844 3.072C59.2604 3.072 59.8644 3.324 60.2964 3.828C60.7284 4.332 60.9444 5.024 60.9444 5.904C60.9444 6.128 60.8324 6.24 60.6084 6.24H56.4684C56.4924 6.96 56.6884 7.516 57.0564 7.908C57.4324 8.292 57.9524 8.484 58.6164 8.484C58.9124 8.484 59.1964 8.448 59.4684 8.376C59.7484 8.296 60.0204 8.156 60.2844 7.956C60.4284 7.86 60.5524 7.84 60.6564 7.896C60.7604 7.944 60.8164 8.028 60.8244 8.148C60.8404 8.26 60.7804 8.364 60.6444 8.46C60.3884 8.668 60.0764 8.828 59.7084 8.94C59.3484 9.044 58.9924 9.096 58.6404 9.096ZM58.4964 3.66C57.8884 3.66 57.4124 3.852 57.0684 4.236C56.7324 4.612 56.5364 5.1 56.4804 5.7H60.2844C60.2684 5.06 60.1084 4.56 59.8044 4.2C59.5004 3.84 59.0644 3.66 58.4964 3.66Z" fill="#211A52"/>
</svg>
