<svg width="58" height="10" viewBox="0 0 58 10" fill="none" xmlns="http://www.w3.org/2000/svg">
<path d="M3.744 9.096C2.536 9.096 1.552 8.804 0.792 8.22C0.656 8.124 0.592 8.012 0.6 7.884C0.616 7.748 0.676 7.648 0.78 7.584C0.884 7.52 1.004 7.536 1.14 7.632C1.508 7.912 1.896 8.116 2.304 8.244C2.72 8.364 3.2 8.424 3.744 8.424C4.504 8.424 5.072 8.276 5.448 7.98C5.832 7.684 6.024 7.296 6.024 6.816C6.024 6.416 5.884 6.104 5.604 5.88C5.332 5.656 4.88 5.48 4.248 5.352L3.036 5.1C2.284 4.948 1.72 4.692 1.344 4.332C0.976 3.972 0.792 3.492 0.792 2.892C0.792 2.404 0.916 1.976 1.164 1.608C1.42 1.24 1.772 0.955999 2.22 0.756C2.668 0.547999 3.184 0.443999 3.768 0.443999C4.288 0.443999 4.764 0.515999 5.196 0.659999C5.636 0.803999 6.036 1.032 6.396 1.344C6.516 1.44 6.568 1.552 6.552 1.68C6.536 1.808 6.476 1.904 6.372 1.968C6.276 2.024 6.16 2 6.024 1.896C5.688 1.624 5.336 1.428 4.968 1.308C4.6 1.18 4.2 1.116 3.768 1.116C3.096 1.116 2.556 1.276 2.148 1.596C1.748 1.916 1.548 2.344 1.548 2.88C1.548 3.304 1.676 3.64 1.932 3.888C2.188 4.128 2.6 4.304 3.168 4.416L4.392 4.668C5.2 4.836 5.8 5.088 6.192 5.424C6.584 5.752 6.78 6.204 6.78 6.78C6.78 7.236 6.656 7.64 6.408 7.992C6.168 8.336 5.82 8.608 5.364 8.808C4.908 9 4.368 9.096 3.744 9.096ZM10.6773 9.072C10.4293 9.072 10.3053 8.944 10.3053 8.688V1.2H7.43728C7.19728 1.2 7.07728 1.088 7.07728 0.864C7.07728 0.648 7.19728 0.539999 7.43728 0.539999H13.9293C14.1613 0.539999 14.2773 0.648 14.2773 0.864C14.2773 1.088 14.1613 1.2 13.9293 1.2H11.0493V8.688C11.0493 8.944 10.9253 9.072 10.6773 9.072ZM18.5823 9.096C17.5023 9.096 16.6823 8.808 16.1223 8.232C15.5623 7.648 15.2823 6.804 15.2823 5.7V0.84C15.2823 0.592 15.4023 0.468 15.6423 0.468C15.8903 0.468 16.0143 0.592 16.0143 0.84V5.64C16.0143 7.496 16.8703 8.424 18.5823 8.424C20.2943 8.424 21.1503 7.496 21.1503 5.64V0.84C21.1503 0.592 21.2743 0.468 21.5223 0.468C21.7623 0.468 21.8823 0.592 21.8823 0.84V5.7C21.8823 6.804 21.6023 7.648 21.0423 8.232C20.4823 8.808 19.6623 9.096 18.5823 9.096ZM24.4339 9C24.1619 9 24.0259 8.86 24.0259 8.58V0.96C24.0259 0.68 24.1619 0.539999 24.4339 0.539999H26.7499C28.0939 0.539999 29.1299 0.9 29.8579 1.62C30.5939 2.34 30.9619 3.388 30.9619 4.764C30.9619 6.14 30.5939 7.192 29.8579 7.92C29.1299 8.64 28.0939 9 26.7499 9H24.4339ZM24.7579 8.352H26.6899C29.0099 8.352 30.1699 7.156 30.1699 4.764C30.1699 2.38 29.0099 1.188 26.6899 1.188H24.7579V8.352ZM33.1867 9.072C32.9467 9.072 32.8267 8.944 32.8267 8.688V0.852C32.8267 0.596 32.9467 0.468 33.1867 0.468C33.4347 0.468 33.5587 0.596 33.5587 0.852V8.688C33.5587 8.944 33.4347 9.072 33.1867 9.072ZM36.1761 9C35.9041 9 35.7681 8.86 35.7681 8.58V0.96C35.7681 0.68 35.9041 0.539999 36.1761 0.539999H40.7121C40.9361 0.539999 41.0481 0.644 41.0481 0.852C41.0481 1.068 40.9361 1.176 40.7121 1.176H36.4881V4.392H40.4721C40.6961 4.392 40.8081 4.496 40.8081 4.704C40.8081 4.92 40.6961 5.028 40.4721 5.028H36.4881V8.364H40.7121C40.9361 8.364 41.0481 8.468 41.0481 8.676C41.0481 8.892 40.9361 9 40.7121 9H36.1761ZM43.0301 9.072C42.7981 9.072 42.6821 8.948 42.6821 8.7V0.852C42.6821 0.596 42.7861 0.468 42.9941 0.468C43.0901 0.468 43.1621 0.484 43.2101 0.516C43.2661 0.548 43.3221 0.608 43.3781 0.696L48.6221 7.752V0.827999C48.6221 0.588 48.7381 0.468 48.9701 0.468C49.1941 0.468 49.3061 0.588 49.3061 0.827999V8.7C49.3061 8.948 49.2061 9.072 49.0061 9.072C48.8541 9.072 48.7221 8.996 48.6101 8.844L43.3661 1.776V8.7C43.3661 8.948 43.2541 9.072 43.0301 9.072ZM51.8781 9.072C51.6381 9.072 51.5181 8.944 51.5181 8.688V0.924C51.5181 0.668 51.6421 0.539999 51.8901 0.539999H54.7101C55.6141 0.539999 56.3021 0.747999 56.7741 1.164C57.2541 1.58 57.4941 2.172 57.4941 2.94C57.4941 3.572 57.3221 4.084 56.9781 4.476C56.6341 4.868 56.1461 5.12 55.5141 5.232C55.8581 5.36 56.1621 5.672 56.4261 6.168L57.6981 8.532C57.7701 8.668 57.7821 8.792 57.7341 8.904C57.6941 9.016 57.6061 9.072 57.4701 9.072C57.2781 9.072 57.1341 8.98 57.0381 8.796L55.6941 6.288C55.4861 5.912 55.2541 5.66 54.9981 5.532C54.7421 5.404 54.3981 5.34 53.9661 5.34H52.2501V8.688C52.2501 8.944 52.1261 9.072 51.8781 9.072ZM52.2501 4.716H54.6141C56.0381 4.716 56.7501 4.124 56.7501 2.94C56.7501 1.764 56.0381 1.176 54.6141 1.176H52.2501V4.716Z" fill="#211A52"/>
</svg>
