<svg width="64" height="99" viewBox="0 0 64 99" fill="none" xmlns="http://www.w3.org/2000/svg">
<path d="M31.9997 4.44031e-05C20.4191 -0.0164486 9.30421 4.56225 1.09018 12.733C0.38089 13.4591 -0.0111725 14.4374 0.000242454 15.4528C0.0116574 16.4683 0.425614 17.4376 1.15105 18.1475C1.87648 18.8574 2.85397 19.2498 3.86848 19.2384C4.88299 19.227 5.85141 18.8127 6.5607 18.0866C9.90175 14.7486 13.8694 12.105 18.2353 10.3079C22.6012 8.5108 27.2791 7.59576 31.9997 7.61543C41.9593 7.61543 50.9069 11.5754 57.4426 18.0866C57.7938 18.4458 58.2122 18.7324 58.6741 18.9298C59.1359 19.1272 59.6321 19.2316 60.1342 19.2371C60.6364 19.2426 61.1347 19.149 61.6007 18.9617C62.0668 18.7744 62.4914 18.4971 62.8503 18.1456C63.2093 17.7941 63.4955 17.3752 63.6927 16.913C63.89 16.4507 63.9943 15.9541 63.9998 15.4515C64.0052 14.9489 63.9118 14.4501 63.7247 13.9837C63.5376 13.5172 63.2605 13.0922 62.9093 12.733C54.6936 4.56473 43.5797 -0.0135351 31.9997 4.44031e-05ZM31.9997 15.2308C28.5519 15.2211 25.1404 15.9364 21.9863 17.3302C18.8321 18.7241 16.0057 20.7654 13.6899 23.3221C13.2993 23.6787 12.9873 24.1128 12.7738 24.5968C12.5602 25.0808 12.4497 25.604 12.4494 26.1331C12.4491 26.6622 12.559 27.1855 12.772 27.6697C12.985 28.154 13.2965 28.5884 13.6867 28.9454C14.0768 29.3024 14.537 29.5742 15.0379 29.7432C15.5388 29.9123 16.0694 29.9751 16.5958 29.9275C17.1223 29.8799 17.6331 29.723 18.0956 29.4669C18.5581 29.2107 18.9622 28.8609 19.2821 28.4397C20.891 26.6662 22.8549 25.2516 25.046 24.2879C27.2371 23.3242 29.6064 22.8329 31.9997 22.8462C37.048 22.8462 41.5788 24.9709 44.7211 28.4397C45.0396 28.8652 45.4434 29.2192 45.9068 29.479C46.3702 29.7388 46.8828 29.8986 47.4116 29.9481C47.9404 29.9976 48.4737 29.9357 48.9772 29.7665C49.4806 29.5972 49.9431 29.3244 50.3349 28.9654C50.7266 28.6064 51.0389 28.1693 51.2516 27.6823C51.4644 27.1952 51.5729 26.6689 51.5702 26.1373C51.5674 25.6057 51.4535 25.0806 51.2357 24.5958C51.018 24.1109 50.7012 23.6771 50.3058 23.3221C47.9895 20.767 45.1635 18.7267 42.0103 17.333C38.857 15.9392 35.4467 15.2231 31.9997 15.2308ZM1.56571 26.6539V87.5769C1.56571 90.6065 2.76813 93.512 4.90843 95.6543C7.04874 97.7965 9.95162 99 12.9785 99H51.021C54.0478 99 56.9507 97.7965 59.091 95.6543C61.2313 93.512 62.4338 90.6065 62.4338 87.5769V26.6539L54.8252 34.2693V78.0577C54.8252 78.5626 54.6248 79.0469 54.2681 79.4039C53.9114 79.761 53.4276 79.9615 52.9231 79.9615H11.0763C10.5719 79.9615 10.0881 79.761 9.73134 79.4039C9.37462 79.0469 9.17422 78.5626 9.17422 78.0577V34.2693L1.56571 26.6539ZM31.9997 30.4616C27.7846 30.4616 24.3912 33.8618 24.3912 38.077C24.3912 42.2921 27.7846 45.6923 31.9997 45.6923C34.0176 45.6923 35.9529 44.89 37.3798 43.4618C38.8066 42.0337 39.6082 40.0967 39.6082 38.077C39.6082 36.0572 38.8066 34.1202 37.3798 32.6921C35.9529 31.2639 34.0176 30.4616 31.9997 30.4616ZM33.9019 84.6031C36.5877 84.6031 38.7751 86.7925 38.7751 89.4808C38.7751 92.169 36.5877 94.3584 33.9019 94.3584C32.61 94.3564 31.3716 93.8419 30.4582 92.9276C29.5447 92.0133 29.0306 90.7738 29.0286 89.4808C29.0286 86.7925 31.2161 84.6031 33.9019 84.6031Z" fill="url(#paint0_linear_112_323)"/>
<defs>
<linearGradient id="paint0_linear_112_323" x1="32" y1="0" x2="32" y2="99" gradientUnits="userSpaceOnUse">
<stop stop-color="#FFA3E0"/>
<stop offset="0.279514" stop-color="#0038FF"/>
<stop offset="0.519097" stop-color="#7BF987"/>
<stop offset="0.722222" stop-color="#FBEF84"/>
<stop offset="0.94618" stop-color="#FB7AE6"/>
</linearGradient>
</defs>
</svg>
